<svg width="330" height="42" viewBox="0 0 330 42" fill="none" xmlns="http://www.w3.org/2000/svg">
<path d="M64.032 27V25.864H66.688V16.856H67.392L64.288 18.792V17.464L67.056 15.72H68.016V25.864H70.512V27H64.032Z" fill="black"/>
<line x1="46" y1="41.5" x2="284" y2="41.5" stroke="#DBDBDB"/>
<line x1="46" y1="41.5" x2="88" y2="41.5" stroke="#6E978F"/>
<path d="M105.376 27V26.008L109.376 21.832C109.899 21.288 110.288 20.7707 110.544 20.28C110.811 19.7787 110.944 19.2613 110.944 18.728C110.944 18.0773 110.741 17.5867 110.336 17.256C109.931 16.9147 109.344 16.744 108.576 16.744C107.979 16.744 107.424 16.8507 106.912 17.064C106.411 17.2667 105.925 17.592 105.456 18.04L104.976 17C105.403 16.5733 105.947 16.232 106.608 15.976C107.269 15.7093 107.968 15.576 108.704 15.576C109.845 15.576 110.725 15.8427 111.344 16.376C111.963 16.8987 112.272 17.6453 112.272 18.616C112.272 19.3307 112.096 20.0133 111.744 20.664C111.403 21.304 110.901 21.9653 110.24 22.648L106.704 26.232V25.864H112.752V27H105.376Z" fill="#8D8D8D"/>
<path d="M150.736 27.144C149.979 27.144 149.253 27.0267 148.56 26.792C147.867 26.5573 147.285 26.2213 146.816 25.784L147.312 24.76C147.835 25.1867 148.373 25.496 148.928 25.688C149.483 25.88 150.08 25.976 150.72 25.976C151.563 25.976 152.203 25.8 152.64 25.448C153.077 25.0853 153.296 24.5573 153.296 23.864C153.296 23.2027 153.072 22.7013 152.624 22.36C152.176 22.008 151.52 21.832 150.656 21.832H148.96V20.728H150.544C151.291 20.728 151.883 20.536 152.32 20.152C152.757 19.768 152.976 19.2453 152.976 18.584C152.976 17.9867 152.773 17.5333 152.368 17.224C151.973 16.904 151.403 16.744 150.656 16.744C149.44 16.744 148.389 17.176 147.504 18.04L147.008 17C147.445 16.552 147.995 16.2053 148.656 15.96C149.317 15.704 150.011 15.576 150.736 15.576C151.845 15.576 152.715 15.832 153.344 16.344C153.973 16.856 154.288 17.5653 154.288 18.472C154.288 19.1653 154.091 19.7627 153.696 20.264C153.301 20.7547 152.768 21.0907 152.096 21.272V21.096C152.896 21.224 153.515 21.544 153.952 22.056C154.389 22.5573 154.608 23.192 154.608 23.96C154.608 24.9413 154.261 25.72 153.568 26.296C152.885 26.8613 151.941 27.144 150.736 27.144Z" fill="#8D8D8D"/>
<path d="M194.176 27V24.552H188.8V23.592L194.384 15.72H195.472V23.48H197.2V24.552H195.472V27H194.176ZM194.176 23.48V17.288H194.528L189.888 23.816V23.48H194.176Z" fill="#8D8D8D"/>
<path d="M259.376 27V26.008L263.376 21.832C263.899 21.288 264.288 20.7707 264.544 20.28C264.811 19.7787 264.944 19.2613 264.944 18.728C264.944 18.0773 264.741 17.5867 264.336 17.256C263.931 16.9147 263.344 16.744 262.576 16.744C261.979 16.744 261.424 16.8507 260.912 17.064C260.411 17.2667 259.925 17.592 259.456 18.04L258.976 17C259.403 16.5733 259.947 16.232 260.608 15.976C261.269 15.7093 261.968 15.576 262.704 15.576C263.845 15.576 264.725 15.8427 265.344 16.376C265.963 16.8987 266.272 17.6453 266.272 18.616C266.272 19.3307 266.096 20.0133 265.744 20.664C265.403 21.304 264.901 21.9653 264.24 22.648L260.704 26.232V25.864H266.752V27H259.376ZM273.77 27V24.552H268.394V23.592L273.978 15.72H275.066V23.48H276.794V24.552H275.066V27H273.77ZM273.77 23.48V17.288H274.122L269.482 23.816V23.48H273.77Z" fill="#8D8D8D"/>
<path d="M298.5 21H319.5M319.5 21L309 10.5M319.5 21L309 31.5" stroke="#8D8D8D" stroke-linecap="round" stroke-linejoin="round"/>
<path d="M228 29C228.552 29 229 28.5523 229 28C229 27.4477 228.552 27 228 27C227.448 27 227 27.4477 227 28C227 28.5523 227.448 29 228 29Z" stroke="#999999" stroke-linecap="round" stroke-linejoin="round"/>
<path d="M235 29C235.552 29 236 28.5523 236 28C236 27.4477 235.552 27 235 27C234.448 27 234 27.4477 234 28C234 28.5523 234.448 29 235 29Z" stroke="#999999" stroke-linecap="round" stroke-linejoin="round"/>
<path d="M221 29C221.552 29 222 28.5523 222 28C222 27.4477 221.552 27 221 27C220.448 27 220 27.4477 220 28C220 28.5523 220.448 29 221 29Z" stroke="#999999" stroke-linecap="round" stroke-linejoin="round"/>
</svg>
