<svg width="207" height="62" viewBox="0 0 207 62" fill="none" xmlns="http://www.w3.org/2000/svg">
<path d="M8 0H198L207 19V40.5L198 62H8L0 40.5V19L8 0Z" fill="#E4E9E8"/>
<line x1="1" y1="19" x2="1" y2="40" stroke="#6E978F" stroke-width="2"/>
<line x1="206" y1="19" x2="206" y2="40" stroke="#6E978F" stroke-width="2"/>
<path d="M76.232 36V26.13H77.366V30.526H79.382L79.032 30.75L82.196 26.13H83.498L80.152 30.946L79.732 30.582C80.3293 30.6473 80.8333 30.848 81.244 31.184C81.6547 31.5107 82.014 31.9727 82.322 32.57L84.044 36H82.784L81.37 33.102C81.0993 32.5233 80.7773 32.1127 80.404 31.87C80.04 31.6273 79.5873 31.506 79.046 31.506H77.366V36H76.232ZM87.0572 36L88.7652 32.794L88.7792 33.242L84.1872 26.13H85.4472L89.3532 32.206H89.1012L92.3212 26.13H93.5252L88.2752 36H87.0572ZM94.7164 36V26.13H102.976V36H101.814V27.11H95.8504V36H94.7164ZM105.421 36V26.13H106.499V34.572H106.177L112.505 26.13H113.415V36H112.337V27.558H112.645L106.303 36H105.421ZM118.274 36V27.11H114.788V26.13H122.908V27.11H119.436V36H118.274ZM124.33 36V26.13H125.478V30.484H128.572C129.645 30.484 130.471 30.7127 131.05 31.17C131.638 31.6273 131.932 32.3133 131.932 33.228C131.932 34.1333 131.638 34.824 131.05 35.3C130.471 35.7667 129.645 36 128.572 36H124.33ZM125.478 35.062H128.474C129.258 35.062 129.836 34.9127 130.21 34.614C130.592 34.306 130.784 33.844 130.784 33.228C130.784 32.6213 130.592 32.1733 130.21 31.884C129.836 31.5853 129.258 31.436 128.474 31.436H125.478V35.062Z" fill="#6E978F"/>
</svg>
