<svg width="229" height="53" viewBox="0 0 229 53" fill="none" xmlns="http://www.w3.org/2000/svg">
<path d="M8.85024 0H219.043L229 16.2419V34.621L219.043 53H8.85024L0 34.621V16.2419L8.85024 0Z" fill="#6E978F"/>
<line x1="1" y1="16.2419" x2="1" y2="34.1936" stroke="white" stroke-width="2"/>
<line x1="227.787" y1="16.2419" x2="227.787" y2="34.1936" stroke="white" stroke-width="2"/>
<path d="M32.1462 34.4561V31.3061H33.1542C33.6582 30.6901 34.0315 29.8641 34.2742 28.8281C34.5169 27.7827 34.6382 26.4854 34.6382 24.9361V22.3881H41.3722V31.3061H42.8142V34.4561H41.7782V32.2581H33.1822V34.4561H32.1462ZM34.3442 31.3061H40.2102V23.3401H35.7162V25.0201C35.7162 26.5227 35.6042 27.7827 35.3802 28.8001C35.1562 29.8081 34.8109 30.6434 34.3442 31.3061ZM44.0008 27.3161C44.0008 26.2707 44.1781 25.3747 44.5328 24.6281C44.8968 23.8721 45.4148 23.2887 46.0868 22.8781C46.7681 22.4674 47.5848 22.2621 48.5368 22.2621C49.4608 22.2621 50.2635 22.4674 50.9448 22.8781C51.6261 23.2887 52.1488 23.8721 52.5128 24.6281C52.8861 25.3747 53.0728 26.2661 53.0728 27.3021C53.0728 28.3474 52.8861 29.2481 52.5128 30.0041C52.1395 30.7601 51.6121 31.3481 50.9308 31.7681C50.2588 32.1787 49.4608 32.3841 48.5368 32.3841C47.5848 32.3841 46.7728 32.1787 46.1008 31.7681C45.4288 31.3481 44.9108 30.7601 44.5468 30.0041C44.1828 29.2481 44.0008 28.3521 44.0008 27.3161ZM45.2188 27.3161C45.2188 28.5854 45.4988 29.5794 46.0588 30.2981C46.6188 31.0074 47.4448 31.3621 48.5368 31.3621C49.5821 31.3621 50.3941 31.0074 50.9728 30.2981C51.5608 29.5794 51.8548 28.5854 51.8548 27.3161C51.8548 26.0374 51.5655 25.0481 50.9868 24.3481C50.4081 23.6387 49.5915 23.2841 48.5368 23.2841C47.4448 23.2841 46.6188 23.6387 46.0588 24.3481C45.4988 25.0481 45.2188 26.0374 45.2188 27.3161ZM55.1793 32.2581V22.3881H61.8153V23.3401H56.2993V26.7421H59.4213C60.4946 26.7421 61.3206 26.9707 61.8993 27.4281C62.4873 27.8854 62.7813 28.5714 62.7813 29.4861C62.7813 30.3914 62.4873 31.0821 61.8993 31.5581C61.3206 32.0247 60.4946 32.2581 59.4213 32.2581H55.1793ZM56.2993 31.3201H59.3233C60.1073 31.3201 60.6859 31.1707 61.0593 30.8721C61.4419 30.5641 61.6333 30.1021 61.6333 29.4861C61.6333 28.8794 61.4419 28.4314 61.0593 28.1421C60.6859 27.8434 60.1073 27.6941 59.3233 27.6941H56.2993V31.3201ZM63.6739 32.2581L68.0279 22.3881H69.0359L73.4599 32.2581H72.2559L71.0239 29.4441L71.5419 29.7381H65.5079L66.0679 29.4441L64.8639 32.2581H63.6739ZM68.5179 23.7181L66.2499 29.0381L65.9139 28.7861H71.1219L70.8699 29.0381L68.5459 23.7181H68.5179ZM74.9488 32.2581V22.3881H78.8968C79.9421 22.3881 80.7495 22.6121 81.3188 23.0601C81.8881 23.5081 82.1728 24.1427 82.1728 24.9641C82.1728 25.5801 81.9861 26.0934 81.6128 26.5041C81.2488 26.9147 80.7401 27.1854 80.0868 27.3161V27.1201C80.8148 27.2041 81.3841 27.4561 81.7948 27.8761C82.2148 28.2867 82.4248 28.8421 82.4248 29.5421C82.4248 30.4194 82.1308 31.0914 81.5428 31.5581C80.9641 32.0247 80.1428 32.2581 79.0788 32.2581H74.9488ZM76.0828 31.3201H78.9668C79.6761 31.3201 80.2361 31.1847 80.6468 30.9141C81.0668 30.6341 81.2768 30.1721 81.2768 29.5281C81.2768 28.8747 81.0668 28.4127 80.6468 28.1421C80.2361 27.8621 79.6761 27.7221 78.9668 27.7221H76.0828V31.3201ZM76.0828 26.7981H78.7288C79.4941 26.7981 80.0681 26.6487 80.4508 26.3501C80.8335 26.0514 81.0248 25.6221 81.0248 25.0621C81.0248 24.4834 80.8335 24.0494 80.4508 23.7601C80.0681 23.4614 79.4941 23.3121 78.7288 23.3121H76.0828V26.7981ZM84.4644 32.2581V22.3881H85.5424V30.8301H85.2204L91.5484 22.3881H92.4584V32.2581H91.3804V23.8161H91.6884L85.3464 32.2581H84.4644ZM97.3174 32.2581V23.3681H93.8314V22.3881H101.951V23.3681H98.4794V32.2581H97.3174ZM103.373 32.2581V22.3881H104.521V26.7421H107.615C108.688 26.7421 109.514 26.9707 110.093 27.4281C110.681 27.8854 110.975 28.5714 110.975 29.4861C110.975 30.3914 110.681 31.0821 110.093 31.5581C109.514 32.0247 108.688 32.2581 107.615 32.2581H103.373ZM104.521 31.3201H107.517C108.301 31.3201 108.879 31.1707 109.253 30.8721C109.635 30.5641 109.827 30.1021 109.827 29.4861C109.827 28.8794 109.635 28.4314 109.253 28.1421C108.879 27.8434 108.301 27.6941 107.517 27.6941H104.521V31.3201ZM116.498 32.2581V22.3881H120.446C121.491 22.3881 122.298 22.6121 122.868 23.0601C123.437 23.5081 123.722 24.1427 123.722 24.9641C123.722 25.5801 123.535 26.0934 123.162 26.5041C122.798 26.9147 122.289 27.1854 121.636 27.3161V27.1201C122.364 27.2041 122.933 27.4561 123.344 27.8761C123.764 28.2867 123.974 28.8421 123.974 29.5421C123.974 30.4194 123.68 31.0914 123.092 31.5581C122.513 32.0247 121.692 32.2581 120.628 32.2581H116.498ZM117.632 31.3201H120.516C121.225 31.3201 121.785 31.1847 122.196 30.9141C122.616 30.6341 122.826 30.1721 122.826 29.5281C122.826 28.8747 122.616 28.4127 122.196 28.1421C121.785 27.8621 121.225 27.7221 120.516 27.7221H117.632V31.3201ZM117.632 26.7981H120.278C121.043 26.7981 121.617 26.6487 122 26.3501C122.382 26.0514 122.574 25.6221 122.574 25.0621C122.574 24.4834 122.382 24.0494 122 23.7601C121.617 23.4614 121.043 23.3121 120.278 23.3121H117.632V26.7981ZM129.664 32.2581V22.3881H130.798V26.7841H132.814L132.464 27.0081L135.628 22.3881H136.93L133.584 27.2041L133.164 26.8401C133.761 26.9054 134.265 27.1061 134.676 27.4421C135.086 27.7687 135.446 28.2307 135.754 28.8281L137.476 32.2581H136.216L134.802 29.3601C134.531 28.7814 134.209 28.3707 133.836 28.1281C133.472 27.8854 133.019 27.7641 132.478 27.7641H130.798V32.2581H129.664ZM138.419 27.3161C138.419 26.2707 138.596 25.3747 138.951 24.6281C139.315 23.8721 139.833 23.2887 140.505 22.8781C141.186 22.4674 142.003 22.2621 142.955 22.2621C143.879 22.2621 144.681 22.4674 145.363 22.8781C146.044 23.2887 146.567 23.8721 146.931 24.6281C147.304 25.3747 147.491 26.2661 147.491 27.3021C147.491 28.3474 147.304 29.2481 146.931 30.0041C146.557 30.7601 146.03 31.3481 145.349 31.7681C144.677 32.1787 143.879 32.3841 142.955 32.3841C142.003 32.3841 141.191 32.1787 140.519 31.7681C139.847 31.3481 139.329 30.7601 138.965 30.0041C138.601 29.2481 138.419 28.3521 138.419 27.3161ZM139.637 27.3161C139.637 28.5854 139.917 29.5794 140.477 30.2981C141.037 31.0074 141.863 31.3621 142.955 31.3621C144 31.3621 144.812 31.0074 145.391 30.2981C145.979 29.5794 146.273 28.5854 146.273 27.3161C146.273 26.0374 145.983 25.0481 145.405 24.3481C144.826 23.6387 144.009 23.2841 142.955 23.2841C141.863 23.2841 141.037 23.6387 140.477 24.3481C139.917 25.0481 139.637 26.0374 139.637 27.3161ZM149.597 32.2581V22.3881H153.615C154.651 22.3881 155.449 22.6401 156.009 23.1441C156.569 23.6387 156.849 24.3294 156.849 25.2161C156.849 26.0841 156.569 26.7747 156.009 27.2881C155.449 27.7921 154.651 28.0441 153.615 28.0441H150.759V32.2581H149.597ZM150.759 27.0781H153.503C154.222 27.0781 154.763 26.9147 155.127 26.5881C155.501 26.2614 155.687 25.8041 155.687 25.2161C155.687 24.6187 155.501 24.1567 155.127 23.8301C154.763 23.5034 154.222 23.3401 153.503 23.3401H150.759V27.0781ZM161.964 32.3841C161.106 32.3841 160.34 32.2721 159.668 32.0481C159.006 31.8147 158.464 31.5021 158.044 31.1101L158.464 30.2141C158.922 30.6061 159.426 30.9001 159.976 31.0961C160.527 31.2827 161.171 31.3761 161.908 31.3761C162.86 31.3761 163.556 31.2174 163.994 30.9001C164.433 30.5827 164.652 30.1161 164.652 29.5001C164.652 28.8934 164.456 28.4501 164.064 28.1701C163.682 27.8807 163.098 27.7361 162.314 27.7361H159.822V26.7841H162.118C162.865 26.7841 163.434 26.6394 163.826 26.3501C164.218 26.0514 164.414 25.6221 164.414 25.0621C164.414 24.5021 164.204 24.0634 163.784 23.7461C163.374 23.4287 162.753 23.2701 161.922 23.2701C161.306 23.2701 160.728 23.3634 160.186 23.5501C159.645 23.7274 159.15 24.0074 158.702 24.3901L158.268 23.4941C158.707 23.0927 159.253 22.7894 159.906 22.5841C160.569 22.3694 161.264 22.2621 161.992 22.2621C163.168 22.2621 164.055 22.5047 164.652 22.9901C165.259 23.4754 165.562 24.1287 165.562 24.9501C165.562 25.5567 165.376 26.0701 165.002 26.4901C164.638 26.9007 164.139 27.1761 163.504 27.3161V27.1201C164.214 27.2041 164.774 27.4607 165.184 27.8901C165.595 28.3101 165.8 28.8654 165.8 29.5561C165.8 30.1347 165.66 30.6387 165.38 31.0681C165.1 31.4881 164.676 31.8147 164.106 32.0481C163.537 32.2721 162.823 32.3841 161.964 32.3841ZM167.863 32.2581V22.3881H168.941V30.8301H168.619L174.947 22.3881H175.857V32.2581H174.779V23.8161H175.087L168.745 32.2581H167.863ZM178.322 32.2581V22.3881H179.484V26.7561H185.434V22.3881H186.582V32.2581H185.434V27.7501H179.484V32.2581H178.322ZM190.665 32.2581L192.373 29.0521L192.387 29.5001L187.795 22.3881H189.055L192.961 28.4641H192.709L195.929 22.3881H197.133L191.883 32.2581H190.665Z" fill="white"/>
</svg>
