<svg width="123" height="41" viewBox="0 0 123 41" fill="none" xmlns="http://www.w3.org/2000/svg">
<rect x="0.5" y="0.5" width="122" height="40" fill="white" stroke="#DBDBDB"/>
<path d="M57.5193 25.5981V23.8881L61.7313 19.4961C62.2593 18.9441 62.6493 18.4341 62.9013 17.9661C63.1533 17.4981 63.2793 17.0181 63.2793 16.5261C63.2793 15.9141 63.0873 15.4521 62.7033 15.1401C62.3193 14.8281 61.7613 14.6721 61.0293 14.6721C60.4413 14.6721 59.8773 14.7801 59.3373 14.9961C58.7973 15.2001 58.2693 15.5241 57.7533 15.9681L56.9973 14.2401C57.5133 13.7841 58.1493 13.4181 58.9053 13.1421C59.6733 12.8661 60.4773 12.7281 61.3173 12.7281C62.6853 12.7281 63.7353 13.0341 64.4673 13.6461C65.1993 14.2581 65.5653 15.1341 65.5653 16.2741C65.5653 17.0661 65.3793 17.8221 65.0073 18.5421C64.6353 19.2501 64.0593 19.9941 63.2793 20.7741L59.7693 24.2841V23.6721H66.0693V25.5981H57.5193Z" fill="#141C1A"/>
<path d="M101 13V27M94 20H108" stroke="#999999" stroke-linecap="round" stroke-linejoin="round"/>
<path d="M15 20H29" stroke="#999999" stroke-linecap="round" stroke-linejoin="round"/>
</svg>
