<svg width="127" height="29" viewBox="0 0 127 29" fill="none" xmlns="http://www.w3.org/2000/svg">
<path d="M0.744581 14.5L16.1929 0.5H126.5V28.5H16.1929L0.744581 14.5Z" stroke="#DBDBDB"/>
<path d="M21.056 19V10.54H22.052V14.284H27.152V10.54H28.136V19H27.152V15.136H22.052V19H21.056ZM32.4875 19.108C31.9515 19.108 31.4835 18.984 31.0835 18.736C30.6835 18.48 30.3715 18.12 30.1475 17.656C29.9315 17.192 29.8235 16.636 29.8235 15.988C29.8235 15.332 29.9315 14.772 30.1475 14.308C30.3715 13.844 30.6835 13.488 31.0835 13.24C31.4835 12.992 31.9515 12.868 32.4875 12.868C33.0315 12.868 33.4995 13.008 33.8915 13.288C34.2915 13.56 34.5555 13.932 34.6835 14.404H34.5395L34.6715 12.976H35.6075C35.5835 13.208 35.5595 13.444 35.5355 13.684C35.5195 13.916 35.5115 14.144 35.5115 14.368V19H34.5395V17.584H34.6715C34.5435 18.056 34.2795 18.428 33.8795 18.7C33.4795 18.972 33.0155 19.108 32.4875 19.108ZM32.6795 18.316C33.2555 18.316 33.7115 18.12 34.0475 17.728C34.3835 17.328 34.5515 16.748 34.5515 15.988C34.5515 15.22 34.3835 14.64 34.0475 14.248C33.7115 13.848 33.2555 13.648 32.6795 13.648C32.1115 13.648 31.6555 13.848 31.3115 14.248C30.9755 14.64 30.8075 15.22 30.8075 15.988C30.8075 16.748 30.9755 17.328 31.3115 17.728C31.6555 18.12 32.1115 18.316 32.6795 18.316ZM39.4637 19.108C38.9517 19.108 38.4677 19.04 38.0117 18.904C37.5637 18.76 37.1957 18.564 36.9077 18.316L37.2437 17.632C37.5397 17.872 37.8717 18.056 38.2397 18.184C38.6157 18.304 39.0237 18.364 39.4637 18.364C40.0557 18.364 40.4837 18.272 40.7477 18.088C41.0117 17.904 41.1437 17.644 41.1437 17.308C41.1437 16.98 41.0317 16.732 40.8077 16.564C40.5837 16.388 40.2557 16.3 39.8237 16.3H38.4077V15.58H39.7037C40.0877 15.58 40.3877 15.496 40.6037 15.328C40.8277 15.152 40.9397 14.912 40.9397 14.608C40.9397 14.296 40.8197 14.052 40.5797 13.876C40.3397 13.692 39.9637 13.6 39.4517 13.6C39.0437 13.6 38.6637 13.656 38.3117 13.768C37.9677 13.872 37.6397 14.04 37.3277 14.272L37.0037 13.612C37.3317 13.356 37.7117 13.168 38.1437 13.048C38.5757 12.928 39.0437 12.868 39.5477 12.868C40.2997 12.868 40.8717 13.016 41.2637 13.312C41.6557 13.6 41.8517 14.012 41.8517 14.548C41.8517 14.924 41.7237 15.248 41.4677 15.52C41.2117 15.784 40.8717 15.94 40.4477 15.988V15.844C40.9277 15.86 41.3157 16.004 41.6117 16.276C41.9077 16.548 42.0557 16.904 42.0557 17.344C42.0557 17.88 41.8357 18.308 41.3957 18.628C40.9637 18.948 40.3197 19.108 39.4637 19.108ZM45.9055 19.108C45.3695 19.108 44.9015 18.984 44.5015 18.736C44.1015 18.48 43.7895 18.12 43.5655 17.656C43.3495 17.192 43.2415 16.636 43.2415 15.988C43.2415 15.332 43.3495 14.772 43.5655 14.308C43.7895 13.844 44.1015 13.488 44.5015 13.24C44.9015 12.992 45.3695 12.868 45.9055 12.868C46.4495 12.868 46.9175 13.008 47.3095 13.288C47.7095 13.56 47.9735 13.932 48.1015 14.404H47.9575L48.0895 12.976H49.0255C49.0015 13.208 48.9775 13.444 48.9535 13.684C48.9375 13.916 48.9295 14.144 48.9295 14.368V19H47.9575V17.584H48.0895C47.9615 18.056 47.6975 18.428 47.2975 18.7C46.8975 18.972 46.4335 19.108 45.9055 19.108ZM46.0975 18.316C46.6735 18.316 47.1295 18.12 47.4655 17.728C47.8015 17.328 47.9695 16.748 47.9695 15.988C47.9695 15.22 47.8015 14.64 47.4655 14.248C47.1295 13.848 46.6735 13.648 46.0975 13.648C45.5295 13.648 45.0735 13.848 44.7295 14.248C44.3935 14.64 44.2255 15.22 44.2255 15.988C44.2255 16.748 44.3935 17.328 44.7295 17.728C45.0735 18.12 45.5295 18.316 46.0975 18.316ZM50.2537 20.56V18.232H50.8897C51.1777 17.824 51.3857 17.336 51.5137 16.768C51.6417 16.2 51.7057 15.528 51.7057 14.752V12.976H55.9417V18.232H56.8897V20.56H56.0497V19H51.0817V20.56H50.2537ZM51.8257 18.244H55.0177V13.732H52.5577V14.908C52.5577 15.54 52.4937 16.152 52.3657 16.744C52.2457 17.328 52.0657 17.828 51.8257 18.244ZM61.3194 19V12.976H64.2234C64.9194 12.976 65.4394 13.112 65.7834 13.384C66.1354 13.648 66.3114 14.04 66.3114 14.56C66.3114 14.944 66.1754 15.268 65.9034 15.532C65.6394 15.788 65.2954 15.94 64.8714 15.988V15.844C65.3674 15.86 65.7634 16.004 66.0594 16.276C66.3554 16.548 66.5034 16.9 66.5034 17.332C66.5034 17.852 66.3114 18.26 65.9274 18.556C65.5514 18.852 65.0154 19 64.3194 19H61.3194ZM62.2434 18.34H64.2714C64.6954 18.34 65.0194 18.252 65.2434 18.076C65.4754 17.892 65.5914 17.632 65.5914 17.296C65.5914 16.96 65.4754 16.704 65.2434 16.528C65.0194 16.352 64.6954 16.264 64.2714 16.264H62.2434V18.34ZM62.2434 15.604H64.1634C64.5554 15.604 64.8594 15.516 65.0754 15.34C65.2914 15.164 65.3994 14.92 65.3994 14.608C65.3994 14.296 65.2914 14.056 65.0754 13.888C64.8594 13.712 64.5554 13.624 64.1634 13.624H62.2434V15.604ZM71.1397 19V12.976H72.1117V15.508H73.2517L75.2437 12.976H76.3117L74.0317 15.892L73.7677 15.592C73.9997 15.616 74.1997 15.672 74.3677 15.76C74.5357 15.848 74.6957 15.98 74.8477 16.156C75.0077 16.332 75.1797 16.576 75.3637 16.888L76.6117 19H75.5677L74.4637 17.128C74.3277 16.896 74.1957 16.72 74.0677 16.6C73.9477 16.48 73.8077 16.396 73.6477 16.348C73.4957 16.3 73.3037 16.276 73.0717 16.276H72.1117V19H71.1397ZM79.9367 19.108C79.4007 19.108 78.9327 18.984 78.5327 18.736C78.1327 18.48 77.8207 18.12 77.5967 17.656C77.3807 17.192 77.2727 16.636 77.2727 15.988C77.2727 15.332 77.3807 14.772 77.5967 14.308C77.8207 13.844 78.1327 13.488 78.5327 13.24C78.9327 12.992 79.4007 12.868 79.9367 12.868C80.4807 12.868 80.9487 13.008 81.3407 13.288C81.7407 13.56 82.0047 13.932 82.1327 14.404H81.9887L82.1207 12.976H83.0567C83.0327 13.208 83.0087 13.444 82.9847 13.684C82.9687 13.916 82.9607 14.144 82.9607 14.368V19H81.9887V17.584H82.1207C81.9927 18.056 81.7287 18.428 81.3287 18.7C80.9287 18.972 80.4647 19.108 79.9367 19.108ZM80.1287 18.316C80.7047 18.316 81.1607 18.12 81.4967 17.728C81.8327 17.328 82.0007 16.748 82.0007 15.988C82.0007 15.22 81.8327 14.64 81.4967 14.248C81.1607 13.848 80.7047 13.648 80.1287 13.648C79.5607 13.648 79.1047 13.848 78.7607 14.248C78.4247 14.64 78.2567 15.22 78.2567 15.988C78.2567 16.748 78.4247 17.328 78.7607 17.728C79.1047 18.12 79.5607 18.316 80.1287 18.316ZM86.2049 19V13.756H84.0209V12.976H89.3729V13.756H87.1769V19H86.2049ZM92.7219 19.108C92.1859 19.108 91.7179 18.984 91.3179 18.736C90.9179 18.48 90.6059 18.12 90.3819 17.656C90.1659 17.192 90.0579 16.636 90.0579 15.988C90.0579 15.332 90.1659 14.772 90.3819 14.308C90.6059 13.844 90.9179 13.488 91.3179 13.24C91.7179 12.992 92.1859 12.868 92.7219 12.868C93.2659 12.868 93.7339 13.008 94.1259 13.288C94.5259 13.56 94.7899 13.932 94.9179 14.404H94.7739L94.9059 12.976H95.8419C95.8179 13.208 95.7939 13.444 95.7699 13.684C95.7539 13.916 95.7459 14.144 95.7459 14.368V19H94.7739V17.584H94.9059C94.7779 18.056 94.5139 18.428 94.1139 18.7C93.7139 18.972 93.2499 19.108 92.7219 19.108ZM92.9139 18.316C93.4899 18.316 93.9459 18.12 94.2819 17.728C94.6179 17.328 94.7859 16.748 94.7859 15.988C94.7859 15.22 94.6179 14.64 94.2819 14.248C93.9459 13.848 93.4899 13.648 92.9139 13.648C92.3459 13.648 91.8899 13.848 91.5459 14.248C91.2099 14.64 91.0419 15.22 91.0419 15.988C91.0419 16.748 91.2099 17.328 91.5459 17.728C91.8899 18.12 92.3459 18.316 92.9139 18.316ZM97.3821 19.132L97.0221 18.376C97.3021 18.248 97.5341 18.092 97.7181 17.908C97.9101 17.716 98.0621 17.476 98.1741 17.188C98.2861 16.892 98.3661 16.528 98.4141 16.096C98.4621 15.656 98.4861 15.128 98.4861 14.512V12.976H102.83V19H101.87V13.744H99.3861V14.548C99.3861 15.492 99.3181 16.268 99.1821 16.876C99.0541 17.484 98.8421 17.968 98.5461 18.328C98.2581 18.68 97.8701 18.948 97.3821 19.132ZM107.269 19.108C106.693 19.108 106.189 18.984 105.757 18.736C105.333 18.48 105.005 18.12 104.773 17.656C104.541 17.184 104.425 16.628 104.425 15.988C104.425 15.34 104.541 14.784 104.773 14.32C105.005 13.856 105.333 13.5 105.757 13.252C106.189 12.996 106.693 12.868 107.269 12.868C107.853 12.868 108.357 12.996 108.781 13.252C109.213 13.5 109.545 13.856 109.777 14.32C110.017 14.784 110.137 15.34 110.137 15.988C110.137 16.628 110.017 17.184 109.777 17.656C109.545 18.12 109.213 18.48 108.781 18.736C108.357 18.984 107.853 19.108 107.269 19.108ZM107.269 18.316C107.845 18.316 108.301 18.12 108.637 17.728C108.973 17.328 109.141 16.748 109.141 15.988C109.141 15.22 108.969 14.64 108.625 14.248C108.289 13.848 107.837 13.648 107.269 13.648C106.701 13.648 106.249 13.848 105.913 14.248C105.577 14.64 105.409 15.22 105.409 15.988C105.409 16.748 105.577 17.328 105.913 17.728C106.249 18.12 106.701 18.316 107.269 18.316ZM111.722 19V12.976H115.922V13.756H112.694V19H111.722Z" fill="#141C1A"/>
</svg>
