<svg width="230" height="32" viewBox="0 0 230 32" fill="none" xmlns="http://www.w3.org/2000/svg">
<rect width="230" height="32" rx="4" fill="#E4E9E8"/>
<path d="M15.088 22.144C14.1173 22.144 13.248 22.016 12.48 21.76C11.7227 21.504 11.0933 21.1573 10.592 20.72L11.12 19.584C11.632 20.0107 12.2027 20.3307 12.832 20.544C13.4613 20.7573 14.1867 20.864 15.008 20.864C16.0533 20.864 16.8213 20.6933 17.312 20.352C17.8027 20 18.048 19.488 18.048 18.816C18.048 18.1547 17.8347 17.6693 17.408 17.36C16.992 17.0507 16.352 16.896 15.488 16.896H12.64V15.68H15.248C16.08 15.68 16.7093 15.52 17.136 15.2C17.5627 14.88 17.776 14.4107 17.776 13.792C17.776 13.1947 17.5467 12.7253 17.088 12.384C16.6293 12.032 15.9413 11.856 15.024 11.856C14.3307 11.856 13.6747 11.9573 13.056 12.16C12.448 12.3627 11.8933 12.6773 11.392 13.104L10.864 11.968C11.3653 11.5093 11.9947 11.1627 12.752 10.928C13.5093 10.6933 14.304 10.576 15.136 10.576C16.4907 10.576 17.5147 10.8533 18.208 11.408C18.9013 11.9627 19.248 12.704 19.248 13.632C19.248 14.336 19.0347 14.928 18.608 15.408C18.192 15.8773 17.6267 16.1867 16.912 16.336V16.112C17.7227 16.2187 18.3573 16.512 18.816 16.992C19.2853 17.472 19.52 18.1067 19.52 18.896C19.52 19.5573 19.3547 20.1333 19.024 20.624C18.704 21.1147 18.2133 21.4933 17.552 21.76C16.9013 22.016 16.08 22.144 15.088 22.144ZM24.7899 22.144C24.0859 22.144 23.4672 21.9787 22.9339 21.648C22.4005 21.3173 21.9845 20.8373 21.6859 20.208C21.3872 19.5787 21.2379 18.832 21.2379 17.968C21.2379 17.104 21.3872 16.3627 21.6859 15.744C21.9845 15.1147 22.4005 14.6347 22.9339 14.304C23.4672 13.9733 24.0859 13.808 24.7899 13.808C25.5045 13.808 26.1232 13.9893 26.6459 14.352C27.1792 14.704 27.5312 15.1893 27.7019 15.808H27.5099L27.6859 13.952H29.0939C29.0619 14.272 29.0299 14.592 28.9979 14.912C28.9765 15.232 28.9659 15.5467 28.9659 15.856V22H27.5099V20.16H27.6859C27.5152 20.768 27.1632 21.2533 26.6299 21.616C26.1072 21.968 25.4939 22.144 24.7899 22.144ZM25.1259 20.992C25.8512 20.992 26.4325 20.736 26.8699 20.224C27.3072 19.712 27.5259 18.96 27.5259 17.968C27.5259 16.976 27.3072 16.2293 26.8699 15.728C26.4325 15.2267 25.8512 14.976 25.1259 14.976C24.4005 14.976 23.8139 15.2267 23.3659 15.728C22.9285 16.2293 22.7099 16.976 22.7099 17.968C22.7099 18.96 22.9285 19.712 23.3659 20.224C23.8032 20.736 24.3899 20.992 25.1259 20.992ZM35.0333 22.144C33.8279 22.144 32.8733 21.7653 32.1693 21.008C31.4653 20.2507 31.1133 19.1413 31.1133 17.68V16.288C31.1133 14.7947 31.4279 13.5893 32.0573 12.672C32.6866 11.7547 33.6626 11.136 34.9852 10.816L37.9293 10.08L38.3612 11.264L35.0973 12.048C34.5106 12.1867 34.0253 12.4373 33.6413 12.8C33.2573 13.1627 32.9693 13.5893 32.7773 14.08C32.5959 14.5707 32.5053 15.0933 32.5053 15.648V16.336H32.2812C32.4093 15.856 32.6119 15.44 32.8893 15.088C33.1773 14.736 33.5346 14.4693 33.9613 14.288C34.3879 14.096 34.8573 14 35.3693 14C36.0626 14 36.6706 14.16 37.1933 14.48C37.7159 14.8 38.1213 15.264 38.4093 15.872C38.7079 16.4693 38.8573 17.184 38.8573 18.016C38.8573 18.8693 38.6973 19.6053 38.3773 20.224C38.0679 20.8427 37.6253 21.3173 37.0493 21.648C36.4733 21.9787 35.8013 22.144 35.0333 22.144ZM34.9852 20.992C35.7319 20.992 36.3186 20.7467 36.7453 20.256C37.1826 19.7653 37.4013 19.0347 37.4013 18.064C37.4013 17.1147 37.1826 16.3893 36.7453 15.888C36.3186 15.3867 35.7319 15.136 34.9852 15.136C34.2386 15.136 33.6466 15.3813 33.2093 15.872C32.7826 16.3627 32.5693 17.0613 32.5693 17.968C32.5693 18.9813 32.7826 19.7387 33.2093 20.24C33.6466 20.7413 34.2386 20.992 34.9852 20.992ZM44.3599 22.144C43.5705 22.144 42.8879 21.9787 42.3119 21.648C41.7359 21.3067 41.2879 20.8267 40.9679 20.208C40.6479 19.5787 40.4879 18.832 40.4879 17.968C40.4879 17.1147 40.6479 16.3787 40.9679 15.76C41.2879 15.1307 41.7359 14.6507 42.3119 14.32C42.8879 13.9787 43.5705 13.808 44.3599 13.808C45.1492 13.808 45.8319 13.9787 46.4079 14.32C46.9945 14.6507 47.4425 15.1307 47.7519 15.76C48.0719 16.3787 48.2319 17.1147 48.2319 17.968C48.2319 18.832 48.0719 19.5787 47.7519 20.208C47.4425 20.8267 46.9945 21.3067 46.4079 21.648C45.8319 21.9787 45.1492 22.144 44.3599 22.144ZM44.3599 20.992C45.0852 20.992 45.6665 20.736 46.1039 20.224C46.5412 19.712 46.7599 18.96 46.7599 17.968C46.7599 16.976 46.5412 16.2293 46.1039 15.728C45.6665 15.2267 45.0852 14.976 44.3599 14.976C43.6239 14.976 43.0372 15.2267 42.5999 15.728C42.1732 16.2293 41.9599 16.976 41.9599 17.968C41.9599 18.96 42.1732 19.712 42.5999 20.224C43.0372 20.736 43.6239 20.992 44.3599 20.992ZM50.3585 25.456V15.856C50.3585 15.5467 50.3478 15.232 50.3265 14.912C50.3052 14.592 50.2732 14.272 50.2305 13.952H51.6385L51.8145 15.808H51.6385C51.7985 15.1893 52.1398 14.704 52.6625 14.352C53.1852 13.9893 53.8092 13.808 54.5345 13.808C55.2492 13.808 55.8732 13.9733 56.4065 14.304C56.9398 14.6347 57.3505 15.1147 57.6385 15.744C57.9372 16.3627 58.0865 17.104 58.0865 17.968C58.0865 18.832 57.9372 19.5787 57.6385 20.208C57.3505 20.8373 56.9398 21.3173 56.4065 21.648C55.8732 21.9787 55.2492 22.144 54.5345 22.144C53.8198 22.144 53.2012 21.968 52.6785 21.616C52.1665 21.2533 51.8198 20.768 51.6385 20.16H51.8145V25.456H50.3585ZM54.1985 20.992C54.9345 20.992 55.5212 20.736 55.9585 20.224C56.3958 19.712 56.6145 18.96 56.6145 17.968C56.6145 16.976 56.3958 16.2293 55.9585 15.728C55.5212 15.2267 54.9345 14.976 54.1985 14.976C53.4625 14.976 52.8758 15.2267 52.4385 15.728C52.0118 16.2293 51.7985 16.976 51.7985 17.968C51.7985 18.96 52.0118 19.712 52.4385 20.224C52.8758 20.736 53.4625 20.992 54.1985 20.992ZM60.1699 22V13.952H61.6099V16.8H63.9779C65.0232 16.8 65.8072 17.024 66.3299 17.472C66.8632 17.9093 67.1299 18.544 67.1299 19.376C67.1299 19.9093 67.0072 20.3733 66.7619 20.768C66.5165 21.1627 66.1592 21.4667 65.6899 21.68C65.2205 21.8933 64.6499 22 63.9779 22H60.1699ZM61.6099 20.992H63.8179C64.4579 20.992 64.9379 20.864 65.2579 20.608C65.5885 20.3413 65.7539 19.936 65.7539 19.392C65.7539 18.848 65.5885 18.448 65.2579 18.192C64.9379 17.936 64.4579 17.808 63.8179 17.808H61.6099V20.992ZM68.2979 22V13.952H69.7379V22H68.2979ZM76.4511 22V13.952H77.7791V20.624H77.3471L82.3391 13.952H83.5551V22H82.2271V15.312H82.6751L77.6671 22H76.4511ZM93.7036 22.144C92.9143 22.144 92.2316 21.9787 91.6556 21.648C91.0796 21.3067 90.6316 20.8267 90.3116 20.208C89.9916 19.5787 89.8316 18.832 89.8316 17.968C89.8316 17.1147 89.9916 16.3787 90.3116 15.76C90.6316 15.1307 91.0796 14.6507 91.6556 14.32C92.2316 13.9787 92.9143 13.808 93.7036 13.808C94.493 13.808 95.1756 13.9787 95.7516 14.32C96.3383 14.6507 96.7863 15.1307 97.0956 15.76C97.4156 16.3787 97.5756 17.1147 97.5756 17.968C97.5756 18.832 97.4156 19.5787 97.0956 20.208C96.7863 20.8267 96.3383 21.3067 95.7516 21.648C95.1756 21.9787 94.493 22.144 93.7036 22.144ZM93.7036 20.992C94.429 20.992 95.0103 20.736 95.4476 20.224C95.885 19.712 96.1036 18.96 96.1036 17.968C96.1036 16.976 95.885 16.2293 95.4476 15.728C95.0103 15.2267 94.429 14.976 93.7036 14.976C92.9676 14.976 92.381 15.2267 91.9436 15.728C91.517 16.2293 91.3036 16.976 91.3036 17.968C91.3036 18.96 91.517 19.712 91.9436 20.224C92.381 20.736 92.9676 20.992 93.7036 20.992ZM99.6543 22V13.952H105.366V15.12H101.11V22H99.6543ZM106.905 25.456V15.856C106.905 15.5467 106.895 15.232 106.873 14.912C106.852 14.592 106.82 14.272 106.777 13.952H108.185L108.361 15.808H108.185C108.345 15.1893 108.687 14.704 109.209 14.352C109.732 13.9893 110.356 13.808 111.081 13.808C111.796 13.808 112.42 13.9733 112.953 14.304C113.487 14.6347 113.897 15.1147 114.185 15.744C114.484 16.3627 114.633 17.104 114.633 17.968C114.633 18.832 114.484 19.5787 114.185 20.208C113.897 20.8373 113.487 21.3173 112.953 21.648C112.42 21.9787 111.796 22.144 111.081 22.144C110.367 22.144 109.748 21.968 109.225 21.616C108.713 21.2533 108.367 20.768 108.185 20.16H108.361V25.456H106.905ZM110.745 20.992C111.481 20.992 112.068 20.736 112.505 20.224C112.943 19.712 113.161 18.96 113.161 17.968C113.161 16.976 112.943 16.2293 112.505 15.728C112.068 15.2267 111.481 14.976 110.745 14.976C110.009 14.976 109.423 15.2267 108.985 15.728C108.559 16.2293 108.345 16.976 108.345 17.968C108.345 18.96 108.559 19.712 108.985 20.224C109.423 20.736 110.009 20.992 110.745 20.992ZM119.837 22.144C119.133 22.144 118.514 21.9787 117.981 21.648C117.447 21.3173 117.031 20.8373 116.733 20.208C116.434 19.5787 116.285 18.832 116.285 17.968C116.285 17.104 116.434 16.3627 116.733 15.744C117.031 15.1147 117.447 14.6347 117.981 14.304C118.514 13.9733 119.133 13.808 119.837 13.808C120.551 13.808 121.17 13.9893 121.693 14.352C122.226 14.704 122.578 15.1893 122.749 15.808H122.557L122.733 13.952H124.141C124.109 14.272 124.077 14.592 124.045 14.912C124.023 15.232 124.013 15.5467 124.013 15.856V22H122.557V20.16H122.733C122.562 20.768 122.21 21.2533 121.677 21.616C121.154 21.968 120.541 22.144 119.837 22.144ZM120.173 20.992C120.898 20.992 121.479 20.736 121.917 20.224C122.354 19.712 122.573 18.96 122.573 17.968C122.573 16.976 122.354 16.2293 121.917 15.728C121.479 15.2267 120.898 14.976 120.173 14.976C119.447 14.976 118.861 15.2267 118.413 15.728C117.975 16.2293 117.757 16.976 117.757 17.968C117.757 18.96 117.975 19.712 118.413 20.224C118.85 20.736 119.437 20.992 120.173 20.992ZM125.328 22L126.992 19.136C127.237 18.7413 127.461 18.4267 127.664 18.192C127.867 17.9573 128.08 17.7813 128.304 17.664C128.539 17.536 128.811 17.456 129.12 17.424L128.768 17.872L125.712 13.952H127.312L129.92 17.28H131.152V13.952H132.592V17.28H133.808L136.4 13.952H138.016L134.96 17.872L134.592 17.424C134.901 17.456 135.168 17.536 135.392 17.664C135.627 17.7813 135.851 17.9573 136.064 18.192C136.277 18.4267 136.501 18.7413 136.736 19.136L138.4 22H136.848L135.392 19.52C135.221 19.232 135.056 19.008 134.896 18.848C134.736 18.688 134.555 18.576 134.352 18.512C134.16 18.448 133.915 18.416 133.616 18.416H132.592V22H131.152V18.416H130.112C129.813 18.416 129.563 18.448 129.36 18.512C129.168 18.576 128.992 18.688 128.832 18.848C128.683 19.008 128.517 19.232 128.336 19.52L126.896 22H125.328ZM138.822 24.08V20.864H139.702C140.065 20.32 140.326 19.68 140.486 18.944C140.657 18.208 140.742 17.3333 140.742 16.32V13.952H146.518V20.864H147.798V24.08H146.55V22H140.086V24.08H138.822ZM141.078 20.88H145.158V15.072H142.022V16.576C142.022 17.3867 141.942 18.176 141.782 18.944C141.622 19.7013 141.388 20.3467 141.078 20.88ZM153.194 22.144C151.914 22.144 150.901 21.776 150.154 21.04C149.418 20.304 149.05 19.2907 149.05 18C149.05 17.1467 149.21 16.4107 149.53 15.792C149.861 15.1627 150.314 14.6773 150.89 14.336C151.466 13.984 152.138 13.808 152.906 13.808C153.642 13.808 154.266 13.968 154.778 14.288C155.29 14.5973 155.68 15.04 155.946 15.616C156.213 16.192 156.346 16.8747 156.346 17.664V18.144H150.186V17.28H155.354L155.082 17.488C155.082 16.656 154.896 16.0107 154.522 15.552C154.16 15.0933 153.621 14.864 152.906 14.864C152.128 14.864 151.525 15.136 151.098 15.68C150.672 16.2133 150.458 16.944 150.458 17.872V18.016C150.458 18.9973 150.698 19.7387 151.178 20.24C151.669 20.7413 152.346 20.992 153.21 20.992C153.69 20.992 154.138 20.9227 154.554 20.784C154.97 20.6453 155.37 20.416 155.754 20.096L156.234 21.104C155.872 21.4347 155.418 21.6907 154.874 21.872C154.341 22.0533 153.781 22.144 153.194 22.144ZM158.373 22V13.952H159.813V17.28H164.069V13.952H165.509V22H164.069V18.432H159.813V22H158.373ZM167.998 22V13.952H169.326V20.624H168.894L173.886 13.952H175.102V22H173.774V15.312H174.222L169.214 22H167.998ZM176.952 22L178.216 19.808C178.418 19.456 178.674 19.1733 178.984 18.96C179.293 18.736 179.618 18.624 179.96 18.624H180.216L180.2 18.768C179.293 18.768 178.584 18.5653 178.072 18.16C177.56 17.744 177.304 17.1467 177.304 16.368C177.304 15.6 177.554 15.008 178.056 14.592C178.557 14.1653 179.304 13.952 180.296 13.952H183.96V22H182.616V18.96H181.464C181.048 18.96 180.69 19.0667 180.392 19.28C180.093 19.4827 179.848 19.7547 179.656 20.096L178.568 22H176.952ZM180.552 17.952H182.616V14.944H180.552C179.922 14.944 179.453 15.0773 179.144 15.344C178.845 15.6107 178.696 15.9787 178.696 16.448C178.696 16.928 178.845 17.3013 179.144 17.568C179.453 17.824 179.922 17.952 180.552 17.952Z" fill="#141C1A"/>
<path d="M193.038 24.88C192.579 24.0907 192.201 23.312 191.902 22.544C191.614 21.7867 191.401 21.0187 191.262 20.24C191.134 19.4507 191.07 18.6347 191.07 17.792C191.07 16.9387 191.134 16.1227 191.262 15.344C191.401 14.5653 191.614 13.7973 191.902 13.04C192.201 12.2827 192.579 11.5093 193.038 10.72H194.222C193.678 11.9253 193.267 13.1147 192.99 14.288C192.713 15.4507 192.574 16.6187 192.574 17.792C192.574 18.9653 192.713 20.1387 192.99 21.312C193.267 22.4853 193.678 23.6747 194.222 24.88H193.038ZM196.64 22V20.736H199.28V11.984H200.032L196.88 13.936V12.48L199.696 10.72H200.768V20.736H203.248V22H196.64ZM209.242 22.144C208.751 22.144 208.266 22.0907 207.786 21.984C207.317 21.8773 206.874 21.728 206.458 21.536C206.042 21.3333 205.679 21.088 205.37 20.8L205.898 19.648C206.421 20.064 206.954 20.3733 207.498 20.576C208.042 20.768 208.613 20.864 209.21 20.864C209.999 20.864 210.618 20.656 211.066 20.24C211.514 19.824 211.738 19.2693 211.738 18.576C211.738 17.8613 211.525 17.2853 211.098 16.848C210.671 16.4 210.079 16.176 209.322 16.176C208.799 16.176 208.325 16.2827 207.898 16.496C207.482 16.6987 207.114 17.024 206.794 17.472H205.738V10.72H212.506V11.984H207.178V16.256H206.794C207.082 15.8293 207.471 15.4987 207.962 15.264C208.463 15.0293 209.023 14.912 209.642 14.912C210.367 14.912 210.991 15.0613 211.514 15.36C212.047 15.6587 212.458 16.08 212.746 16.624C213.045 17.1573 213.194 17.7813 213.194 18.496C213.194 19.2107 213.034 19.8453 212.714 20.4C212.394 20.944 211.935 21.3707 211.338 21.68C210.751 21.9893 210.053 22.144 209.242 22.144ZM215.46 24.88H214.26C214.804 23.6747 215.214 22.4853 215.492 21.312C215.78 20.1387 215.924 18.9653 215.924 17.792C215.924 16.6293 215.78 15.4613 215.492 14.288C215.214 13.1147 214.804 11.9253 214.26 10.72H215.46C215.918 11.5093 216.292 12.288 216.58 13.056C216.878 13.8133 217.092 14.5813 217.22 15.36C217.358 16.1387 217.428 16.9493 217.428 17.792C217.428 18.6453 217.358 19.4613 217.22 20.24C217.092 21.0187 216.878 21.7867 216.58 22.544C216.292 23.312 215.918 24.0907 215.46 24.88Z" fill="#8D8D8D"/>
</svg>
