<svg width="112" height="32" viewBox="0 0 112 32" fill="none" xmlns="http://www.w3.org/2000/svg">
<rect width="112" height="32" rx="4" fill="#E4E9E8"/>
<path d="M11.376 22V10.72H12.848V15.696H15.056L14.656 15.952L18.192 10.72H19.872L16.064 16.208L15.52 15.76C16.2027 15.8347 16.7787 16.064 17.248 16.448C17.728 16.832 18.1493 17.3707 18.512 18.064L20.48 22H18.864L17.264 18.704C16.9547 18.064 16.5973 17.6107 16.192 17.344C15.7867 17.0773 15.28 16.944 14.672 16.944H12.848V22H11.376ZM21.921 25.456V15.856C21.921 15.5467 21.9103 15.232 21.889 14.912C21.8677 14.592 21.8357 14.272 21.793 13.952H23.201L23.377 15.808H23.201C23.361 15.1893 23.7023 14.704 24.225 14.352C24.7477 13.9893 25.3717 13.808 26.097 13.808C26.8117 13.808 27.4357 13.9733 27.969 14.304C28.5023 14.6347 28.913 15.1147 29.201 15.744C29.4997 16.3627 29.649 17.104 29.649 17.968C29.649 18.832 29.4997 19.5787 29.201 20.208C28.913 20.8373 28.5023 21.3173 27.969 21.648C27.4357 21.9787 26.8117 22.144 26.097 22.144C25.3823 22.144 24.7637 21.968 24.241 21.616C23.729 21.2533 23.3823 20.768 23.201 20.16H23.377V25.456H21.921ZM25.761 20.992C26.497 20.992 27.0837 20.736 27.521 20.224C27.9583 19.712 28.177 18.96 28.177 17.968C28.177 16.976 27.9583 16.2293 27.521 15.728C27.0837 15.2267 26.497 14.976 25.761 14.976C25.025 14.976 24.4383 15.2267 24.001 15.728C23.5743 16.2293 23.361 16.976 23.361 17.968C23.361 18.96 23.5743 19.712 24.001 20.224C24.4383 20.736 25.025 20.992 25.761 20.992ZM35.1724 22.144C34.383 22.144 33.7004 21.9787 33.1244 21.648C32.5484 21.3067 32.1004 20.8267 31.7804 20.208C31.4604 19.5787 31.3004 18.832 31.3004 17.968C31.3004 17.1147 31.4604 16.3787 31.7804 15.76C32.1004 15.1307 32.5484 14.6507 33.1244 14.32C33.7004 13.9787 34.383 13.808 35.1724 13.808C35.9617 13.808 36.6444 13.9787 37.2204 14.32C37.807 14.6507 38.255 15.1307 38.5644 15.76C38.8844 16.3787 39.0444 17.1147 39.0444 17.968C39.0444 18.832 38.8844 19.5787 38.5644 20.208C38.255 20.8267 37.807 21.3067 37.2204 21.648C36.6444 21.9787 35.9617 22.144 35.1724 22.144ZM35.1724 20.992C35.8977 20.992 36.479 20.736 36.9164 20.224C37.3537 19.712 37.5724 18.96 37.5724 17.968C37.5724 16.976 37.3537 16.2293 36.9164 15.728C36.479 15.2267 35.8977 14.976 35.1724 14.976C34.4364 14.976 33.8497 15.2267 33.4124 15.728C32.9857 16.2293 32.7724 16.976 32.7724 17.968C32.7724 18.96 32.9857 19.712 33.4124 20.224C33.8497 20.736 34.4364 20.992 35.1724 20.992ZM41.123 22V13.952H45.091C46.0403 13.952 46.7443 14.1333 47.203 14.496C47.6723 14.8587 47.907 15.3813 47.907 16.064C47.907 16.576 47.731 17.008 47.379 17.36C47.027 17.7013 46.5683 17.9093 46.003 17.984V17.776C46.675 17.7973 47.203 17.9947 47.587 18.368C47.9817 18.7307 48.179 19.2 48.179 19.776C48.179 20.4587 47.9177 21.0027 47.395 21.408C46.883 21.8027 46.163 22 45.235 22H41.123ZM42.499 21.04H45.139C45.683 21.04 46.099 20.928 46.387 20.704C46.675 20.4693 46.819 20.1387 46.819 19.712C46.819 19.2747 46.675 18.944 46.387 18.72C46.099 18.496 45.683 18.384 45.139 18.384H42.499V21.04ZM42.499 17.424H44.963C45.4643 17.424 45.8537 17.312 46.131 17.088C46.4083 16.864 46.547 16.5547 46.547 16.16C46.547 15.7547 46.4083 15.4453 46.131 15.232C45.8537 15.0187 45.4643 14.912 44.963 14.912H42.499V17.424ZM49.7546 22.192L49.2426 21.056C49.616 20.8853 49.9253 20.6827 50.1706 20.448C50.4266 20.2027 50.624 19.8933 50.7626 19.52C50.912 19.1467 51.0186 18.6827 51.0826 18.128C51.1466 17.5733 51.1786 16.9013 51.1786 16.112V13.952H57.1146V22H55.6746V15.088H52.5226V16.144C52.5226 17.3813 52.4266 18.4053 52.2346 19.216C52.0533 20.016 51.76 20.6507 51.3546 21.12C50.96 21.5893 50.4266 21.9467 49.7546 22.192ZM58.9674 22L60.2314 19.808C60.434 19.456 60.69 19.1733 60.9994 18.96C61.3087 18.736 61.634 18.624 61.9754 18.624H62.2314L62.2154 18.768C61.3087 18.768 60.5994 18.5653 60.0874 18.16C59.5754 17.744 59.3194 17.1467 59.3194 16.368C59.3194 15.6 59.57 15.008 60.0714 14.592C60.5727 14.1653 61.3194 13.952 62.3114 13.952H65.9754V22H64.6314V18.96H63.4794C63.0634 18.96 62.706 19.0667 62.4074 19.28C62.1087 19.4827 61.8634 19.7547 61.6714 20.096L60.5834 22H58.9674ZM62.5674 17.952H64.6314V14.944H62.5674C61.938 14.944 61.4687 15.0773 61.1594 15.344C60.8607 15.6107 60.7114 15.9787 60.7114 16.448C60.7114 16.928 60.8607 17.3013 61.1594 17.568C61.4687 17.824 61.938 17.952 62.5674 17.952Z" fill="#141C1A"/>
<path d="M75.0535 24.88C74.5948 24.0907 74.2162 23.312 73.9175 22.544C73.6295 21.7867 73.4162 21.0187 73.2775 20.24C73.1495 19.4507 73.0855 18.6347 73.0855 17.792C73.0855 16.9387 73.1495 16.1227 73.2775 15.344C73.4162 14.5653 73.6295 13.7973 73.9175 13.04C74.2162 12.2827 74.5948 11.5093 75.0535 10.72H76.2375C75.6935 11.9253 75.2828 13.1147 75.0055 14.288C74.7282 15.4507 74.5895 16.6187 74.5895 17.792C74.5895 18.9653 74.7282 20.1387 75.0055 21.312C75.2828 22.4853 75.6935 23.6747 76.2375 24.88H75.0535ZM78.6559 22V20.736H81.2959V11.984H82.0479L78.8959 13.936V12.48L81.7119 10.72H82.7839V20.736H85.2639V22H78.6559ZM91.2576 22.144C90.767 22.144 90.2816 22.0907 89.8016 21.984C89.3323 21.8773 88.8896 21.728 88.4736 21.536C88.0576 21.3333 87.695 21.088 87.3856 20.8L87.9136 19.648C88.4363 20.064 88.9696 20.3733 89.5136 20.576C90.0576 20.768 90.6283 20.864 91.2256 20.864C92.015 20.864 92.6336 20.656 93.0816 20.24C93.5296 19.824 93.7536 19.2693 93.7536 18.576C93.7536 17.8613 93.5403 17.2853 93.1136 16.848C92.687 16.4 92.095 16.176 91.3376 16.176C90.815 16.176 90.3403 16.2827 89.9136 16.496C89.4976 16.6987 89.1296 17.024 88.8096 17.472H87.7536V10.72H94.5216V11.984H89.1936V16.256H88.8096C89.0976 15.8293 89.487 15.4987 89.9776 15.264C90.479 15.0293 91.039 14.912 91.6576 14.912C92.383 14.912 93.007 15.0613 93.5296 15.36C94.063 15.6587 94.4736 16.08 94.7616 16.624C95.0603 17.1573 95.2096 17.7813 95.2096 18.496C95.2096 19.2107 95.0496 19.8453 94.7296 20.4C94.4096 20.944 93.951 21.3707 93.3536 21.68C92.767 21.9893 92.0683 22.144 91.2576 22.144ZM97.4754 24.88H96.2754C96.8194 23.6747 97.23 22.4853 97.5074 21.312C97.7954 20.1387 97.9394 18.9653 97.9394 17.792C97.9394 16.6293 97.7954 15.4613 97.5074 14.288C97.23 13.1147 96.8194 11.9253 96.2754 10.72H97.4754C97.934 11.5093 98.3074 12.288 98.5954 13.056C98.894 13.8133 99.1074 14.5813 99.2354 15.36C99.374 16.1387 99.4434 16.9493 99.4434 17.792C99.4434 18.6453 99.374 19.4613 99.2354 20.24C99.1074 21.0187 98.894 21.7867 98.5954 22.544C98.3074 23.312 97.934 24.0907 97.4754 24.88Z" fill="#8D8D8D"/>
</svg>
