<svg width="177" height="32" viewBox="0 0 177 32" fill="none" xmlns="http://www.w3.org/2000/svg">
<rect width="177" height="32" rx="4" fill="#E4E9E8"/>
<path d="M11.376 22V10.72H12.688L17.136 20.736H16.656L21.104 10.72H22.4V22H21.04V12.704H21.536L17.36 22H16.416L12.24 12.704H12.736V22H11.376ZM28.7413 22.144C27.4613 22.144 26.4479 21.776 25.7013 21.04C24.9653 20.304 24.5973 19.2907 24.5973 18C24.5973 17.1467 24.7573 16.4107 25.0773 15.792C25.4079 15.1627 25.8613 14.6773 26.4373 14.336C27.0133 13.984 27.6853 13.808 28.4533 13.808C29.1893 13.808 29.8133 13.968 30.3253 14.288C30.8373 14.5973 31.2266 15.04 31.4933 15.616C31.7599 16.192 31.8933 16.8747 31.8933 17.664V18.144H25.7333V17.28H30.9013L30.6293 17.488C30.6293 16.656 30.4426 16.0107 30.0693 15.552C29.7066 15.0933 29.1679 14.864 28.4533 14.864C27.6746 14.864 27.0719 15.136 26.6453 15.68C26.2186 16.2133 26.0053 16.944 26.0053 17.872V18.016C26.0053 18.9973 26.2453 19.7387 26.7253 20.24C27.2159 20.7413 27.8933 20.992 28.7573 20.992C29.2373 20.992 29.6853 20.9227 30.1013 20.784C30.5173 20.6453 30.9173 20.416 31.3013 20.096L31.7812 21.104C31.4186 21.4347 30.9653 21.6907 30.4213 21.872C29.8879 22.0533 29.3279 22.144 28.7413 22.144ZM35.6479 22V15.12H32.7519V13.952H39.9839V15.12H37.0879V22H35.6479ZM44.4305 22.144C43.7265 22.144 43.1078 21.9787 42.5745 21.648C42.0412 21.3173 41.6252 20.8373 41.3265 20.208C41.0278 19.5787 40.8785 18.832 40.8785 17.968C40.8785 17.104 41.0278 16.3627 41.3265 15.744C41.6252 15.1147 42.0412 14.6347 42.5745 14.304C43.1078 13.9733 43.7265 13.808 44.4305 13.808C45.1452 13.808 45.7638 13.9893 46.2865 14.352C46.8198 14.704 47.1718 15.1893 47.3425 15.808H47.1505L47.3265 13.952H48.7345C48.7025 14.272 48.6705 14.592 48.6385 14.912C48.6172 15.232 48.6065 15.5467 48.6065 15.856V22H47.1505V20.16H47.3265C47.1558 20.768 46.8038 21.2533 46.2705 21.616C45.7478 21.968 45.1345 22.144 44.4305 22.144ZM44.7665 20.992C45.4918 20.992 46.0732 20.736 46.5105 20.224C46.9478 19.712 47.1665 18.96 47.1665 17.968C47.1665 16.976 46.9478 16.2293 46.5105 15.728C46.0732 15.2267 45.4918 14.976 44.7665 14.976C44.0412 14.976 43.4545 15.2267 43.0065 15.728C42.5692 16.2293 42.3505 16.976 42.3505 17.968C42.3505 18.96 42.5692 19.712 43.0065 20.224C43.4438 20.736 44.0305 20.992 44.7665 20.992ZM50.7859 22.192L50.2739 21.056C50.6472 20.8853 50.9565 20.6827 51.2019 20.448C51.4579 20.2027 51.6552 19.8933 51.7939 19.52C51.9432 19.1467 52.0499 18.6827 52.1139 18.128C52.1779 17.5733 52.2099 16.9013 52.2099 16.112V13.952H58.1459V22H56.7059V15.088H53.5539V16.144C53.5539 17.3813 53.4579 18.4053 53.2659 19.216C53.0845 20.016 52.7912 20.6507 52.3859 21.12C51.9912 21.5893 51.4579 21.9467 50.7859 22.192ZM60.2546 22.192L59.7426 21.056C60.116 20.8853 60.4253 20.6827 60.6706 20.448C60.9266 20.2027 61.124 19.8933 61.2626 19.52C61.412 19.1467 61.5186 18.6827 61.5826 18.128C61.6466 17.5733 61.6786 16.9013 61.6786 16.112V13.952H67.6146V22H66.1746V15.088H63.0226V16.144C63.0226 17.3813 62.9266 18.4053 62.7346 19.216C62.5533 20.016 62.26 20.6507 61.8546 21.12C61.46 21.5893 60.9266 21.9467 60.2546 22.192ZM73.5474 22.144C72.758 22.144 72.0754 21.9787 71.4994 21.648C70.9234 21.3067 70.4754 20.8267 70.1554 20.208C69.8354 19.5787 69.6754 18.832 69.6754 17.968C69.6754 17.1147 69.8354 16.3787 70.1554 15.76C70.4754 15.1307 70.9234 14.6507 71.4994 14.32C72.0754 13.9787 72.758 13.808 73.5474 13.808C74.3367 13.808 75.0194 13.9787 75.5954 14.32C76.182 14.6507 76.63 15.1307 76.9394 15.76C77.2594 16.3787 77.4194 17.1147 77.4194 17.968C77.4194 18.832 77.2594 19.5787 76.9394 20.208C76.63 20.8267 76.182 21.3067 75.5954 21.648C75.0194 21.9787 74.3367 22.144 73.5474 22.144ZM73.5474 20.992C74.2727 20.992 74.854 20.736 75.2914 20.224C75.7287 19.712 75.9474 18.96 75.9474 17.968C75.9474 16.976 75.7287 16.2293 75.2914 15.728C74.854 15.2267 74.2727 14.976 73.5474 14.976C72.8114 14.976 72.2247 15.2267 71.7874 15.728C71.3607 16.2293 71.1474 16.976 71.1474 17.968C71.1474 18.96 71.3607 19.712 71.7874 20.224C72.2247 20.736 72.8114 20.992 73.5474 20.992ZM79.498 22V13.952H86.586V22H85.146V15.088H80.938V22H79.498ZM89.1241 25.456V15.856C89.1241 15.5467 89.1135 15.232 89.0921 14.912C89.0708 14.592 89.0388 14.272 88.9961 13.952H90.4041L90.5801 15.808H90.4041C90.5641 15.1893 90.9055 14.704 91.4281 14.352C91.9508 13.9893 92.5748 13.808 93.3001 13.808C94.0148 13.808 94.6388 13.9733 95.1721 14.304C95.7055 14.6347 96.1161 15.1147 96.4041 15.744C96.7028 16.3627 96.8521 17.104 96.8521 17.968C96.8521 18.832 96.7028 19.5787 96.4041 20.208C96.1161 20.8373 95.7055 21.3173 95.1721 21.648C94.6388 21.9787 94.0148 22.144 93.3001 22.144C92.5855 22.144 91.9668 21.968 91.4441 21.616C90.9321 21.2533 90.5855 20.768 90.4041 20.16H90.5801V25.456H89.1241ZM92.9641 20.992C93.7001 20.992 94.2868 20.736 94.7241 20.224C95.1615 19.712 95.3801 18.96 95.3801 17.968C95.3801 16.976 95.1615 16.2293 94.7241 15.728C94.2868 15.2267 93.7001 14.976 92.9641 14.976C92.2281 14.976 91.6415 15.2267 91.2041 15.728C90.7775 16.2293 90.5641 16.976 90.5641 17.968C90.5641 18.96 90.7775 19.712 91.2041 20.224C91.6415 20.736 92.2281 20.992 92.9641 20.992ZM102.376 22.144C101.586 22.144 100.904 21.9787 100.328 21.648C99.7515 21.3067 99.3035 20.8267 98.9835 20.208C98.6635 19.5787 98.5035 18.832 98.5035 17.968C98.5035 17.1147 98.6635 16.3787 98.9835 15.76C99.3035 15.1307 99.7515 14.6507 100.328 14.32C100.904 13.9787 101.586 13.808 102.376 13.808C103.165 13.808 103.848 13.9787 104.424 14.32C105.01 14.6507 105.458 15.1307 105.767 15.76C106.088 16.3787 106.248 17.1147 106.248 17.968C106.248 18.832 106.088 19.5787 105.767 20.208C105.458 20.8267 105.01 21.3067 104.424 21.648C103.848 21.9787 103.165 22.144 102.376 22.144ZM102.376 20.992C103.101 20.992 103.682 20.736 104.12 20.224C104.557 19.712 104.776 18.96 104.776 17.968C104.776 16.976 104.557 16.2293 104.12 15.728C103.682 15.2267 103.101 14.976 102.376 14.976C101.64 14.976 101.053 15.2267 100.616 15.728C100.189 16.2293 99.9755 16.976 99.9755 17.968C99.9755 18.96 100.189 19.712 100.616 20.224C101.053 20.736 101.64 20.992 102.376 20.992ZM108.326 22V13.952H109.766V17.28H111.222L113.814 13.952H115.398L112.39 17.872L112.006 17.424C112.315 17.456 112.582 17.536 112.806 17.664C113.03 17.7813 113.243 17.9573 113.446 18.192C113.659 18.4267 113.889 18.7413 114.134 19.136L115.798 22H114.23L112.774 19.52C112.614 19.232 112.454 19.008 112.294 18.848C112.134 18.688 111.953 18.576 111.75 18.512C111.558 18.448 111.313 18.416 111.014 18.416H109.766V22H108.326ZM120.165 22.144C119.461 22.144 118.842 21.9787 118.309 21.648C117.776 21.3173 117.36 20.8373 117.061 20.208C116.762 19.5787 116.613 18.832 116.613 17.968C116.613 17.104 116.762 16.3627 117.061 15.744C117.36 15.1147 117.776 14.6347 118.309 14.304C118.842 13.9733 119.461 13.808 120.165 13.808C120.88 13.808 121.498 13.9893 122.021 14.352C122.554 14.704 122.906 15.1893 123.077 15.808H122.885L123.061 13.952H124.469C124.437 14.272 124.405 14.592 124.373 14.912C124.352 15.232 124.341 15.5467 124.341 15.856V22H122.885V20.16H123.061C122.89 20.768 122.538 21.2533 122.005 21.616C121.482 21.968 120.869 22.144 120.165 22.144ZM120.501 20.992C121.226 20.992 121.808 20.736 122.245 20.224C122.682 19.712 122.901 18.96 122.901 17.968C122.901 16.976 122.682 16.2293 122.245 15.728C121.808 15.2267 121.226 14.976 120.501 14.976C119.776 14.976 119.189 15.2267 118.741 15.728C118.304 16.2293 118.085 16.976 118.085 17.968C118.085 18.96 118.304 19.712 118.741 20.224C119.178 20.736 119.765 20.992 120.501 20.992ZM128.632 22V15.12H125.736V13.952H132.968V15.12H130.072V22H128.632Z" fill="#141C1A"/>
<path d="M140.882 24.88C140.423 24.0907 140.044 23.312 139.746 22.544C139.458 21.7867 139.244 21.0187 139.106 20.24C138.978 19.4507 138.914 18.6347 138.914 17.792C138.914 16.9387 138.978 16.1227 139.106 15.344C139.244 14.5653 139.458 13.7973 139.746 13.04C140.044 12.2827 140.423 11.5093 140.882 10.72H142.066C141.522 11.9253 141.111 13.1147 140.834 14.288C140.556 15.4507 140.418 16.6187 140.418 17.792C140.418 18.9653 140.556 20.1387 140.834 21.312C141.111 22.4853 141.522 23.6747 142.066 24.88H140.882ZM144.484 22V20.736H147.124V11.984H147.876L144.724 13.936V12.48L147.54 10.72H148.612V20.736H151.092V22H144.484ZM157.086 22.144C156.595 22.144 156.11 22.0907 155.63 21.984C155.16 21.8773 154.718 21.728 154.302 21.536C153.886 21.3333 153.523 21.088 153.214 20.8L153.742 19.648C154.264 20.064 154.798 20.3733 155.342 20.576C155.886 20.768 156.456 20.864 157.054 20.864C157.843 20.864 158.462 20.656 158.91 20.24C159.358 19.824 159.582 19.2693 159.582 18.576C159.582 17.8613 159.368 17.2853 158.942 16.848C158.515 16.4 157.923 16.176 157.166 16.176C156.643 16.176 156.168 16.2827 155.742 16.496C155.326 16.6987 154.958 17.024 154.638 17.472H153.582V10.72H160.35V11.984H155.022V16.256H154.638C154.926 15.8293 155.315 15.4987 155.806 15.264C156.307 15.0293 156.867 14.912 157.486 14.912C158.211 14.912 158.835 15.0613 159.358 15.36C159.891 15.6587 160.302 16.08 160.59 16.624C160.888 17.1573 161.038 17.7813 161.038 18.496C161.038 19.2107 160.878 19.8453 160.558 20.4C160.238 20.944 159.779 21.3707 159.182 21.68C158.595 21.9893 157.896 22.144 157.086 22.144ZM163.304 24.88H162.104C162.648 23.6747 163.058 22.4853 163.336 21.312C163.624 20.1387 163.768 18.9653 163.768 17.792C163.768 16.6293 163.624 15.4613 163.336 14.288C163.058 13.1147 162.648 11.9253 162.104 10.72H163.304C163.762 11.5093 164.136 12.288 164.424 13.056C164.722 13.8133 164.936 14.5813 165.064 15.36C165.202 16.1387 165.272 16.9493 165.272 17.792C165.272 18.6453 165.202 19.4613 165.064 20.24C164.936 21.0187 164.722 21.7867 164.424 22.544C164.136 23.312 163.762 24.0907 163.304 24.88Z" fill="#8D8D8D"/>
</svg>
