<svg width="153" height="32" viewBox="0 0 153 32" fill="none" xmlns="http://www.w3.org/2000/svg">
<rect width="153" height="32" rx="4" fill="#E4E9E8"/>
<path d="M11.376 22V10.72H20.896V22H19.424V11.968H12.848V22H11.376ZM23.5616 25.456V15.856C23.5616 15.5467 23.551 15.232 23.5296 14.912C23.5083 14.592 23.4763 14.272 23.4336 13.952H24.8416L25.0176 15.808H24.8416C25.0016 15.1893 25.343 14.704 25.8656 14.352C26.3883 13.9893 27.0123 13.808 27.7376 13.808C28.4523 13.808 29.0763 13.9733 29.6096 14.304C30.143 14.6347 30.5536 15.1147 30.8416 15.744C31.1403 16.3627 31.2896 17.104 31.2896 17.968C31.2896 18.832 31.1403 19.5787 30.8416 20.208C30.5536 20.8373 30.143 21.3173 29.6096 21.648C29.0763 21.9787 28.4523 22.144 27.7376 22.144C27.023 22.144 26.4043 21.968 25.8816 21.616C25.3696 21.2533 25.023 20.768 24.8416 20.16H25.0176V25.456H23.5616ZM27.4016 20.992C28.1376 20.992 28.7243 20.736 29.1616 20.224C29.599 19.712 29.8176 18.96 29.8176 17.968C29.8176 16.976 29.599 16.2293 29.1616 15.728C28.7243 15.2267 28.1376 14.976 27.4016 14.976C26.6656 14.976 26.079 15.2267 25.6416 15.728C25.215 16.2293 25.0016 16.976 25.0016 17.968C25.0016 18.96 25.215 19.712 25.6416 20.224C26.079 20.736 26.6656 20.992 27.4016 20.992ZM36.813 22.144C36.0237 22.144 35.341 21.9787 34.765 21.648C34.189 21.3067 33.741 20.8267 33.421 20.208C33.101 19.5787 32.941 18.832 32.941 17.968C32.941 17.1147 33.101 16.3787 33.421 15.76C33.741 15.1307 34.189 14.6507 34.765 14.32C35.341 13.9787 36.0237 13.808 36.813 13.808C37.6023 13.808 38.285 13.9787 38.861 14.32C39.4477 14.6507 39.8957 15.1307 40.205 15.76C40.525 16.3787 40.685 17.1147 40.685 17.968C40.685 18.832 40.525 19.5787 40.205 20.208C39.8957 20.8267 39.4477 21.3067 38.861 21.648C38.285 21.9787 37.6023 22.144 36.813 22.144ZM36.813 20.992C37.5383 20.992 38.1197 20.736 38.557 20.224C38.9943 19.712 39.213 18.96 39.213 17.968C39.213 16.976 38.9943 16.2293 38.557 15.728C38.1197 15.2267 37.5383 14.976 36.813 14.976C36.077 14.976 35.4903 15.2267 35.053 15.728C34.6263 16.2293 34.413 16.976 34.413 17.968C34.413 18.96 34.6263 19.712 35.053 20.224C35.4903 20.736 36.077 20.992 36.813 20.992ZM47.4036 25.456V20.256H47.5636C47.4036 20.864 47.121 21.3333 46.7156 21.664C46.321 21.984 45.8356 22.144 45.2596 22.144C44.6836 22.144 44.1716 21.9733 43.7236 21.632C43.2863 21.2907 42.945 20.8107 42.6996 20.192C42.4543 19.5627 42.3316 18.8213 42.3316 17.968C42.3316 17.1147 42.449 16.3787 42.6836 15.76C42.929 15.1307 43.2703 14.6507 43.7076 14.32C44.1556 13.9787 44.673 13.808 45.2596 13.808C45.8356 13.808 46.321 13.9733 46.7156 14.304C47.121 14.624 47.4036 15.0827 47.5636 15.68H47.4036V10.224H48.8436V15.68H48.6836C48.8543 15.0827 49.137 14.624 49.5316 14.304C49.9263 13.9733 50.4116 13.808 50.9876 13.808C51.5743 13.808 52.0863 13.9787 52.5236 14.32C52.9716 14.6507 53.313 15.1307 53.5476 15.76C53.793 16.3787 53.9156 17.1147 53.9156 17.968C53.9156 18.8213 53.793 19.5627 53.5476 20.192C53.313 20.8107 52.977 21.2907 52.5396 21.632C52.1023 21.9733 51.585 22.144 50.9876 22.144C50.4223 22.144 49.937 21.984 49.5316 21.664C49.137 21.3333 48.8543 20.864 48.6836 20.256H48.8436V25.456H47.4036ZM45.6116 21.008C46.177 21.008 46.6196 20.752 46.9396 20.24C47.2703 19.728 47.4356 18.9707 47.4356 17.968C47.4356 16.9867 47.2703 16.2347 46.9396 15.712C46.609 15.1893 46.1663 14.928 45.6116 14.928C45.0463 14.928 44.5983 15.1893 44.2676 15.712C43.9476 16.2347 43.7876 16.9867 43.7876 17.968C43.7876 18.9707 43.9476 19.728 44.2676 20.24C44.5983 20.752 45.0463 21.008 45.6116 21.008ZM50.6356 21.008C51.201 21.008 51.649 20.752 51.9796 20.24C52.3103 19.728 52.4756 18.9707 52.4756 17.968C52.4756 16.9867 52.3103 16.2347 51.9796 15.712C51.649 15.1893 51.201 14.928 50.6356 14.928C50.0703 14.928 49.6276 15.1893 49.3076 15.712C48.9876 16.2347 48.8276 16.9867 48.8276 17.968C48.8276 18.9707 48.9876 19.728 49.3076 20.24C49.6276 20.752 50.0703 21.008 50.6356 21.008ZM55.9824 22V13.952H57.4224V17.28H61.6784V13.952H63.1184V22H61.6784V18.432H57.4224V22H55.9824ZM68.7274 22.144C68.0234 22.144 67.4047 21.9787 66.8714 21.648C66.338 21.3173 65.922 20.8373 65.6234 20.208C65.3247 19.5787 65.1754 18.832 65.1754 17.968C65.1754 17.104 65.3247 16.3627 65.6234 15.744C65.922 15.1147 66.338 14.6347 66.8714 14.304C67.4047 13.9733 68.0234 13.808 68.7274 13.808C69.442 13.808 70.0607 13.9893 70.5834 14.352C71.1167 14.704 71.4687 15.1893 71.6394 15.808H71.4474L71.6234 13.952H73.0314C72.9994 14.272 72.9674 14.592 72.9354 14.912C72.914 15.232 72.9034 15.5467 72.9034 15.856V22H71.4474V20.16H71.6234C71.4527 20.768 71.1007 21.2533 70.5674 21.616C70.0447 21.968 69.4314 22.144 68.7274 22.144ZM69.0634 20.992C69.7887 20.992 70.37 20.736 70.8074 20.224C71.2447 19.712 71.4634 18.96 71.4634 17.968C71.4634 16.976 71.2447 16.2293 70.8074 15.728C70.37 15.2267 69.7887 14.976 69.0634 14.976C68.338 14.976 67.7514 15.2267 67.3034 15.728C66.866 16.2293 66.6474 16.976 66.6474 17.968C66.6474 18.96 66.866 19.712 67.3034 20.224C67.7407 20.736 68.3274 20.992 69.0634 20.992ZM78.9708 22.144C78.1708 22.144 77.4774 21.9787 76.8908 21.648C76.3041 21.3067 75.8454 20.8213 75.5148 20.192C75.1948 19.552 75.0348 18.7947 75.0348 17.92C75.0348 17.056 75.2001 16.32 75.5308 15.712C75.8614 15.0933 76.3201 14.624 76.9068 14.304C77.4934 13.9733 78.1814 13.808 78.9708 13.808C79.4934 13.808 80.0001 13.8987 80.4908 14.08C80.9814 14.2507 81.3814 14.5013 81.6908 14.832L81.1948 15.856C80.8854 15.5573 80.5441 15.3387 80.1708 15.2C79.7974 15.0507 79.4294 14.976 79.0668 14.976C78.2774 14.976 77.6588 15.232 77.2108 15.744C76.7628 16.2453 76.5388 16.976 76.5388 17.936C76.5388 18.9067 76.7628 19.6533 77.2108 20.176C77.6588 20.6987 78.2774 20.96 79.0668 20.96C79.4188 20.96 79.7814 20.8907 80.1548 20.752C80.5281 20.6133 80.8748 20.3947 81.1948 20.096L81.6908 21.104C81.3708 21.4453 80.9601 21.7067 80.4588 21.888C79.9681 22.0587 79.4721 22.144 78.9708 22.144ZM85.3198 22V15.12H82.4238V13.952H89.6558V15.12H86.7598V22H85.3198ZM90.9824 22V13.952H92.3104V20.624H91.8784L96.8704 13.952H98.0864V22H96.7584V15.312H97.2064L92.1984 22H90.9824ZM100.192 22.192L99.6801 21.056C100.053 20.8853 100.363 20.6827 100.608 20.448C100.864 20.2027 101.061 19.8933 101.2 19.52C101.349 19.1467 101.456 18.6827 101.52 18.128C101.584 17.5733 101.616 16.9013 101.616 16.112V13.952H107.552V22H106.112V15.088H102.96V16.144C102.96 17.3813 102.864 18.4053 102.672 19.216C102.491 20.016 102.197 20.6507 101.792 21.12C101.397 21.5893 100.864 21.9467 100.192 22.192Z" fill="#141C1A"/>
<path d="M116.632 24.88C116.173 24.0907 115.794 23.312 115.496 22.544C115.208 21.7867 114.994 21.0187 114.856 20.24C114.728 19.4507 114.664 18.6347 114.664 17.792C114.664 16.9387 114.728 16.1227 114.856 15.344C114.994 14.5653 115.208 13.7973 115.496 13.04C115.794 12.2827 116.173 11.5093 116.632 10.72H117.816C117.272 11.9253 116.861 13.1147 116.584 14.288C116.306 15.4507 116.168 16.6187 116.168 17.792C116.168 18.9653 116.306 20.1387 116.584 21.312C116.861 22.4853 117.272 23.6747 117.816 24.88H116.632ZM120.234 22V20.736H122.874V11.984H123.626L120.474 13.936V12.48L123.29 10.72H124.362V20.736H126.842V22H120.234ZM132.836 22.144C132.345 22.144 131.86 22.0907 131.38 21.984C130.91 21.8773 130.468 21.728 130.052 21.536C129.636 21.3333 129.273 21.088 128.964 20.8L129.492 19.648C130.014 20.064 130.548 20.3733 131.092 20.576C131.636 20.768 132.206 20.864 132.804 20.864C133.593 20.864 134.212 20.656 134.66 20.24C135.108 19.824 135.332 19.2693 135.332 18.576C135.332 17.8613 135.118 17.2853 134.692 16.848C134.265 16.4 133.673 16.176 132.916 16.176C132.393 16.176 131.918 16.2827 131.492 16.496C131.076 16.6987 130.708 17.024 130.388 17.472H129.332V10.72H136.1V11.984H130.772V16.256H130.388C130.676 15.8293 131.065 15.4987 131.556 15.264C132.057 15.0293 132.617 14.912 133.236 14.912C133.961 14.912 134.585 15.0613 135.108 15.36C135.641 15.6587 136.052 16.08 136.34 16.624C136.638 17.1573 136.788 17.7813 136.788 18.496C136.788 19.2107 136.628 19.8453 136.308 20.4C135.988 20.944 135.529 21.3707 134.932 21.68C134.345 21.9893 133.646 22.144 132.836 22.144ZM139.054 24.88H137.854C138.398 23.6747 138.808 22.4853 139.086 21.312C139.374 20.1387 139.518 18.9653 139.518 17.792C139.518 16.6293 139.374 15.4613 139.086 14.288C138.808 13.1147 138.398 11.9253 137.854 10.72H139.054C139.512 11.5093 139.886 12.288 140.174 13.056C140.472 13.8133 140.686 14.5813 140.814 15.36C140.952 16.1387 141.022 16.9493 141.022 17.792C141.022 18.6453 140.952 19.4613 140.814 20.24C140.686 21.0187 140.472 21.7867 140.174 22.544C139.886 23.312 139.512 24.0907 139.054 24.88Z" fill="#8D8D8D"/>
</svg>
