<svg width="106" height="32" viewBox="0 0 106 32" fill="none" xmlns="http://www.w3.org/2000/svg">
<rect width="106" height="32" rx="4" fill="#E4E9E8"/>
<path d="M16.272 22.368V20.784L16.656 21.104H16.224C15.136 21.104 14.1973 20.912 13.408 20.528C12.6187 20.1333 12.0107 19.5787 11.584 18.864C11.168 18.1387 10.96 17.2747 10.96 16.272C10.96 14.7467 11.4187 13.5627 12.336 12.72C13.2533 11.8667 14.5493 11.44 16.224 11.44H16.656L16.272 11.76V10.272H17.76V11.76L17.36 11.44H17.792C19.4773 11.44 20.7787 11.8667 21.696 12.72C22.6133 13.5627 23.072 14.7467 23.072 16.272C23.072 17.2747 22.8587 18.1387 22.432 18.864C22.016 19.5787 21.4133 20.1333 20.624 20.528C19.8347 20.912 18.8907 21.104 17.792 21.104H17.36L17.76 20.784V22.368H16.272ZM16.272 20.24V12.32L16.624 12.608H16.032C14.944 12.608 14.08 12.9227 13.44 13.552C12.8107 14.1813 12.496 15.088 12.496 16.272C12.496 17.04 12.64 17.7013 12.928 18.256C13.2267 18.8 13.6427 19.216 14.176 19.504C14.7093 19.792 15.328 19.936 16.032 19.936H16.624L16.272 20.24ZM17.76 20.24L17.392 19.936H18C18.704 19.936 19.3227 19.792 19.856 19.504C20.3893 19.216 20.8 18.8 21.088 18.256C21.3867 17.7013 21.536 17.04 21.536 16.272C21.536 15.088 21.216 14.1813 20.576 13.552C19.9467 12.9227 19.088 12.608 18 12.608H17.392L17.76 12.32V20.24ZM28.3993 22.144C27.6953 22.144 27.0766 21.9787 26.5433 21.648C26.0099 21.3173 25.5939 20.8373 25.2953 20.208C24.9966 19.5787 24.8473 18.832 24.8473 17.968C24.8473 17.104 24.9966 16.3627 25.2953 15.744C25.5939 15.1147 26.0099 14.6347 26.5433 14.304C27.0766 13.9733 27.6953 13.808 28.3993 13.808C29.1139 13.808 29.7326 13.9893 30.2553 14.352C30.7886 14.704 31.1406 15.1893 31.3113 15.808H31.1193L31.2953 13.952H32.7033C32.6713 14.272 32.6393 14.592 32.6073 14.912C32.5859 15.232 32.5753 15.5467 32.5753 15.856V22H31.1193V20.16H31.2953C31.1246 20.768 30.7726 21.2533 30.2393 21.616C29.7166 21.968 29.1033 22.144 28.3993 22.144ZM28.7352 20.992C29.4606 20.992 30.0419 20.736 30.4793 20.224C30.9166 19.712 31.1353 18.96 31.1353 17.968C31.1353 16.976 30.9166 16.2293 30.4793 15.728C30.0419 15.2267 29.4606 14.976 28.7352 14.976C28.0099 14.976 27.4233 15.2267 26.9753 15.728C26.5379 16.2293 26.3193 16.976 26.3193 17.968C26.3193 18.96 26.5379 19.712 26.9753 20.224C27.4126 20.736 27.9993 20.992 28.7352 20.992ZM38.6426 22.144C37.8426 22.144 37.1493 21.9787 36.5626 21.648C35.976 21.3067 35.5173 20.8213 35.1866 20.192C34.8666 19.552 34.7066 18.7947 34.7066 17.92C34.7066 17.056 34.872 16.32 35.2026 15.712C35.5333 15.0933 35.992 14.624 36.5786 14.304C37.1653 13.9733 37.8533 13.808 38.6426 13.808C39.1653 13.808 39.672 13.8987 40.1626 14.08C40.6533 14.2507 41.0533 14.5013 41.3626 14.832L40.8666 15.856C40.5573 15.5573 40.216 15.3387 39.8426 15.2C39.4693 15.0507 39.1013 14.976 38.7386 14.976C37.9493 14.976 37.3306 15.232 36.8826 15.744C36.4346 16.2453 36.2106 16.976 36.2106 17.936C36.2106 18.9067 36.4346 19.6533 36.8826 20.176C37.3306 20.6987 37.9493 20.96 38.7386 20.96C39.0906 20.96 39.4533 20.8907 39.8266 20.752C40.2 20.6133 40.5466 20.3947 40.8666 20.096L41.3626 21.104C41.0426 21.4453 40.632 21.7067 40.1306 21.888C39.64 22.0587 39.144 22.144 38.6426 22.144ZM46.3836 22.144C45.6796 22.144 45.061 21.9787 44.5276 21.648C43.9943 21.3173 43.5783 20.8373 43.2796 20.208C42.981 19.5787 42.8316 18.832 42.8316 17.968C42.8316 17.104 42.981 16.3627 43.2796 15.744C43.5783 15.1147 43.9943 14.6347 44.5276 14.304C45.061 13.9733 45.6796 13.808 46.3836 13.808C47.0983 13.808 47.717 13.9893 48.2396 14.352C48.773 14.704 49.125 15.1893 49.2956 15.808H49.1036L49.2796 13.952H50.6876C50.6556 14.272 50.6236 14.592 50.5916 14.912C50.5703 15.232 50.5596 15.5467 50.5596 15.856V22H49.1036V20.16H49.2796C49.109 20.768 48.757 21.2533 48.2236 21.616C47.701 21.968 47.0876 22.144 46.3836 22.144ZM46.7196 20.992C47.445 20.992 48.0263 20.736 48.4636 20.224C48.901 19.712 49.1196 18.96 49.1196 17.968C49.1196 16.976 48.901 16.2293 48.4636 15.728C48.0263 15.2267 47.445 14.976 46.7196 14.976C45.9943 14.976 45.4076 15.2267 44.9596 15.728C44.5223 16.2293 44.3036 16.976 44.3036 17.968C44.3036 18.96 44.5223 19.712 44.9596 20.224C45.397 20.736 45.9836 20.992 46.7196 20.992ZM52.291 24.08V20.864H53.171C53.5337 20.32 53.795 19.68 53.955 18.944C54.1257 18.208 54.211 17.3333 54.211 16.32V13.952H59.987V20.864H61.267V24.08H60.019V22H53.555V24.08H52.291ZM54.547 20.88H58.627V15.072H55.491V16.576C55.491 17.3867 55.411 18.176 55.251 18.944C55.091 19.7013 54.8563 20.3467 54.547 20.88Z" fill="#141C1A"/>
<path d="M69.5379 24.88C69.0792 24.0907 68.7005 23.312 68.4019 22.544C68.1139 21.7867 67.9005 21.0187 67.7619 20.24C67.6339 19.4507 67.5699 18.6347 67.5699 17.792C67.5699 16.9387 67.6339 16.1227 67.7619 15.344C67.9005 14.5653 68.1139 13.7973 68.4019 13.04C68.7005 12.2827 69.0792 11.5093 69.5379 10.72H70.7219C70.1779 11.9253 69.7672 13.1147 69.4899 14.288C69.2125 15.4507 69.0739 16.6187 69.0739 17.792C69.0739 18.9653 69.2125 20.1387 69.4899 21.312C69.7672 22.4853 70.1779 23.6747 70.7219 24.88H69.5379ZM73.1403 22V20.736H75.7803V11.984H76.5323L73.3803 13.936V12.48L76.1963 10.72H77.2683V20.736H79.7483V22H73.1403ZM85.742 22.144C85.2513 22.144 84.766 22.0907 84.286 21.984C83.8167 21.8773 83.374 21.728 82.958 21.536C82.542 21.3333 82.1793 21.088 81.87 20.8L82.398 19.648C82.9207 20.064 83.454 20.3733 83.998 20.576C84.542 20.768 85.1127 20.864 85.71 20.864C86.4993 20.864 87.118 20.656 87.566 20.24C88.014 19.824 88.238 19.2693 88.238 18.576C88.238 17.8613 88.0247 17.2853 87.598 16.848C87.1713 16.4 86.5793 16.176 85.822 16.176C85.2993 16.176 84.8247 16.2827 84.398 16.496C83.982 16.6987 83.614 17.024 83.294 17.472H82.238V10.72H89.006V11.984H83.678V16.256H83.294C83.582 15.8293 83.9713 15.4987 84.462 15.264C84.9633 15.0293 85.5233 14.912 86.142 14.912C86.8673 14.912 87.4913 15.0613 88.014 15.36C88.5473 15.6587 88.958 16.08 89.246 16.624C89.5447 17.1573 89.694 17.7813 89.694 18.496C89.694 19.2107 89.534 19.8453 89.214 20.4C88.894 20.944 88.4353 21.3707 87.838 21.68C87.2513 21.9893 86.5527 22.144 85.742 22.144ZM91.9598 24.88H90.7598C91.3038 23.6747 91.7144 22.4853 91.9918 21.312C92.2798 20.1387 92.4238 18.9653 92.4238 17.792C92.4238 16.6293 92.2798 15.4613 91.9918 14.288C91.7144 13.1147 91.3038 11.9253 90.7598 10.72H91.9598C92.4184 11.5093 92.7918 12.288 93.0798 13.056C93.3784 13.8133 93.5918 14.5813 93.7198 15.36C93.8584 16.1387 93.9278 16.9493 93.9278 17.792C93.9278 18.6453 93.8584 19.4613 93.7198 20.24C93.5918 21.0187 93.3784 21.7867 93.0798 22.544C92.7918 23.312 92.4184 24.0907 91.9598 24.88Z" fill="#8D8D8D"/>
</svg>
