<svg width="207" height="62" viewBox="0 0 207 62" fill="none" xmlns="http://www.w3.org/2000/svg">
<path d="M8 0H198L207 19V40.5L198 62H8L0 40.5V19L8 0Z" fill="#6E978F"/>
<line x1="1" y1="19" x2="1" y2="40" stroke="white" stroke-width="2"/>
<line x1="206" y1="19" x2="206" y2="40" stroke="white" stroke-width="2"/>
<path d="M34.868 31.058C34.868 30.0127 35.0453 29.1167 35.4 28.37C35.764 27.614 36.282 27.0307 36.954 26.62C37.6353 26.2093 38.452 26.004 39.404 26.004C40.328 26.004 41.1307 26.2093 41.812 26.62C42.4933 27.0307 43.016 27.614 43.38 28.37C43.7533 29.1167 43.94 30.008 43.94 31.044C43.94 32.0893 43.7533 32.99 43.38 33.746C43.0067 34.502 42.4793 35.09 41.798 35.51C41.126 35.9207 40.328 36.126 39.404 36.126C38.452 36.126 37.64 35.9207 36.968 35.51C36.296 35.09 35.778 34.502 35.414 33.746C35.05 32.99 34.868 32.094 34.868 31.058ZM36.086 31.058C36.086 32.3273 36.366 33.3213 36.926 34.04C37.486 34.7493 38.312 35.104 39.404 35.104C40.4493 35.104 41.2613 34.7493 41.84 34.04C42.428 33.3213 42.722 32.3273 42.722 31.058C42.722 29.7793 42.4327 28.79 41.854 28.09C41.2753 27.3807 40.4587 27.026 39.404 27.026C38.312 27.026 37.486 27.3807 36.926 28.09C36.366 28.79 36.086 29.7793 36.086 31.058ZM50.3445 36.126C49.3551 36.126 48.5151 35.9207 47.8245 35.51C47.1338 35.0993 46.6018 34.516 46.2285 33.76C45.8645 33.004 45.6825 32.1033 45.6825 31.058C45.6825 30.0127 45.8645 29.1167 46.2285 28.37C46.6018 27.614 47.1338 27.0307 47.8245 26.62C48.5151 26.2093 49.3551 26.004 50.3445 26.004C51.0445 26.004 51.6698 26.1113 52.2205 26.326C52.7711 26.5407 53.2518 26.8533 53.6625 27.264L53.2285 28.188C52.7805 27.796 52.3371 27.5113 51.8985 27.334C51.4598 27.1473 50.9465 27.054 50.3585 27.054C49.2291 27.054 48.3705 27.404 47.7825 28.104C47.1945 28.804 46.9005 29.7887 46.9005 31.058C46.9005 32.3273 47.1945 33.3167 47.7825 34.026C48.3705 34.726 49.2291 35.076 50.3585 35.076C50.9465 35.076 51.4598 34.9873 51.8985 34.81C52.3371 34.6233 52.7805 34.3293 53.2285 33.928L53.6625 34.866C53.2518 35.2673 52.7711 35.58 52.2205 35.804C51.6698 36.0187 51.0445 36.126 50.3445 36.126ZM57.874 36V27.11H54.388V26.13H62.508V27.11H59.036V36H57.874ZM61.8008 36L66.1548 26.13H67.1628L71.5868 36H70.3828L69.1508 33.186L69.6688 33.48H63.6348L64.1948 33.186L62.9908 36H61.8008ZM66.6448 27.46L64.3768 32.78L64.0408 32.528H69.2488L68.9968 32.78L66.6728 27.46H66.6448ZM73.0758 36V26.13H77.0238C78.0691 26.13 78.8764 26.354 79.4458 26.802C80.0151 27.25 80.2998 27.8847 80.2998 28.706C80.2998 29.322 80.1131 29.8353 79.7398 30.246C79.3758 30.6567 78.8671 30.9273 78.2138 31.058V30.862C78.9418 30.946 79.5111 31.198 79.9218 31.618C80.3418 32.0287 80.5518 32.584 80.5518 33.284C80.5518 34.1613 80.2578 34.8333 79.6698 35.3C79.0911 35.7667 78.2698 36 77.2058 36H73.0758ZM74.2098 35.062H77.0938C77.8031 35.062 78.3631 34.9267 78.7738 34.656C79.1938 34.376 79.4038 33.914 79.4038 33.27C79.4038 32.6167 79.1938 32.1547 78.7738 31.884C78.3631 31.604 77.8031 31.464 77.0938 31.464H74.2098V35.062ZM74.2098 30.54H76.8558C77.6211 30.54 78.1951 30.3907 78.5778 30.092C78.9604 29.7933 79.1518 29.364 79.1518 28.804C79.1518 28.2253 78.9604 27.7913 78.5778 27.502C78.1951 27.2033 77.6211 27.054 76.8558 27.054H74.2098V30.54ZM82.5914 36V26.13H83.6694V34.572H83.3474L89.6754 26.13H90.5854V36H89.5074V27.558H89.8154L83.4734 36H82.5914ZM95.4444 36V27.11H91.9584V26.13H100.078V27.11H96.6064V36H95.4444ZM101.5 36V26.13H102.648V30.484H105.742C106.815 30.484 107.641 30.7127 108.22 31.17C108.808 31.6273 109.102 32.3133 109.102 33.228C109.102 34.1333 108.808 34.824 108.22 35.3C107.641 35.7667 106.815 36 105.742 36H101.5ZM102.648 35.062H105.644C106.428 35.062 107.006 34.9127 107.38 34.614C107.762 34.306 107.954 33.844 107.954 33.228C107.954 32.6213 107.762 32.1733 107.38 31.884C107.006 31.5853 106.428 31.436 105.644 31.436H102.648V35.062ZM117.873 36.126C117.014 36.126 116.249 36.014 115.577 35.79C114.914 35.5567 114.373 35.244 113.953 34.852L114.373 33.956C114.83 34.348 115.334 34.642 115.885 34.838C116.435 35.0247 117.079 35.118 117.817 35.118C118.769 35.118 119.464 34.9593 119.903 34.642C120.341 34.3247 120.561 33.858 120.561 33.242C120.561 32.6353 120.365 32.192 119.973 31.912C119.59 31.6227 119.007 31.478 118.223 31.478H115.731V30.526H118.027C118.773 30.526 119.343 30.3813 119.735 30.092C120.127 29.7933 120.323 29.364 120.323 28.804C120.323 28.244 120.113 27.8053 119.693 27.488C119.282 27.1707 118.661 27.012 117.831 27.012C117.215 27.012 116.636 27.1053 116.095 27.292C115.553 27.4693 115.059 27.7493 114.611 28.132L114.177 27.236C114.615 26.8347 115.161 26.5313 115.815 26.326C116.477 26.1113 117.173 26.004 117.901 26.004C119.077 26.004 119.963 26.2467 120.561 26.732C121.167 27.2173 121.471 27.8707 121.471 28.692C121.471 29.2987 121.284 29.812 120.911 30.232C120.547 30.6427 120.047 30.918 119.413 31.058V30.862C120.122 30.946 120.682 31.2027 121.093 31.632C121.503 32.052 121.709 32.6073 121.709 33.298C121.709 33.8767 121.569 34.3807 121.289 34.81C121.009 35.23 120.584 35.5567 120.015 35.79C119.445 36.014 118.731 36.126 117.873 36.126ZM122.654 36L127.008 26.13H128.016L132.44 36H131.236L130.004 33.186L130.522 33.48H124.488L125.048 33.186L123.844 36H122.654ZM127.498 27.46L125.23 32.78L124.894 32.528H130.102L129.85 32.78L127.526 27.46H127.498ZM133.229 36L135.049 32.78C135.283 32.3693 135.539 32.0707 135.819 31.884C136.099 31.6973 136.431 31.604 136.813 31.604H137.163L137.093 31.786C136.02 31.786 135.185 31.5387 134.587 31.044C133.99 30.5493 133.691 29.8587 133.691 28.972C133.691 28.0573 133.981 27.3573 134.559 26.872C135.147 26.3773 135.983 26.13 137.065 26.13H141.097V36H139.949V31.828H138.171C137.695 31.828 137.317 31.898 137.037 32.038C136.757 32.1687 136.505 32.4393 136.281 32.85L134.517 36H133.229ZM137.233 30.918H139.949V27.068H137.233C135.628 27.068 134.825 27.7073 134.825 28.986C134.825 30.274 135.628 30.918 137.233 30.918ZM143.568 36V26.13H147.516C148.561 26.13 149.369 26.354 149.938 26.802C150.507 27.25 150.792 27.8847 150.792 28.706C150.792 29.322 150.605 29.8353 150.232 30.246C149.868 30.6567 149.359 30.9273 148.706 31.058V30.862C149.434 30.946 150.003 31.198 150.414 31.618C150.834 32.0287 151.044 32.584 151.044 33.284C151.044 34.1613 150.75 34.8333 150.162 35.3C149.583 35.7667 148.762 36 147.698 36H143.568ZM144.702 35.062H147.586C148.295 35.062 148.855 34.9267 149.266 34.656C149.686 34.376 149.896 33.914 149.896 33.27C149.896 32.6167 149.686 32.1547 149.266 31.884C148.855 31.604 148.295 31.464 147.586 31.464H144.702V35.062ZM144.702 30.54H147.348C148.113 30.54 148.687 30.3907 149.07 30.092C149.453 29.7933 149.644 29.364 149.644 28.804C149.644 28.2253 149.453 27.7913 149.07 27.502C148.687 27.2033 148.113 27.054 147.348 27.054H144.702V30.54ZM153.084 36V26.13H154.218V30.526H156.234L155.884 30.75L159.048 26.13H160.35L157.004 30.946L156.584 30.582C157.181 30.6473 157.685 30.848 158.096 31.184C158.506 31.5107 158.866 31.9727 159.174 32.57L160.896 36H159.636L158.222 33.102C157.951 32.5233 157.629 32.1127 157.256 31.87C156.892 31.6273 156.439 31.506 155.898 31.506H154.218V36H153.084ZM163.909 36L165.617 32.794L165.631 33.242L161.039 26.13H162.299L166.205 32.206H165.953L169.173 26.13H170.377L165.127 36H163.909Z" fill="white"/>
</svg>
