<svg width="208" height="62" viewBox="0 0 208 62" fill="none" xmlns="http://www.w3.org/2000/svg">
<path d="M8.83838 0H198.838L207.838 19V40.5L198.838 62H8.83838L0.838379 40.5V19L8.83838 0Z" fill="#6E978F"/>
<line x1="1.83838" y1="19" x2="1.83838" y2="40" stroke="white" stroke-width="2"/>
<line x1="206.838" y1="19" x2="206.838" y2="40" stroke="white" stroke-width="2"/>
<path d="M35.7064 31.058C35.7064 30.0127 35.8837 29.1167 36.2384 28.37C36.6024 27.614 37.1204 27.0307 37.7924 26.62C38.4737 26.2093 39.2904 26.004 40.2424 26.004C41.1664 26.004 41.969 26.2093 42.6504 26.62C43.3317 27.0307 43.8544 27.614 44.2184 28.37C44.5917 29.1167 44.7784 30.008 44.7784 31.044C44.7784 32.0893 44.5917 32.99 44.2184 33.746C43.845 34.502 43.3177 35.09 42.6364 35.51C41.9644 35.9207 41.1664 36.126 40.2424 36.126C39.2904 36.126 38.4784 35.9207 37.8064 35.51C37.1344 35.09 36.6164 34.502 36.2524 33.746C35.8884 32.99 35.7064 32.094 35.7064 31.058ZM36.9244 31.058C36.9244 32.3273 37.2044 33.3213 37.7644 34.04C38.3244 34.7493 39.1504 35.104 40.2424 35.104C41.2877 35.104 42.0997 34.7493 42.6784 34.04C43.2664 33.3213 43.5604 32.3273 43.5604 31.058C43.5604 29.7793 43.271 28.79 42.6924 28.09C42.1137 27.3807 41.297 27.026 40.2424 27.026C39.1504 27.026 38.3244 27.3807 37.7644 28.09C37.2044 28.79 36.9244 29.7793 36.9244 31.058ZM51.1828 36.126C50.1935 36.126 49.3535 35.9207 48.6628 35.51C47.9722 35.0993 47.4402 34.516 47.0668 33.76C46.7028 33.004 46.5208 32.1033 46.5208 31.058C46.5208 30.0127 46.7028 29.1167 47.0668 28.37C47.4402 27.614 47.9722 27.0307 48.6628 26.62C49.3535 26.2093 50.1935 26.004 51.1828 26.004C51.8828 26.004 52.5082 26.1113 53.0588 26.326C53.6095 26.5407 54.0902 26.8533 54.5008 27.264L54.0668 28.188C53.6188 27.796 53.1755 27.5113 52.7368 27.334C52.2982 27.1473 51.7848 27.054 51.1968 27.054C50.0675 27.054 49.2088 27.404 48.6208 28.104C48.0328 28.804 47.7388 29.7887 47.7388 31.058C47.7388 32.3273 48.0328 33.3167 48.6208 34.026C49.2088 34.726 50.0675 35.076 51.1968 35.076C51.7848 35.076 52.2982 34.9873 52.7368 34.81C53.1755 34.6233 53.6188 34.3293 54.0668 33.928L54.5008 34.866C54.0902 35.2673 53.6095 35.58 53.0588 35.804C52.5082 36.0187 51.8828 36.126 51.1828 36.126ZM58.7124 36V27.11H55.2264V26.13H63.3464V27.11H59.8744V36H58.7124ZM62.6392 36L66.9932 26.13H68.0012L72.4252 36H71.2212L69.9892 33.186L70.5072 33.48H64.4732L65.0332 33.186L63.8292 36H62.6392ZM67.4832 27.46L65.2152 32.78L64.8792 32.528H70.0872L69.8352 32.78L67.5112 27.46H67.4832ZM73.9141 36V26.13H77.8621C78.9075 26.13 79.7148 26.354 80.2841 26.802C80.8535 27.25 81.1381 27.8847 81.1381 28.706C81.1381 29.322 80.9515 29.8353 80.5781 30.246C80.2141 30.6567 79.7055 30.9273 79.0521 31.058V30.862C79.7801 30.946 80.3495 31.198 80.7601 31.618C81.1801 32.0287 81.3901 32.584 81.3901 33.284C81.3901 34.1613 81.0961 34.8333 80.5081 35.3C79.9295 35.7667 79.1081 36 78.0441 36H73.9141ZM75.0481 35.062H77.9321C78.6415 35.062 79.2015 34.9267 79.6121 34.656C80.0321 34.376 80.2421 33.914 80.2421 33.27C80.2421 32.6167 80.0321 32.1547 79.6121 31.884C79.2015 31.604 78.6415 31.464 77.9321 31.464H75.0481V35.062ZM75.0481 30.54H77.6941C78.4595 30.54 79.0335 30.3907 79.4161 30.092C79.7988 29.7933 79.9901 29.364 79.9901 28.804C79.9901 28.2253 79.7988 27.7913 79.4161 27.502C79.0335 27.2033 78.4595 27.054 77.6941 27.054H75.0481V30.54ZM83.4298 36V26.13H84.5078V34.572H84.1858L90.5138 26.13H91.4238V36H90.3458V27.558H90.6538L84.3118 36H83.4298ZM96.2827 36V27.11H92.7967V26.13H100.917V27.11H97.4447V36H96.2827ZM102.338 36V26.13H103.486V30.484H106.58C107.653 30.484 108.479 30.7127 109.058 31.17C109.646 31.6273 109.94 32.3133 109.94 33.228C109.94 34.1333 109.646 34.824 109.058 35.3C108.479 35.7667 107.653 36 106.58 36H102.338ZM103.486 35.062H106.482C107.266 35.062 107.845 34.9127 108.218 34.614C108.601 34.306 108.792 33.844 108.792 33.228C108.792 32.6213 108.601 32.1733 108.218 31.884C107.845 31.5853 107.266 31.436 106.482 31.436H103.486V35.062ZM118.711 36.126C117.852 36.126 117.087 36.014 116.415 35.79C115.752 35.5567 115.211 35.244 114.791 34.852L115.211 33.956C115.668 34.348 116.172 34.642 116.723 34.838C117.274 35.0247 117.918 35.118 118.655 35.118C119.607 35.118 120.302 34.9593 120.741 34.642C121.18 34.3247 121.399 33.858 121.399 33.242C121.399 32.6353 121.203 32.192 120.811 31.912C120.428 31.6227 119.845 31.478 119.061 31.478H116.569V30.526H118.865C119.612 30.526 120.181 30.3813 120.573 30.092C120.965 29.7933 121.161 29.364 121.161 28.804C121.161 28.244 120.951 27.8053 120.531 27.488C120.12 27.1707 119.5 27.012 118.669 27.012C118.053 27.012 117.474 27.1053 116.933 27.292C116.392 27.4693 115.897 27.7493 115.449 28.132L115.015 27.236C115.454 26.8347 116 26.5313 116.653 26.326C117.316 26.1113 118.011 26.004 118.739 26.004C119.915 26.004 120.802 26.2467 121.399 26.732C122.006 27.2173 122.309 27.8707 122.309 28.692C122.309 29.2987 122.122 29.812 121.749 30.232C121.385 30.6427 120.886 30.918 120.251 31.058V30.862C120.96 30.946 121.52 31.2027 121.931 31.632C122.342 32.052 122.547 32.6073 122.547 33.298C122.547 33.8767 122.407 34.3807 122.127 34.81C121.847 35.23 121.422 35.5567 120.853 35.79C120.284 36.014 119.57 36.126 118.711 36.126ZM123.493 36L127.847 26.13H128.855L133.279 36H132.075L130.843 33.186L131.361 33.48H125.327L125.887 33.186L124.683 36H123.493ZM128.337 27.46L126.069 32.78L125.733 32.528H130.941L130.689 32.78L128.365 27.46H128.337ZM134.068 36L135.888 32.78C136.121 32.3693 136.378 32.0707 136.658 31.884C136.938 31.6973 137.269 31.604 137.652 31.604H138.002L137.932 31.786C136.858 31.786 136.023 31.5387 135.426 31.044C134.828 30.5493 134.53 29.8587 134.53 28.972C134.53 28.0573 134.819 27.3573 135.398 26.872C135.986 26.3773 136.821 26.13 137.904 26.13H141.936V36H140.788V31.828H139.01C138.534 31.828 138.156 31.898 137.876 32.038C137.596 32.1687 137.344 32.4393 137.12 32.85L135.356 36H134.068ZM138.072 30.918H140.788V27.068H138.072C136.466 27.068 135.664 27.7073 135.664 28.986C135.664 30.274 136.466 30.918 138.072 30.918ZM144.406 36V26.13H148.354C149.4 26.13 150.207 26.354 150.776 26.802C151.346 27.25 151.63 27.8847 151.63 28.706C151.63 29.322 151.444 29.8353 151.07 30.246C150.706 30.6567 150.198 30.9273 149.544 31.058V30.862C150.272 30.946 150.842 31.198 151.252 31.618C151.672 32.0287 151.882 32.584 151.882 33.284C151.882 34.1613 151.588 34.8333 151 35.3C150.422 35.7667 149.6 36 148.536 36H144.406ZM145.54 35.062H148.424C149.134 35.062 149.694 34.9267 150.104 34.656C150.524 34.376 150.734 33.914 150.734 33.27C150.734 32.6167 150.524 32.1547 150.104 31.884C149.694 31.604 149.134 31.464 148.424 31.464H145.54V35.062ZM145.54 30.54H148.186C148.952 30.54 149.526 30.3907 149.908 30.092C150.291 29.7933 150.482 29.364 150.482 28.804C150.482 28.2253 150.291 27.7913 149.908 27.502C149.526 27.2033 148.952 27.054 148.186 27.054H145.54V30.54ZM153.922 36V26.13H155.056V30.526H157.072L156.722 30.75L159.886 26.13H161.188L157.842 30.946L157.422 30.582C158.019 30.6473 158.523 30.848 158.934 31.184C159.345 31.5107 159.704 31.9727 160.012 32.57L161.734 36H160.474L159.06 33.102C158.789 32.5233 158.467 32.1127 158.094 31.87C157.73 31.6273 157.277 31.506 156.736 31.506H155.056V36H153.922ZM164.747 36L166.455 32.794L166.469 33.242L161.877 26.13H163.137L167.043 32.206H166.791L170.011 26.13H171.215L165.965 36H164.747Z" fill="white"/>
</svg>
