<svg width="207" height="62" viewBox="0 0 207 62" fill="none" xmlns="http://www.w3.org/2000/svg">
<path d="M0.5 19.101L8.33199 0.5H197.684L206.5 19.1124V40.3996L197.667 61.5H8.34744L0.5 40.41V19.101Z" stroke="#DBDBDB"/>
<line x1="1" y1="19" x2="1" y2="40" stroke="#6E978F" stroke-width="2"/>
<line x1="206" y1="19" x2="206" y2="40" stroke="#6E978F" stroke-width="2"/>
<path d="M60.232 36V26.13H68.492V36H67.33V27.11H61.366V36H60.232ZM70.5731 31.058C70.5731 30.0127 70.7504 29.1167 71.1051 28.37C71.4691 27.614 71.9871 27.0307 72.6591 26.62C73.3404 26.2093 74.1571 26.004 75.1091 26.004C76.0331 26.004 76.8357 26.2093 77.5171 26.62C78.1984 27.0307 78.7211 27.614 79.0851 28.37C79.4584 29.1167 79.6451 30.008 79.6451 31.044C79.6451 32.0893 79.4584 32.99 79.0851 33.746C78.7117 34.502 78.1844 35.09 77.5031 35.51C76.8311 35.9207 76.0331 36.126 75.1091 36.126C74.1571 36.126 73.3451 35.9207 72.6731 35.51C72.0011 35.09 71.4831 34.502 71.1191 33.746C70.7551 32.99 70.5731 32.094 70.5731 31.058ZM71.7911 31.058C71.7911 32.3273 72.0711 33.3213 72.6311 34.04C73.1911 34.7493 74.0171 35.104 75.1091 35.104C76.1544 35.104 76.9664 34.7493 77.5451 34.04C78.1331 33.3213 78.4271 32.3273 78.4271 31.058C78.4271 29.7793 78.1377 28.79 77.5591 28.09C76.9804 27.3807 76.1637 27.026 75.1091 27.026C74.0171 27.026 73.1911 27.3807 72.6311 28.09C72.0711 28.79 71.7911 29.7793 71.7911 31.058ZM80.4841 38.198V35.048H81.4921C81.9961 34.432 82.3694 33.606 82.6121 32.57C82.8548 31.5247 82.9761 30.2273 82.9761 28.678V26.13H89.7101V35.048H91.1521V38.198H90.1161V36H81.5201V38.198H80.4841ZM82.6821 35.048H88.5481V27.082H84.0541V28.762C84.0541 30.2647 83.9421 31.5247 83.7181 32.542C83.4941 33.55 83.1488 34.3853 82.6821 35.048ZM92.7027 36V26.13H96.7207C97.7567 26.13 98.5547 26.382 99.1147 26.886C99.6747 27.3807 99.9547 28.0713 99.9547 28.958C99.9547 29.826 99.6747 30.5167 99.1147 31.03C98.5547 31.534 97.7567 31.786 96.7207 31.786H93.8647V36H92.7027ZM93.8647 30.82H96.6087C97.3274 30.82 97.8687 30.6567 98.2327 30.33C98.606 30.0033 98.7927 29.546 98.7927 28.958C98.7927 28.3607 98.606 27.8987 98.2327 27.572C97.8687 27.2453 97.3274 27.082 96.6087 27.082H93.8647V30.82ZM101.321 31.058C101.321 30.0127 101.498 29.1167 101.853 28.37C102.217 27.614 102.735 27.0307 103.407 26.62C104.088 26.2093 104.905 26.004 105.857 26.004C106.781 26.004 107.584 26.2093 108.265 26.62C108.946 27.0307 109.469 27.614 109.833 28.37C110.206 29.1167 110.393 30.008 110.393 31.044C110.393 32.0893 110.206 32.99 109.833 33.746C109.46 34.502 108.932 35.09 108.251 35.51C107.579 35.9207 106.781 36.126 105.857 36.126C104.905 36.126 104.093 35.9207 103.421 35.51C102.749 35.09 102.231 34.502 101.867 33.746C101.503 32.99 101.321 32.094 101.321 31.058ZM102.539 31.058C102.539 32.3273 102.819 33.3213 103.379 34.04C103.939 34.7493 104.765 35.104 105.857 35.104C106.902 35.104 107.714 34.7493 108.293 34.04C108.881 33.3213 109.175 32.3273 109.175 31.058C109.175 29.7793 108.886 28.79 108.307 28.09C107.728 27.3807 106.912 27.026 105.857 27.026C104.765 27.026 103.939 27.3807 103.379 28.09C102.819 28.79 102.539 29.7793 102.539 31.058ZM112.5 36V26.13H119.136V27.082H113.62V30.484H116.742C117.815 30.484 118.641 30.7127 119.22 31.17C119.808 31.6273 120.102 32.3133 120.102 33.228C120.102 34.1333 119.808 34.824 119.22 35.3C118.641 35.7667 117.815 36 116.742 36H112.5ZM113.62 35.062H116.644C117.428 35.062 118.006 34.9127 118.38 34.614C118.762 34.306 118.954 33.844 118.954 33.228C118.954 32.6213 118.762 32.1733 118.38 31.884C118.006 31.5853 117.428 31.436 116.644 31.436H113.62V35.062ZM121.974 36V26.13H123.136V30.498H129.086V26.13H130.234V36H129.086V31.492H123.136V36H121.974ZM132.693 36V26.13H138.993V27.082H133.827V30.512H138.685V31.478H133.827V35.034H138.993V36H132.693ZM140.923 36V26.13H147.223V27.082H142.057V30.512H146.915V31.478H142.057V35.034H147.223V36H140.923Z" fill="#141C1A"/>
</svg>
