<svg width="229" height="62" viewBox="0 0 229 62" fill="none" xmlns="http://www.w3.org/2000/svg">
<path d="M0.5 19.1107L9.16892 0.5H218.741L228.5 19.1231V40.3899L218.724 61.5H9.18513L0.5 40.4011V19.1107Z" stroke="#DBDBDB"/>
<line x1="1" y1="19" x2="1" y2="40" stroke="#6E978F" stroke-width="2"/>
<line x1="227.787" y1="19" x2="227.787" y2="40" stroke="#6E978F" stroke-width="2"/>
<path d="M24.232 36V26.13H28.25C29.286 26.13 30.084 26.382 30.644 26.886C31.204 27.3807 31.484 28.0713 31.484 28.958C31.484 29.826 31.204 30.5167 30.644 31.03C30.084 31.534 29.286 31.786 28.25 31.786H25.394V36H24.232ZM25.394 30.82H28.138C28.8567 30.82 29.398 30.6567 29.762 30.33C30.1353 30.0033 30.322 29.546 30.322 28.958C30.322 28.3607 30.1353 27.8987 29.762 27.572C29.398 27.2453 28.8567 27.082 28.138 27.082H25.394V30.82ZM31.3184 36L35.6724 26.13H36.6804L41.1044 36H39.9004L38.6684 33.186L39.1864 33.48H33.1524L33.7124 33.186L32.5084 36H31.3184ZM36.1624 27.46L33.8944 32.78L33.5584 32.528H38.7664L38.5144 32.78L36.1904 27.46H36.1624ZM46.5495 36.126C45.5602 36.126 44.7202 35.9207 44.0295 35.51C43.3389 35.0993 42.8069 34.516 42.4335 33.76C42.0695 33.004 41.8875 32.1033 41.8875 31.058C41.8875 30.0127 42.0695 29.1167 42.4335 28.37C42.8069 27.614 43.3389 27.0307 44.0295 26.62C44.7202 26.2093 45.5602 26.004 46.5495 26.004C47.2495 26.004 47.8749 26.1113 48.4255 26.326C48.9762 26.5407 49.4569 26.8533 49.8675 27.264L49.4335 28.188C48.9855 27.796 48.5422 27.5113 48.1035 27.334C47.6649 27.1473 47.1515 27.054 46.5635 27.054C45.4342 27.054 44.5755 27.404 43.9875 28.104C43.3995 28.804 43.1055 29.7887 43.1055 31.058C43.1055 32.3273 43.3995 33.3167 43.9875 34.026C44.5755 34.726 45.4342 35.076 46.5635 35.076C47.1515 35.076 47.6649 34.9873 48.1035 34.81C48.5422 34.6233 48.9855 34.3293 49.4335 33.928L49.8675 34.866C49.4569 35.2673 48.9762 35.58 48.4255 35.804C47.8749 36.0187 47.2495 36.126 46.5495 36.126ZM55.9695 36.126C54.9801 36.126 54.1401 35.9207 53.4495 35.51C52.7588 35.0993 52.2268 34.516 51.8535 33.76C51.4895 33.004 51.3075 32.1033 51.3075 31.058C51.3075 30.0127 51.4895 29.1167 51.8535 28.37C52.2268 27.614 52.7588 27.0307 53.4495 26.62C54.1401 26.2093 54.9801 26.004 55.9695 26.004C56.6695 26.004 57.2948 26.1113 57.8455 26.326C58.3961 26.5407 58.8768 26.8533 59.2875 27.264L58.8535 28.188C58.4055 27.796 57.9621 27.5113 57.5235 27.334C57.0848 27.1473 56.5715 27.054 55.9835 27.054C54.8541 27.054 53.9955 27.404 53.4075 28.104C52.8195 28.804 52.5255 29.7887 52.5255 31.058C52.5255 32.3273 52.8195 33.3167 53.4075 34.026C53.9955 34.726 54.8541 35.076 55.9835 35.076C56.5715 35.076 57.0848 34.9873 57.5235 34.81C57.9621 34.6233 58.4055 34.3293 58.8535 33.928L59.2875 34.866C58.8768 35.2673 58.3961 35.58 57.8455 35.804C57.2948 36.0187 56.6695 36.126 55.9695 36.126ZM67.3178 36V31.828C67.0098 31.9867 66.6271 32.1127 66.1698 32.206C65.7124 32.29 65.2504 32.332 64.7838 32.332C63.4958 32.332 62.5111 31.996 61.8298 31.324C61.1578 30.652 60.8218 29.6487 60.8218 28.314V26.13H61.9698V28.23C61.9698 29.294 62.2124 30.0733 62.6978 30.568C63.1831 31.0627 63.9111 31.31 64.8818 31.31C65.3204 31.31 65.7451 31.268 66.1558 31.184C66.5664 31.0907 66.9538 30.9507 67.3178 30.764V26.13H68.4658V36H67.3178ZM70.9351 36V26.13H72.0131V34.572H71.6911L78.0191 26.13H78.9291V36H77.8511V27.558H78.1591L71.8171 36H70.9351ZM83.7881 36V27.11H80.3021V26.13H88.4221V27.11H84.9501V36H83.7881ZM87.7149 36L92.0689 26.13H93.0769L97.5009 36H96.2969L95.0649 33.186L95.5829 33.48H89.5489L90.1089 33.186L88.9049 36H87.7149ZM92.5589 27.46L90.2909 32.78L89.9549 32.528H95.1629L94.9109 32.78L92.5869 27.46H92.5589ZM100.235 36V27.11H96.7494V26.13H104.869V27.11H101.397V36H100.235ZM106.291 36V26.13H107.439V30.484H110.533C111.606 30.484 112.432 30.7127 113.011 31.17C113.599 31.6273 113.893 32.3133 113.893 33.228C113.893 34.1333 113.599 34.824 113.011 35.3C112.432 35.7667 111.606 36 110.533 36H106.291ZM107.439 35.062H110.435C111.219 35.062 111.797 34.9127 112.171 34.614C112.553 34.306 112.745 33.844 112.745 33.228C112.745 32.6213 112.553 32.1733 112.171 31.884C111.797 31.5853 111.219 31.436 110.435 31.436H107.439V35.062ZM123.714 36.126C122.724 36.126 121.884 35.9207 121.194 35.51C120.503 35.0993 119.971 34.516 119.598 33.76C119.234 33.004 119.052 32.1033 119.052 31.058C119.052 30.0127 119.234 29.1167 119.598 28.37C119.971 27.614 120.503 27.0307 121.194 26.62C121.884 26.2093 122.724 26.004 123.714 26.004C124.414 26.004 125.039 26.1113 125.59 26.326C126.14 26.5407 126.621 26.8533 127.032 27.264L126.598 28.188C126.15 27.796 125.706 27.5113 125.268 27.334C124.829 27.1473 124.316 27.054 123.728 27.054C122.598 27.054 121.74 27.404 121.152 28.104C120.564 28.804 120.27 29.7887 120.27 31.058C120.27 32.3273 120.564 33.3167 121.152 34.026C121.74 34.726 122.598 35.076 123.728 35.076C124.316 35.076 124.829 34.9873 125.268 34.81C125.706 34.6233 126.15 34.3293 126.598 33.928L127.032 34.866C126.621 35.2673 126.14 35.58 125.59 35.804C125.039 36.0187 124.414 36.126 123.714 36.126ZM131.243 36V27.11H127.757V26.13H135.877V27.11H132.405V36H131.243ZM136.347 31.058C136.347 30.0127 136.524 29.1167 136.879 28.37C137.243 27.614 137.761 27.0307 138.433 26.62C139.114 26.2093 139.931 26.004 140.883 26.004C141.807 26.004 142.609 26.2093 143.291 26.62C143.972 27.0307 144.495 27.614 144.859 28.37C145.232 29.1167 145.419 30.008 145.419 31.044C145.419 32.0893 145.232 32.99 144.859 33.746C144.485 34.502 143.958 35.09 143.277 35.51C142.605 35.9207 141.807 36.126 140.883 36.126C139.931 36.126 139.119 35.9207 138.447 35.51C137.775 35.09 137.257 34.502 136.893 33.746C136.529 32.99 136.347 32.094 136.347 31.058ZM137.565 31.058C137.565 32.3273 137.845 33.3213 138.405 34.04C138.965 34.7493 139.791 35.104 140.883 35.104C141.928 35.104 142.74 34.7493 143.319 34.04C143.907 33.3213 144.201 32.3273 144.201 31.058C144.201 29.7793 143.911 28.79 143.333 28.09C142.754 27.3807 141.937 27.026 140.883 27.026C139.791 27.026 138.965 27.3807 138.405 28.09C137.845 28.79 137.565 29.7793 137.565 31.058ZM147.525 36V26.13H148.603V34.572H148.281L154.609 26.13H155.519V36H154.441V27.558H154.749L148.407 36H147.525ZM157.998 36V26.13H159.006L162.968 35.076H162.562L166.524 26.13H167.532V36H166.468V27.628H166.888L163.15 36H162.38L158.628 27.628H159.048V36H157.998ZM169.638 31.058C169.638 30.0127 169.815 29.1167 170.17 28.37C170.534 27.614 171.052 27.0307 171.724 26.62C172.405 26.2093 173.222 26.004 174.174 26.004C175.098 26.004 175.9 26.2093 176.582 26.62C177.263 27.0307 177.786 27.614 178.15 28.37C178.523 29.1167 178.71 30.008 178.71 31.044C178.71 32.0893 178.523 32.99 178.15 33.746C177.776 34.502 177.249 35.09 176.568 35.51C175.896 35.9207 175.098 36.126 174.174 36.126C173.222 36.126 172.41 35.9207 171.738 35.51C171.066 35.09 170.548 34.502 170.184 33.746C169.82 32.99 169.638 32.094 169.638 31.058ZM170.856 31.058C170.856 32.3273 171.136 33.3213 171.696 34.04C172.256 34.7493 173.082 35.104 174.174 35.104C175.219 35.104 176.031 34.7493 176.61 34.04C177.198 33.3213 177.492 32.3273 177.492 31.058C177.492 29.7793 177.202 28.79 176.624 28.09C176.045 27.3807 175.228 27.026 174.174 27.026C173.082 27.026 172.256 27.3807 171.696 28.09C171.136 28.79 170.856 29.7793 170.856 31.058ZM185.114 36.126C184.125 36.126 183.285 35.9207 182.594 35.51C181.903 35.0993 181.371 34.516 180.998 33.76C180.634 33.004 180.452 32.1033 180.452 31.058C180.452 30.0127 180.634 29.1167 180.998 28.37C181.371 27.614 181.903 27.0307 182.594 26.62C183.285 26.2093 184.125 26.004 185.114 26.004C185.814 26.004 186.439 26.1113 186.99 26.326C187.541 26.5407 188.021 26.8533 188.432 27.264L187.998 28.188C187.55 27.796 187.107 27.5113 186.668 27.334C186.229 27.1473 185.716 27.054 185.128 27.054C183.999 27.054 183.14 27.404 182.552 28.104C181.964 28.804 181.67 29.7887 181.67 31.058C181.67 32.3273 181.964 33.3167 182.552 34.026C183.14 34.726 183.999 35.076 185.128 35.076C185.716 35.076 186.229 34.9873 186.668 34.81C187.107 34.6233 187.55 34.3293 187.998 33.928L188.432 34.866C188.021 35.2673 187.541 35.58 186.99 35.804C186.439 36.0187 185.814 36.126 185.114 36.126ZM192.644 36V27.11H189.158V26.13H197.278V27.11H193.806V36H192.644ZM198.699 36V26.13H199.847V30.484H202.941C204.014 30.484 204.84 30.7127 205.419 31.17C206.007 31.6273 206.301 32.3133 206.301 33.228C206.301 34.1333 206.007 34.824 205.419 35.3C204.84 35.7667 204.014 36 202.941 36H198.699ZM199.847 35.062H202.843C203.627 35.062 204.205 34.9127 204.579 34.614C204.961 34.306 205.153 33.844 205.153 33.228C205.153 32.6213 204.961 32.1733 204.579 31.884C204.205 31.5853 203.627 31.436 202.843 31.436H199.847V35.062Z" fill="#141C1A"/>
</svg>
