<svg width="229" height="62" viewBox="0 0 229 62" fill="none" xmlns="http://www.w3.org/2000/svg">
<path d="M8.85024 0H219.043L229 19V40.5L219.043 62H8.85024L0 40.5V19L8.85024 0Z" fill="#6E978F"/>
<line x1="1" y1="19" x2="1" y2="40" stroke="white" stroke-width="2"/>
<line x1="227.787" y1="19" x2="227.787" y2="40" stroke="white" stroke-width="2"/>
<path d="M57.3472 36.126C56.4885 36.126 55.7232 36.014 55.0512 35.79C54.3885 35.5567 53.8472 35.244 53.4272 34.852L53.8472 33.956C54.3045 34.348 54.8085 34.642 55.3592 34.838C55.9099 35.0247 56.5539 35.118 57.2912 35.118C58.2432 35.118 58.9385 34.9593 59.3772 34.642C59.8159 34.3247 60.0352 33.858 60.0352 33.242C60.0352 32.6353 59.8392 32.192 59.4472 31.912C59.0645 31.6227 58.4812 31.478 57.6972 31.478H55.2052V30.526H57.5012C58.2479 30.526 58.8172 30.3813 59.2092 30.092C59.6012 29.7933 59.7972 29.364 59.7972 28.804C59.7972 28.244 59.5872 27.8053 59.1672 27.488C58.7565 27.1707 58.1359 27.012 57.3052 27.012C56.6892 27.012 56.1105 27.1053 55.5692 27.292C55.0279 27.4693 54.5332 27.7493 54.0852 28.132L53.6512 27.236C54.0899 26.8347 54.6359 26.5313 55.2892 26.326C55.9519 26.1113 56.6472 26.004 57.3752 26.004C58.5512 26.004 59.4379 26.2467 60.0352 26.732C60.6419 27.2173 60.9452 27.8707 60.9452 28.692C60.9452 29.2987 60.7585 29.812 60.3852 30.232C60.0212 30.6427 59.5219 30.918 58.8872 31.058V30.862C59.5965 30.946 60.1565 31.2027 60.5672 31.632C60.9779 32.052 61.1832 32.6073 61.1832 33.298C61.1832 33.8767 61.0432 34.3807 60.7632 34.81C60.4832 35.23 60.0585 35.5567 59.4892 35.79C58.9199 36.014 58.2059 36.126 57.3472 36.126ZM62.129 36L66.483 26.13H67.491L71.915 36H70.711L69.479 33.186L69.997 33.48H63.963L64.523 33.186L63.319 36H62.129ZM66.973 27.46L64.705 32.78L64.369 32.528H69.577L69.325 32.78L67.001 27.46H66.973ZM73.4039 36V26.13H74.5379V30.526H76.5539L76.2039 30.75L79.3679 26.13H80.6699L77.3239 30.946L76.9039 30.582C77.5012 30.6473 78.0052 30.848 78.4159 31.184C78.8265 31.5107 79.1859 31.9727 79.4939 32.57L81.2159 36H79.9559L78.5419 33.102C78.2712 32.5233 77.9492 32.1127 77.5759 31.87C77.2119 31.6273 76.7592 31.506 76.2179 31.506H74.5379V36H73.4039ZM81.379 36L85.733 26.13H86.741L91.165 36H89.961L88.729 33.186L89.247 33.48H83.213L83.773 33.186L82.569 36H81.379ZM86.223 27.46L83.955 32.78L83.619 32.528H88.827L88.575 32.78L86.251 27.46H86.223ZM95.9019 36.126C95.0432 36.126 94.2779 36.014 93.6059 35.79C92.9432 35.5567 92.4019 35.244 91.9819 34.852L92.4019 33.956C92.8592 34.348 93.3632 34.642 93.9139 34.838C94.4645 35.0247 95.1085 35.118 95.8459 35.118C96.7979 35.118 97.4932 34.9593 97.9319 34.642C98.3705 34.3247 98.5899 33.858 98.5899 33.242C98.5899 32.6353 98.3939 32.192 98.0019 31.912C97.6192 31.6227 97.0359 31.478 96.2519 31.478H93.7599V30.526H96.0559C96.8025 30.526 97.3719 30.3813 97.7639 30.092C98.1559 29.7933 98.3519 29.364 98.3519 28.804C98.3519 28.244 98.1419 27.8053 97.7219 27.488C97.3112 27.1707 96.6905 27.012 95.8599 27.012C95.2439 27.012 94.6652 27.1053 94.1239 27.292C93.5825 27.4693 93.0879 27.7493 92.6399 28.132L92.2059 27.236C92.6445 26.8347 93.1905 26.5313 93.8439 26.326C94.5065 26.1113 95.2019 26.004 95.9299 26.004C97.1059 26.004 97.9925 26.2467 98.5899 26.732C99.1965 27.2173 99.4999 27.8707 99.4999 28.692C99.4999 29.2987 99.3132 29.812 98.9399 30.232C98.5759 30.6427 98.0765 30.918 97.4419 31.058V30.862C98.1512 30.946 98.7112 31.2027 99.1219 31.632C99.5325 32.052 99.7379 32.6073 99.7379 33.298C99.7379 33.8767 99.5979 34.3807 99.3179 34.81C99.0379 35.23 98.6132 35.5567 98.0439 35.79C97.4745 36.014 96.7605 36.126 95.9019 36.126ZM100.684 36L105.038 26.13H106.046L110.47 36H109.266L108.034 33.186L108.552 33.48H102.518L103.078 33.186L101.874 36H100.684ZM105.528 27.46L103.26 32.78L102.924 32.528H108.132L107.88 32.78L105.556 27.46H105.528ZM113.204 36V27.11H109.718V26.13H117.838V27.11H114.366V36H113.204ZM119.259 36V26.13H120.407V30.484H123.501C124.575 30.484 125.401 30.7127 125.979 31.17C126.567 31.6273 126.861 32.3133 126.861 33.228C126.861 34.1333 126.567 34.824 125.979 35.3C125.401 35.7667 124.575 36 123.501 36H119.259ZM120.407 35.062H123.403C124.187 35.062 124.766 34.9127 125.139 34.614C125.522 34.306 125.713 33.844 125.713 33.228C125.713 32.6213 125.522 32.1733 125.139 31.884C124.766 31.5853 124.187 31.436 123.403 31.436H120.407V35.062ZM132.384 36V26.13H136.402C137.438 26.13 138.236 26.382 138.796 26.886C139.356 27.3807 139.636 28.0713 139.636 28.958C139.636 29.826 139.356 30.5167 138.796 31.03C138.236 31.534 137.438 31.786 136.402 31.786H133.546V36H132.384ZM133.546 30.82H136.29C137.009 30.82 137.55 30.6567 137.914 30.33C138.288 30.0033 138.474 29.546 138.474 28.958C138.474 28.3607 138.288 27.8987 137.914 27.572C137.55 27.2453 137.009 27.082 136.29 27.082H133.546V30.82ZM141.503 36V26.13H147.803V27.082H142.637V30.512H147.495V31.478H142.637V35.034H147.803V36H141.503ZM152.982 36.126C152.123 36.126 151.358 36.014 150.686 35.79C150.023 35.5567 149.482 35.244 149.062 34.852L149.482 33.956C149.939 34.348 150.443 34.642 150.994 34.838C151.545 35.0247 152.189 35.118 152.926 35.118C153.878 35.118 154.573 34.9593 155.012 34.642C155.451 34.3247 155.67 33.858 155.67 33.242C155.67 32.6353 155.474 32.192 155.082 31.912C154.699 31.6227 154.116 31.478 153.332 31.478H150.84V30.526H153.136C153.883 30.526 154.452 30.3813 154.844 30.092C155.236 29.7933 155.432 29.364 155.432 28.804C155.432 28.244 155.222 27.8053 154.802 27.488C154.391 27.1707 153.771 27.012 152.94 27.012C152.324 27.012 151.745 27.1053 151.204 27.292C150.663 27.4693 150.168 27.7493 149.72 28.132L149.286 27.236C149.725 26.8347 150.271 26.5313 150.924 26.326C151.587 26.1113 152.282 26.004 153.01 26.004C154.186 26.004 155.073 26.2467 155.67 26.732C156.277 27.2173 156.58 27.8707 156.58 28.692C156.58 29.2987 156.393 29.812 156.02 30.232C155.656 30.6427 155.157 30.918 154.522 31.058V30.862C155.231 30.946 155.791 31.2027 156.202 31.632C156.613 32.052 156.818 32.6073 156.818 33.298C156.818 33.8767 156.678 34.3807 156.398 34.81C156.118 35.23 155.693 35.5567 155.124 35.79C154.555 36.014 153.841 36.126 152.982 36.126ZM158.88 36V26.13H160.014V30.526H162.03L161.68 30.75L164.844 26.13H166.146L162.8 30.946L162.38 30.582C162.978 30.6473 163.482 30.848 163.892 31.184C164.303 31.5107 164.662 31.9727 164.97 32.57L166.692 36H165.432L164.018 33.102C163.748 32.5233 163.426 32.1127 163.052 31.87C162.688 31.6273 162.236 31.506 161.694 31.506H160.014V36H158.88ZM169.706 36L171.414 32.794L171.428 33.242L166.836 26.13H168.096L172.002 32.206H171.75L174.97 26.13H176.174L170.924 36H169.706Z" fill="white"/>
</svg>
