<svg width="207" height="62" viewBox="0 0 207 62" fill="none" xmlns="http://www.w3.org/2000/svg">
<path d="M0.5 19.101L8.33199 0.5H197.684L206.5 19.1124V40.3996L197.667 61.5H8.34744L0.5 40.41V19.101Z" fill="white" stroke="#DBDBDB"/>
<line x1="1" y1="19" x2="1" y2="40" stroke="#6E978F" stroke-width="2"/>
<line x1="206" y1="19" x2="206" y2="40" stroke="#6E978F" stroke-width="2"/>
<path d="M36.48 36.126C35.6213 36.126 34.856 36.014 34.184 35.79C33.5213 35.5567 32.98 35.244 32.56 34.852L32.98 33.956C33.4373 34.348 33.9413 34.642 34.492 34.838C35.0427 35.0247 35.6867 35.118 36.424 35.118C37.376 35.118 38.0713 34.9593 38.51 34.642C38.9487 34.3247 39.168 33.858 39.168 33.242C39.168 32.6353 38.972 32.192 38.58 31.912C38.1973 31.6227 37.614 31.478 36.83 31.478H34.338V30.526H36.634C37.3807 30.526 37.95 30.3813 38.342 30.092C38.734 29.7933 38.93 29.364 38.93 28.804C38.93 28.244 38.72 27.8053 38.3 27.488C37.8893 27.1707 37.2687 27.012 36.438 27.012C35.822 27.012 35.2433 27.1053 34.702 27.292C34.1607 27.4693 33.666 27.7493 33.218 28.132L32.784 27.236C33.2227 26.8347 33.7687 26.5313 34.422 26.326C35.0847 26.1113 35.78 26.004 36.508 26.004C37.684 26.004 38.5707 26.2467 39.168 26.732C39.7747 27.2173 40.078 27.8707 40.078 28.692C40.078 29.2987 39.8913 29.812 39.518 30.232C39.154 30.6427 38.6547 30.918 38.02 31.058V30.862C38.7293 30.946 39.2893 31.2027 39.7 31.632C40.1107 32.052 40.316 32.6073 40.316 33.298C40.316 33.8767 40.176 34.3807 39.896 34.81C39.616 35.23 39.1913 35.5567 38.622 35.79C38.0527 36.014 37.3387 36.126 36.48 36.126ZM41.2618 36L45.6158 26.13H46.6238L51.0478 36H49.8438L48.6118 33.186L49.1298 33.48H43.0958L43.6558 33.186L42.4518 36H41.2618ZM46.1058 27.46L43.8378 32.78L43.5018 32.528H48.7098L48.4578 32.78L46.1338 27.46H46.1058ZM52.5367 36V26.13H53.6707V30.526H55.6867L55.3367 30.75L58.5007 26.13H59.8027L56.4567 30.946L56.0367 30.582C56.634 30.6473 57.138 30.848 57.5487 31.184C57.9594 31.5107 58.3187 31.9727 58.6267 32.57L60.3487 36H59.0887L57.6747 33.102C57.404 32.5233 57.082 32.1127 56.7087 31.87C56.3447 31.6273 55.892 31.506 55.3507 31.506H53.6707V36H52.5367ZM60.5118 36L64.8658 26.13H65.8738L70.2978 36H69.0938L67.8618 33.186L68.3798 33.48H62.3458L62.9058 33.186L61.7018 36H60.5118ZM65.3558 27.46L63.0878 32.78L62.7518 32.528H67.9598L67.7078 32.78L65.3838 27.46H65.3558ZM75.0347 36.126C74.176 36.126 73.4107 36.014 72.7387 35.79C72.076 35.5567 71.5347 35.244 71.1147 34.852L71.5347 33.956C71.992 34.348 72.496 34.642 73.0467 34.838C73.5974 35.0247 74.2414 35.118 74.9787 35.118C75.9307 35.118 76.626 34.9593 77.0647 34.642C77.5034 34.3247 77.7227 33.858 77.7227 33.242C77.7227 32.6353 77.5267 32.192 77.1347 31.912C76.752 31.6227 76.1687 31.478 75.3847 31.478H72.8927V30.526H75.1887C75.9354 30.526 76.5047 30.3813 76.8967 30.092C77.2887 29.7933 77.4847 29.364 77.4847 28.804C77.4847 28.244 77.2747 27.8053 76.8547 27.488C76.444 27.1707 75.8234 27.012 74.9927 27.012C74.3767 27.012 73.798 27.1053 73.2567 27.292C72.7154 27.4693 72.2207 27.7493 71.7727 28.132L71.3387 27.236C71.7774 26.8347 72.3234 26.5313 72.9767 26.326C73.6394 26.1113 74.3347 26.004 75.0627 26.004C76.2387 26.004 77.1254 26.2467 77.7227 26.732C78.3294 27.2173 78.6327 27.8707 78.6327 28.692C78.6327 29.2987 78.446 29.812 78.0727 30.232C77.7087 30.6427 77.2094 30.918 76.5747 31.058V30.862C77.284 30.946 77.844 31.2027 78.2547 31.632C78.6654 32.052 78.8707 32.6073 78.8707 33.298C78.8707 33.8767 78.7307 34.3807 78.4507 34.81C78.1707 35.23 77.746 35.5567 77.1767 35.79C76.6074 36.014 75.8934 36.126 75.0347 36.126ZM79.8165 36L84.1705 26.13H85.1785L89.6025 36H88.3985L87.1665 33.186L87.6845 33.48H81.6505L82.2105 33.186L81.0065 36H79.8165ZM84.6605 27.46L82.3925 32.78L82.0565 32.528H87.2645L87.0125 32.78L84.6885 27.46H84.6605ZM92.3369 36V27.11H88.8509V26.13H96.9709V27.11H93.4989V36H92.3369ZM98.3922 36V26.13H99.5402V30.484H102.634C103.707 30.484 104.533 30.7127 105.112 31.17C105.7 31.6273 105.994 32.3133 105.994 33.228C105.994 34.1333 105.7 34.824 105.112 35.3C104.533 35.7667 103.707 36 102.634 36H98.3922ZM99.5402 35.062H102.536C103.32 35.062 103.899 34.9127 104.272 34.614C104.655 34.306 104.846 33.844 104.846 33.228C104.846 32.6213 104.655 32.1733 104.272 31.884C103.899 31.5853 103.32 31.436 102.536 31.436H99.5402V35.062ZM114.765 36.126C113.906 36.126 113.141 36.014 112.469 35.79C111.806 35.5567 111.265 35.244 110.845 34.852L111.265 33.956C111.722 34.348 112.226 34.642 112.777 34.838C113.328 35.0247 113.972 35.118 114.709 35.118C115.661 35.118 116.356 34.9593 116.795 34.642C117.234 34.3247 117.453 33.858 117.453 33.242C117.453 32.6353 117.257 32.192 116.865 31.912C116.482 31.6227 115.899 31.478 115.115 31.478H112.623V30.526H114.919C115.666 30.526 116.235 30.3813 116.627 30.092C117.019 29.7933 117.215 29.364 117.215 28.804C117.215 28.244 117.005 27.8053 116.585 27.488C116.174 27.1707 115.554 27.012 114.723 27.012C114.107 27.012 113.528 27.1053 112.987 27.292C112.446 27.4693 111.951 27.7493 111.503 28.132L111.069 27.236C111.508 26.8347 112.054 26.5313 112.707 26.326C113.37 26.1113 114.065 26.004 114.793 26.004C115.969 26.004 116.856 26.2467 117.453 26.732C118.06 27.2173 118.363 27.8707 118.363 28.692C118.363 29.2987 118.176 29.812 117.803 30.232C117.439 30.6427 116.94 30.918 116.305 31.058V30.862C117.014 30.946 117.574 31.2027 117.985 31.632C118.396 32.052 118.601 32.6073 118.601 33.298C118.601 33.8767 118.461 34.3807 118.181 34.81C117.901 35.23 117.476 35.5567 116.907 35.79C116.338 36.014 115.624 36.126 114.765 36.126ZM120.664 36V26.13H124.612C125.657 26.13 126.464 26.354 127.034 26.802C127.603 27.25 127.888 27.8847 127.888 28.706C127.888 29.322 127.701 29.8353 127.328 30.246C126.964 30.6567 126.455 30.9273 125.802 31.058V30.862C126.53 30.946 127.099 31.198 127.51 31.618C127.93 32.0287 128.14 32.584 128.14 33.284C128.14 34.1613 127.846 34.8333 127.258 35.3C126.679 35.7667 125.858 36 124.794 36H120.664ZM121.798 35.062H124.682C125.391 35.062 125.951 34.9267 126.362 34.656C126.782 34.376 126.992 33.914 126.992 33.27C126.992 32.6167 126.782 32.1547 126.362 31.884C125.951 31.604 125.391 31.464 124.682 31.464H121.798V35.062ZM121.798 30.54H124.444C125.209 30.54 125.783 30.3907 126.166 30.092C126.548 29.7933 126.74 29.364 126.74 28.804C126.74 28.2253 126.548 27.7913 126.166 27.502C125.783 27.2033 125.209 27.054 124.444 27.054H121.798V30.54ZM129.815 31.058C129.815 30.0127 129.993 29.1167 130.347 28.37C130.711 27.614 131.229 27.0307 131.901 26.62C132.583 26.2093 133.399 26.004 134.351 26.004C135.275 26.004 136.078 26.2093 136.759 26.62C137.441 27.0307 137.963 27.614 138.327 28.37C138.701 29.1167 138.887 30.008 138.887 31.044C138.887 32.0893 138.701 32.99 138.327 33.746C137.954 34.502 137.427 35.09 136.745 35.51C136.073 35.9207 135.275 36.126 134.351 36.126C133.399 36.126 132.587 35.9207 131.915 35.51C131.243 35.09 130.725 34.502 130.361 33.746C129.997 32.99 129.815 32.094 129.815 31.058ZM131.033 31.058C131.033 32.3273 131.313 33.3213 131.873 34.04C132.433 34.7493 133.259 35.104 134.351 35.104C135.397 35.104 136.209 34.7493 136.787 34.04C137.375 33.3213 137.669 32.3273 137.669 31.058C137.669 29.7793 137.38 28.79 136.801 28.09C136.223 27.3807 135.406 27.026 134.351 27.026C133.259 27.026 132.433 27.3807 131.873 28.09C131.313 28.79 131.033 29.7793 131.033 31.058ZM140.994 36V26.13H142.156V30.498H148.106V26.13H149.254V36H148.106V31.492H142.156V36H140.994ZM151.348 31.058C151.348 30.0127 151.526 29.1167 151.88 28.37C152.244 27.614 152.762 27.0307 153.434 26.62C154.116 26.2093 154.932 26.004 155.884 26.004C156.808 26.004 157.611 26.2093 158.292 26.62C158.974 27.0307 159.496 27.614 159.86 28.37C160.234 29.1167 160.42 30.008 160.42 31.044C160.42 32.0893 160.234 32.99 159.86 33.746C159.487 34.502 158.96 35.09 158.278 35.51C157.606 35.9207 156.808 36.126 155.884 36.126C154.932 36.126 154.12 35.9207 153.448 35.51C152.776 35.09 152.258 34.502 151.894 33.746C151.53 32.99 151.348 32.094 151.348 31.058ZM152.566 31.058C152.566 32.3273 152.846 33.3213 153.406 34.04C153.966 34.7493 154.792 35.104 155.884 35.104C156.93 35.104 157.742 34.7493 158.32 34.04C158.908 33.3213 159.202 32.3273 159.202 31.058C159.202 29.7793 158.913 28.79 158.334 28.09C157.756 27.3807 156.939 27.026 155.884 27.026C154.792 27.026 153.966 27.3807 153.406 28.09C152.846 28.79 152.566 29.7793 152.566 31.058ZM162.527 36V26.13H163.661V30.526H165.677L165.327 30.75L168.491 26.13H169.793L166.447 30.946L166.027 30.582C166.624 30.6473 167.128 30.848 167.539 31.184C167.95 31.5107 168.309 31.9727 168.617 32.57L170.339 36H169.079L167.665 33.102C167.394 32.5233 167.072 32.1127 166.699 31.87C166.335 31.6273 165.882 31.506 165.341 31.506H163.661V36H162.527Z" fill="#141C1A"/>
</svg>
