<svg width="106" height="32" viewBox="0 0 106 32" fill="none" xmlns="http://www.w3.org/2000/svg">
<rect width="106" height="32" rx="4" fill="#E4E9E8"/>
<path d="M11.376 22V10.72H12.688L17.136 20.736H16.656L21.104 10.72H22.4V22H21.04V12.704H21.536L17.36 22H16.416L12.24 12.704H12.736V22H11.376ZM25.1573 22V10.72H34.6773V22H33.2053V11.968H26.6293V22H25.1573ZM37.1829 18.208V17.024H41.8069V18.208H37.1829ZM44.2975 22V20.896L48.2335 16.768C48.7455 16.2453 49.1242 15.744 49.3695 15.264C49.6255 14.784 49.7535 14.288 49.7535 13.776C49.7535 13.1467 49.5562 12.672 49.1615 12.352C48.7775 12.0213 48.2122 11.856 47.4655 11.856C46.8895 11.856 46.3455 11.9627 45.8335 12.176C45.3322 12.3787 44.8522 12.6933 44.3935 13.12L43.8655 11.984C44.3028 11.5573 44.8522 11.216 45.5135 10.96C46.1855 10.704 46.8895 10.576 47.6255 10.576C48.7775 10.576 49.6682 10.8427 50.2975 11.376C50.9268 11.8987 51.2415 12.6507 51.2415 13.632C51.2415 14.3467 51.0655 15.0293 50.7135 15.68C50.3722 16.32 49.8655 16.9813 49.1935 17.664L45.7535 21.152V20.736H51.7055V22H44.2975ZM57.3313 22.144C56.0406 22.144 55.0486 21.648 54.3553 20.656C53.6619 19.6533 53.3153 18.2187 53.3153 16.352C53.3153 14.4533 53.6619 13.0187 54.3553 12.048C55.0486 11.0667 56.0406 10.576 57.3313 10.576C58.6326 10.576 59.6246 11.0667 60.3073 12.048C61.0006 13.0187 61.3472 14.448 61.3472 16.336C61.3472 18.2133 61.0006 19.6533 60.3073 20.656C59.6139 21.648 58.6219 22.144 57.3313 22.144ZM57.3313 20.88C58.1846 20.88 58.8193 20.512 59.2353 19.776C59.6619 19.04 59.8753 17.8933 59.8753 16.336C59.8753 14.7787 59.6619 13.6427 59.2353 12.928C58.8193 12.2027 58.1846 11.84 57.3313 11.84C56.4886 11.84 55.8539 12.2027 55.4273 12.928C55.0006 13.6427 54.7873 14.7787 54.7873 16.336C54.7873 17.8933 55.0006 19.04 55.4273 19.776C55.8539 20.512 56.4886 20.88 57.3313 20.88Z" fill="#141C1A"/>
<path d="M69.9598 24.88C69.5011 24.0907 69.1224 23.312 68.8238 22.544C68.5358 21.7867 68.3224 21.0187 68.1838 20.24C68.0558 19.4507 67.9918 18.6347 67.9918 17.792C67.9918 16.9387 68.0558 16.1227 68.1838 15.344C68.3224 14.5653 68.5358 13.7973 68.8238 13.04C69.1224 12.2827 69.5011 11.5093 69.9598 10.72H71.1438C70.5998 11.9253 70.1891 13.1147 69.9118 14.288C69.6344 15.4507 69.4958 16.6187 69.4958 17.792C69.4958 18.9653 69.6344 20.1387 69.9118 21.312C70.1891 22.4853 70.5998 23.6747 71.1438 24.88H69.9598ZM73.5621 22V20.736H76.2021V11.984H76.9541L73.8021 13.936V12.48L76.6181 10.72H77.6901V20.736H80.1701V22H73.5621ZM86.1639 22.144C85.6732 22.144 85.1879 22.0907 84.7079 21.984C84.2385 21.8773 83.7959 21.728 83.3799 21.536C82.9639 21.3333 82.6012 21.088 82.2919 20.8L82.8199 19.648C83.3425 20.064 83.8759 20.3733 84.4199 20.576C84.9639 20.768 85.5345 20.864 86.1319 20.864C86.9212 20.864 87.5399 20.656 87.9879 20.24C88.4359 19.824 88.6599 19.2693 88.6599 18.576C88.6599 17.8613 88.4465 17.2853 88.0199 16.848C87.5932 16.4 87.0012 16.176 86.2439 16.176C85.7212 16.176 85.2465 16.2827 84.8199 16.496C84.4039 16.6987 84.0359 17.024 83.7159 17.472H82.6599V10.72H89.4279V11.984H84.0999V16.256H83.7159C84.0039 15.8293 84.3932 15.4987 84.8839 15.264C85.3852 15.0293 85.9452 14.912 86.5639 14.912C87.2892 14.912 87.9132 15.0613 88.4359 15.36C88.9692 15.6587 89.3799 16.08 89.6679 16.624C89.9665 17.1573 90.1159 17.7813 90.1159 18.496C90.1159 19.2107 89.9559 19.8453 89.6359 20.4C89.3159 20.944 88.8572 21.3707 88.2599 21.68C87.6732 21.9893 86.9745 22.144 86.1639 22.144ZM92.3816 24.88H91.1816C91.7256 23.6747 92.1363 22.4853 92.4136 21.312C92.7016 20.1387 92.8456 18.9653 92.8456 17.792C92.8456 16.6293 92.7016 15.4613 92.4136 14.288C92.1363 13.1147 91.7256 11.9253 91.1816 10.72H92.3816C92.8403 11.5093 93.2136 12.288 93.5016 13.056C93.8003 13.8133 94.0136 14.5813 94.1416 15.36C94.2803 16.1387 94.3496 16.9493 94.3496 17.792C94.3496 18.6453 94.2803 19.4613 94.1416 20.24C94.0136 21.0187 93.8003 21.7867 93.5016 22.544C93.2136 23.312 92.8403 24.0907 92.3816 24.88Z" fill="#8D8D8D"/>
</svg>
