<svg width="86" height="32" viewBox="0 0 86 32" fill="none" xmlns="http://www.w3.org/2000/svg">
<rect width="86" height="32" rx="4" fill="#E4E9E8"/>
<path d="M11.376 22V10.72H12.864V15.648H19.424V10.72H20.928V22H19.424V16.912H12.864V22H11.376ZM27.0013 22.144C26.2333 22.144 25.4973 22.0267 24.7933 21.792C24.0999 21.5573 23.5186 21.2267 23.0493 20.8L23.5773 19.648C24.0999 20.0747 24.6386 20.384 25.1933 20.576C25.7479 20.768 26.3346 20.864 26.9533 20.864C27.7746 20.864 28.3986 20.6933 28.8253 20.352C29.2519 20 29.4653 19.4987 29.4653 18.848C29.4653 18.208 29.2466 17.7227 28.8093 17.392C28.3826 17.0613 27.7533 16.896 26.9213 16.896H25.1933V15.664H26.8093C27.5133 15.664 28.0786 15.4827 28.5053 15.12C28.9319 14.7573 29.1453 14.2613 29.1453 13.632C29.1453 13.056 28.9479 12.6187 28.5533 12.32C28.1693 12.0107 27.6199 11.856 26.9053 11.856C25.6999 11.856 24.6546 12.2773 23.7693 13.12L23.2413 11.984C23.6893 11.536 24.2439 11.1893 24.9053 10.944C25.5666 10.6987 26.2653 10.576 27.0013 10.576C28.1213 10.576 29.0013 10.832 29.6413 11.344C30.2813 11.856 30.6013 12.5707 30.6013 13.488C30.6013 14.1813 30.4039 14.7787 30.0093 15.28C29.6253 15.7707 29.0973 16.096 28.4253 16.256V16.08C29.2146 16.2187 29.8279 16.544 30.2653 17.056C30.7026 17.5573 30.9213 18.1867 30.9213 18.944C30.9213 19.936 30.5693 20.72 29.8653 21.296C29.1719 21.8613 28.2173 22.144 27.0013 22.144ZM36.867 22.144C36.3763 22.144 35.891 22.0907 35.411 21.984C34.9417 21.8773 34.499 21.728 34.083 21.536C33.667 21.3333 33.3043 21.088 32.995 20.8L33.523 19.648C34.0457 20.064 34.579 20.3733 35.123 20.576C35.667 20.768 36.2377 20.864 36.835 20.864C37.6243 20.864 38.243 20.656 38.691 20.24C39.139 19.824 39.363 19.2693 39.363 18.576C39.363 17.8613 39.1497 17.2853 38.723 16.848C38.2963 16.4 37.7043 16.176 36.947 16.176C36.4243 16.176 35.9497 16.2827 35.523 16.496C35.107 16.6987 34.739 17.024 34.419 17.472H33.363V10.72H40.131V11.984H34.803V16.256H34.419C34.707 15.8293 35.0963 15.4987 35.587 15.264C36.0883 15.0293 36.6483 14.912 37.267 14.912C37.9923 14.912 38.6163 15.0613 39.139 15.36C39.6723 15.6587 40.083 16.08 40.371 16.624C40.6697 17.1573 40.819 17.7813 40.819 18.496C40.819 19.2107 40.659 19.8453 40.339 20.4C40.019 20.944 39.5603 21.3707 38.963 21.68C38.3763 21.9893 37.6777 22.144 36.867 22.144Z" fill="#141C1A"/>
<path d="M49.3035 24.88C48.8448 24.0907 48.4662 23.312 48.1675 22.544C47.8795 21.7867 47.6662 21.0187 47.5275 20.24C47.3995 19.4507 47.3355 18.6347 47.3355 17.792C47.3355 16.9387 47.3995 16.1227 47.5275 15.344C47.6662 14.5653 47.8795 13.7973 48.1675 13.04C48.4662 12.2827 48.8448 11.5093 49.3035 10.72H50.4875C49.9435 11.9253 49.5328 13.1147 49.2555 14.288C48.9782 15.4507 48.8395 16.6187 48.8395 17.792C48.8395 18.9653 48.9782 20.1387 49.2555 21.312C49.5328 22.4853 49.9435 23.6747 50.4875 24.88H49.3035ZM52.9059 22V20.736H55.5459V11.984H56.2979L53.1459 13.936V12.48L55.9619 10.72H57.0339V20.736H59.5139V22H52.9059ZM65.5076 22.144C65.017 22.144 64.5316 22.0907 64.0516 21.984C63.5823 21.8773 63.1396 21.728 62.7236 21.536C62.3076 21.3333 61.945 21.088 61.6356 20.8L62.1636 19.648C62.6863 20.064 63.2196 20.3733 63.7636 20.576C64.3076 20.768 64.8783 20.864 65.4756 20.864C66.265 20.864 66.8836 20.656 67.3316 20.24C67.7796 19.824 68.0036 19.2693 68.0036 18.576C68.0036 17.8613 67.7903 17.2853 67.3636 16.848C66.937 16.4 66.345 16.176 65.5876 16.176C65.065 16.176 64.5903 16.2827 64.1636 16.496C63.7476 16.6987 63.3796 17.024 63.0596 17.472H62.0036V10.72H68.7716V11.984H63.4436V16.256H63.0596C63.3476 15.8293 63.737 15.4987 64.2276 15.264C64.729 15.0293 65.289 14.912 65.9076 14.912C66.633 14.912 67.257 15.0613 67.7796 15.36C68.313 15.6587 68.7236 16.08 69.0116 16.624C69.3103 17.1573 69.4596 17.7813 69.4596 18.496C69.4596 19.2107 69.2996 19.8453 68.9796 20.4C68.6596 20.944 68.201 21.3707 67.6036 21.68C67.017 21.9893 66.3183 22.144 65.5076 22.144ZM71.7254 24.88H70.5254C71.0694 23.6747 71.48 22.4853 71.7574 21.312C72.0454 20.1387 72.1894 18.9653 72.1894 17.792C72.1894 16.6293 72.0454 15.4613 71.7574 14.288C71.48 13.1147 71.0694 11.9253 70.5254 10.72H71.7254C72.184 11.5093 72.5574 12.288 72.8454 13.056C73.144 13.8133 73.3574 14.5813 73.4854 15.36C73.624 16.1387 73.6934 16.9493 73.6934 17.792C73.6934 18.6453 73.624 19.4613 73.4854 20.24C73.3574 21.0187 73.144 21.7867 72.8454 22.544C72.5574 23.312 72.184 24.0907 71.7254 24.88Z" fill="#8D8D8D"/>
</svg>
