<svg width="86" height="32" viewBox="0 0 86 32" fill="none" xmlns="http://www.w3.org/2000/svg">
<rect width="86" height="32" rx="4" fill="#E4E9E8"/>
<path d="M11.376 22V10.72H12.864V15.648H19.424V10.72H20.928V22H19.424V16.912H12.864V22H11.376ZM27.4493 22.144C26.0733 22.144 25.0119 21.6587 24.2653 20.688C23.5186 19.7173 23.1453 18.3627 23.1453 16.624C23.1453 15.3227 23.3319 14.224 23.7053 13.328C24.0893 12.432 24.6333 11.7493 25.3373 11.28C26.0413 10.8107 26.8839 10.576 27.8653 10.576C28.4626 10.576 29.0599 10.6933 29.6573 10.928C30.2546 11.1627 30.7506 11.488 31.1453 11.904L30.6013 13.056C30.2066 12.6507 29.7693 12.352 29.2893 12.16C28.8199 11.9573 28.3399 11.856 27.8493 11.856C26.7933 11.856 25.9826 12.2347 25.4173 12.992C24.8626 13.7387 24.5853 14.8533 24.5853 16.336V17.76H24.4253C24.4999 17.1627 24.6813 16.6507 24.9693 16.224C25.2679 15.7973 25.6466 15.4667 26.1053 15.232C26.5746 14.9973 27.1026 14.88 27.6893 14.88C28.3613 14.88 28.9586 15.0347 29.4813 15.344C30.0039 15.6533 30.4146 16.0747 30.7133 16.608C31.0119 17.1413 31.1613 17.76 31.1613 18.464C31.1613 19.168 31.0013 19.8027 30.6813 20.368C30.3613 20.9227 29.9239 21.36 29.3693 21.68C28.8146 21.9893 28.1746 22.144 27.4493 22.144ZM27.3693 20.912C27.8386 20.912 28.2493 20.8107 28.6013 20.608C28.9639 20.4053 29.2413 20.1227 29.4333 19.76C29.6359 19.3973 29.7373 18.9813 29.7373 18.512C29.7373 18.0427 29.6359 17.6267 29.4333 17.264C29.2413 16.9013 28.9639 16.6187 28.6013 16.416C28.2493 16.2133 27.8386 16.112 27.3693 16.112C26.8999 16.112 26.4839 16.2133 26.1213 16.416C25.7693 16.6187 25.4919 16.9013 25.2893 17.264C25.0866 17.6267 24.9853 18.0427 24.9853 18.512C24.9853 18.9813 25.0866 19.3973 25.2893 19.76C25.4919 20.1227 25.7693 20.4053 26.1213 20.608C26.4839 20.8107 26.8999 20.912 27.3693 20.912ZM36.675 22.144C35.3843 22.144 34.3923 21.648 33.699 20.656C33.0057 19.6533 32.659 18.2187 32.659 16.352C32.659 14.4533 33.0057 13.0187 33.699 12.048C34.3923 11.0667 35.3843 10.576 36.675 10.576C37.9763 10.576 38.9683 11.0667 39.651 12.048C40.3443 13.0187 40.691 14.448 40.691 16.336C40.691 18.2133 40.3443 19.6533 39.651 20.656C38.9577 21.648 37.9657 22.144 36.675 22.144ZM36.675 20.88C37.5283 20.88 38.163 20.512 38.579 19.776C39.0057 19.04 39.219 17.8933 39.219 16.336C39.219 14.7787 39.0057 13.6427 38.579 12.928C38.163 12.2027 37.5283 11.84 36.675 11.84C35.8323 11.84 35.1977 12.2027 34.771 12.928C34.3443 13.6427 34.131 14.7787 34.131 16.336C34.131 17.8933 34.3443 19.04 34.771 19.776C35.1977 20.512 35.8323 20.88 36.675 20.88Z" fill="#141C1A"/>
<path d="M49.3035 24.88C48.8448 24.0907 48.4662 23.312 48.1675 22.544C47.8795 21.7867 47.6662 21.0187 47.5275 20.24C47.3995 19.4507 47.3355 18.6347 47.3355 17.792C47.3355 16.9387 47.3995 16.1227 47.5275 15.344C47.6662 14.5653 47.8795 13.7973 48.1675 13.04C48.4662 12.2827 48.8448 11.5093 49.3035 10.72H50.4875C49.9435 11.9253 49.5328 13.1147 49.2555 14.288C48.9782 15.4507 48.8395 16.6187 48.8395 17.792C48.8395 18.9653 48.9782 20.1387 49.2555 21.312C49.5328 22.4853 49.9435 23.6747 50.4875 24.88H49.3035ZM52.9059 22V20.736H55.5459V11.984H56.2979L53.1459 13.936V12.48L55.9619 10.72H57.0339V20.736H59.5139V22H52.9059ZM65.5076 22.144C65.017 22.144 64.5316 22.0907 64.0516 21.984C63.5823 21.8773 63.1396 21.728 62.7236 21.536C62.3076 21.3333 61.945 21.088 61.6356 20.8L62.1636 19.648C62.6863 20.064 63.2196 20.3733 63.7636 20.576C64.3076 20.768 64.8783 20.864 65.4756 20.864C66.265 20.864 66.8836 20.656 67.3316 20.24C67.7796 19.824 68.0036 19.2693 68.0036 18.576C68.0036 17.8613 67.7903 17.2853 67.3636 16.848C66.937 16.4 66.345 16.176 65.5876 16.176C65.065 16.176 64.5903 16.2827 64.1636 16.496C63.7476 16.6987 63.3796 17.024 63.0596 17.472H62.0036V10.72H68.7716V11.984H63.4436V16.256H63.0596C63.3476 15.8293 63.737 15.4987 64.2276 15.264C64.729 15.0293 65.289 14.912 65.9076 14.912C66.633 14.912 67.257 15.0613 67.7796 15.36C68.313 15.6587 68.7236 16.08 69.0116 16.624C69.3103 17.1573 69.4596 17.7813 69.4596 18.496C69.4596 19.2107 69.2996 19.8453 68.9796 20.4C68.6596 20.944 68.201 21.3707 67.6036 21.68C67.017 21.9893 66.3183 22.144 65.5076 22.144ZM71.7254 24.88H70.5254C71.0694 23.6747 71.48 22.4853 71.7574 21.312C72.0454 20.1387 72.1894 18.9653 72.1894 17.792C72.1894 16.6293 72.0454 15.4613 71.7574 14.288C71.48 13.1147 71.0694 11.9253 70.5254 10.72H71.7254C72.184 11.5093 72.5574 12.288 72.8454 13.056C73.144 13.8133 73.3574 14.5813 73.4854 15.36C73.624 16.1387 73.6934 16.9493 73.6934 17.792C73.6934 18.6453 73.624 19.4613 73.4854 20.24C73.3574 21.0187 73.144 21.7867 72.8454 22.544C72.5574 23.312 72.184 24.0907 71.7254 24.88Z" fill="#8D8D8D"/>
</svg>
