<svg width="63" height="15" viewBox="0 0 63 15" fill="none" xmlns="http://www.w3.org/2000/svg">
<path d="M0.376 12V0.719999H1.864V5.648H8.424V0.719999H9.928V12H8.424V6.912H1.864V12H0.376ZM12.9773 12L18.5293 1.392V2H12.2893V0.719999H19.8893V1.824L14.6253 12H12.9773ZM25.867 12.144C25.3763 12.144 24.891 12.0907 24.411 11.984C23.9417 11.8773 23.499 11.728 23.083 11.536C22.667 11.3333 22.3043 11.088 21.995 10.8L22.523 9.648C23.0457 10.064 23.579 10.3733 24.123 10.576C24.667 10.768 25.2377 10.864 25.835 10.864C26.6243 10.864 27.243 10.656 27.691 10.24C28.139 9.824 28.363 9.26933 28.363 8.576C28.363 7.86133 28.1497 7.28533 27.723 6.848C27.2963 6.4 26.7043 6.176 25.947 6.176C25.4243 6.176 24.9497 6.28267 24.523 6.496C24.107 6.69867 23.739 7.024 23.419 7.472H22.363V0.719999H29.131V1.984H23.803V6.256H23.419C23.707 5.82933 24.0963 5.49867 24.587 5.264C25.0883 5.02933 25.6483 4.912 26.267 4.912C26.9923 4.912 27.6163 5.06133 28.139 5.36C28.6723 5.65867 29.083 6.08 29.371 6.624C29.6697 7.15733 29.819 7.78133 29.819 8.496C29.819 9.21067 29.659 9.84533 29.339 10.4C29.019 10.944 28.5603 11.3707 27.963 11.68C27.3763 11.9893 26.6777 12.144 25.867 12.144Z" fill="#141C1A"/>
<path d="M38.3035 14.88C37.8448 14.0907 37.4662 13.312 37.1675 12.544C36.8795 11.7867 36.6662 11.0187 36.5275 10.24C36.3995 9.45067 36.3355 8.63467 36.3355 7.792C36.3355 6.93867 36.3995 6.12267 36.5275 5.344C36.6662 4.56533 36.8795 3.79733 37.1675 3.04C37.4662 2.28267 37.8448 1.50933 38.3035 0.719999H39.4875C38.9435 1.92533 38.5328 3.11467 38.2555 4.288C37.9782 5.45067 37.8395 6.61867 37.8395 7.792C37.8395 8.96533 37.9782 10.1387 38.2555 11.312C38.5328 12.4853 38.9435 13.6747 39.4875 14.88H38.3035ZM41.9059 12V10.736H44.5459V1.984H45.2979L42.1459 3.936V2.48L44.9619 0.719999H46.0339V10.736H48.5139V12H41.9059ZM54.5076 12.144C54.017 12.144 53.5316 12.0907 53.0516 11.984C52.5823 11.8773 52.1396 11.728 51.7236 11.536C51.3076 11.3333 50.945 11.088 50.6356 10.8L51.1636 9.648C51.6863 10.064 52.2196 10.3733 52.7636 10.576C53.3076 10.768 53.8783 10.864 54.4756 10.864C55.265 10.864 55.8836 10.656 56.3316 10.24C56.7796 9.824 57.0036 9.26933 57.0036 8.576C57.0036 7.86133 56.7903 7.28533 56.3636 6.848C55.937 6.4 55.345 6.176 54.5876 6.176C54.065 6.176 53.5903 6.28267 53.1636 6.496C52.7476 6.69867 52.3796 7.024 52.0596 7.472H51.0036V0.719999H57.7716V1.984H52.4436V6.256H52.0596C52.3476 5.82933 52.737 5.49867 53.2276 5.264C53.729 5.02933 54.289 4.912 54.9076 4.912C55.633 4.912 56.257 5.06133 56.7796 5.36C57.313 5.65867 57.7236 6.08 58.0116 6.624C58.3103 7.15733 58.4596 7.78133 58.4596 8.496C58.4596 9.21067 58.2996 9.84533 57.9796 10.4C57.6596 10.944 57.201 11.3707 56.6036 11.68C56.017 11.9893 55.3183 12.144 54.5076 12.144ZM60.7254 14.88H59.5254C60.0694 13.6747 60.48 12.4853 60.7574 11.312C61.0454 10.1387 61.1894 8.96533 61.1894 7.792C61.1894 6.62933 61.0454 5.46133 60.7574 4.288C60.48 3.11467 60.0694 1.92533 59.5254 0.719999H60.7254C61.184 1.50933 61.5574 2.288 61.8454 3.056C62.144 3.81333 62.3574 4.58133 62.4854 5.36C62.624 6.13867 62.6934 6.94933 62.6934 7.792C62.6934 8.64533 62.624 9.46133 62.4854 10.24C62.3574 11.0187 62.144 11.7867 61.8454 12.544C61.5574 13.312 61.184 14.0907 60.7254 14.88Z" fill="#8D8D8D"/>
</svg>
