<svg width="97" height="32" viewBox="0 0 97 32" fill="none" xmlns="http://www.w3.org/2000/svg">
<rect width="97" height="32" rx="4" fill="#E4E9E8"/>
<path d="M11.376 22V10.72H12.864V15.648H19.424V10.72H20.928V22H19.424V16.912H12.864V22H11.376ZM28.6333 22.144C27.5026 22.144 26.5319 21.9093 25.7213 21.44C24.9213 20.9707 24.3079 20.304 23.8813 19.44C23.4546 18.5653 23.2413 17.536 23.2413 16.352C23.2413 15.168 23.4546 14.144 23.8813 13.28C24.3079 12.416 24.9213 11.7493 25.7213 11.28C26.5319 10.8107 27.5026 10.576 28.6333 10.576C29.4439 10.576 30.1639 10.6987 30.7933 10.944C31.4226 11.1787 31.9719 11.5253 32.4413 11.984L31.8973 13.184C31.3853 12.736 30.8786 12.416 30.3773 12.224C29.8866 12.0213 29.3159 11.92 28.6653 11.92C27.4173 11.92 26.4626 12.304 25.8013 13.072C25.1399 13.84 24.8093 14.9333 24.8093 16.352C24.8093 17.7707 25.1399 18.8693 25.8013 19.648C26.4626 20.416 27.4173 20.8 28.6653 20.8C29.3159 20.8 29.8866 20.704 30.3773 20.512C30.8786 20.3093 31.3853 19.984 31.8973 19.536L32.4413 20.72C31.9719 21.1787 31.4173 21.5307 30.7773 21.776C30.1479 22.0213 29.4333 22.144 28.6333 22.144ZM37.9544 22.144C37.1864 22.144 36.4504 22.0267 35.7464 21.792C35.053 21.5573 34.4717 21.2267 34.0024 20.8L34.5304 19.648C35.053 20.0747 35.5917 20.384 36.1464 20.576C36.701 20.768 37.2877 20.864 37.9064 20.864C38.7277 20.864 39.3517 20.6933 39.7784 20.352C40.205 20 40.4184 19.4987 40.4184 18.848C40.4184 18.208 40.1997 17.7227 39.7624 17.392C39.3357 17.0613 38.7064 16.896 37.8744 16.896H36.1464V15.664H37.7624C38.4664 15.664 39.0317 15.4827 39.4584 15.12C39.885 14.7573 40.0984 14.2613 40.0984 13.632C40.0984 13.056 39.901 12.6187 39.5064 12.32C39.1224 12.0107 38.573 11.856 37.8584 11.856C36.653 11.856 35.6077 12.2773 34.7224 13.12L34.1944 11.984C34.6424 11.536 35.197 11.1893 35.8584 10.944C36.5197 10.6987 37.2184 10.576 37.9544 10.576C39.0744 10.576 39.9544 10.832 40.5944 11.344C41.2344 11.856 41.5544 12.5707 41.5544 13.488C41.5544 14.1813 41.357 14.7787 40.9624 15.28C40.5784 15.7707 40.0504 16.096 39.3784 16.256V16.08C40.1677 16.2187 40.781 16.544 41.2184 17.056C41.6557 17.5573 41.8744 18.1867 41.8744 18.944C41.8744 19.936 41.5224 20.72 40.8184 21.296C40.125 21.8613 39.1704 22.144 37.9544 22.144ZM47.8201 22.144C47.3295 22.144 46.8441 22.0907 46.3641 21.984C45.8948 21.8773 45.4521 21.728 45.0361 21.536C44.6201 21.3333 44.2575 21.088 43.9481 20.8L44.4761 19.648C44.9988 20.064 45.5321 20.3733 46.0761 20.576C46.6201 20.768 47.1908 20.864 47.7881 20.864C48.5775 20.864 49.1961 20.656 49.6441 20.24C50.0921 19.824 50.3161 19.2693 50.3161 18.576C50.3161 17.8613 50.1028 17.2853 49.6761 16.848C49.2495 16.4 48.6575 16.176 47.9001 16.176C47.3775 16.176 46.9028 16.2827 46.4761 16.496C46.0601 16.6987 45.6921 17.024 45.3721 17.472H44.3161V10.72H51.0841V11.984H45.7561V16.256H45.3721C45.6601 15.8293 46.0495 15.4987 46.5401 15.264C47.0415 15.0293 47.6015 14.912 48.2201 14.912C48.9455 14.912 49.5695 15.0613 50.0921 15.36C50.6255 15.6587 51.0361 16.08 51.3241 16.624C51.6228 17.1573 51.7721 17.7813 51.7721 18.496C51.7721 19.2107 51.6121 19.8453 51.2921 20.4C50.9721 20.944 50.5135 21.3707 49.9161 21.68C49.3295 21.9893 48.6308 22.144 47.8201 22.144Z" fill="#141C1A"/>
<path d="M60.2566 24.88C59.798 24.0907 59.4193 23.312 59.1206 22.544C58.8326 21.7867 58.6193 21.0187 58.4806 20.24C58.3526 19.4507 58.2886 18.6347 58.2886 17.792C58.2886 16.9387 58.3526 16.1227 58.4806 15.344C58.6193 14.5653 58.8326 13.7973 59.1206 13.04C59.4193 12.2827 59.798 11.5093 60.2566 10.72H61.4406C60.8966 11.9253 60.486 13.1147 60.2086 14.288C59.9313 15.4507 59.7926 16.6187 59.7926 17.792C59.7926 18.9653 59.9313 20.1387 60.2086 21.312C60.486 22.4853 60.8966 23.6747 61.4406 24.88H60.2566ZM63.859 22V20.736H66.499V11.984H67.251L64.099 13.936V12.48L66.915 10.72H67.987V20.736H70.467V22H63.859ZM76.4608 22.144C75.9701 22.144 75.4848 22.0907 75.0048 21.984C74.5354 21.8773 74.0928 21.728 73.6768 21.536C73.2608 21.3333 72.8981 21.088 72.5888 20.8L73.1168 19.648C73.6394 20.064 74.1728 20.3733 74.7168 20.576C75.2608 20.768 75.8314 20.864 76.4288 20.864C77.2181 20.864 77.8368 20.656 78.2848 20.24C78.7328 19.824 78.9568 19.2693 78.9568 18.576C78.9568 17.8613 78.7434 17.2853 78.3168 16.848C77.8901 16.4 77.2981 16.176 76.5408 16.176C76.0181 16.176 75.5434 16.2827 75.1168 16.496C74.7008 16.6987 74.3328 17.024 74.0128 17.472H72.9568V10.72H79.7248V11.984H74.3968V16.256H74.0128C74.3008 15.8293 74.6901 15.4987 75.1808 15.264C75.6821 15.0293 76.2421 14.912 76.8608 14.912C77.5861 14.912 78.2101 15.0613 78.7328 15.36C79.2661 15.6587 79.6768 16.08 79.9648 16.624C80.2634 17.1573 80.4128 17.7813 80.4128 18.496C80.4128 19.2107 80.2528 19.8453 79.9328 20.4C79.6128 20.944 79.1541 21.3707 78.5568 21.68C77.9701 21.9893 77.2714 22.144 76.4608 22.144ZM82.6785 24.88H81.4785C82.0225 23.6747 82.4332 22.4853 82.7105 21.312C82.9985 20.1387 83.1425 18.9653 83.1425 17.792C83.1425 16.6293 82.9985 15.4613 82.7105 14.288C82.4332 13.1147 82.0225 11.9253 81.4785 10.72H82.6785C83.1372 11.5093 83.5105 12.288 83.7985 13.056C84.0972 13.8133 84.3105 14.5813 84.4385 15.36C84.5772 16.1387 84.6465 16.9493 84.6465 17.792C84.6465 18.6453 84.5772 19.4613 84.4385 20.24C84.3105 21.0187 84.0972 21.7867 83.7985 22.544C83.5105 23.312 83.1372 24.0907 82.6785 24.88Z" fill="#8D8D8D"/>
</svg>
