<svg width="80" height="32" viewBox="0 0 80 32" fill="none" xmlns="http://www.w3.org/2000/svg">
<rect width="80" height="32" rx="4" fill="#E4E9E8"/>
<path d="M16.352 22.144C15.2213 22.144 14.2507 21.9093 13.44 21.44C12.64 20.9707 12.0267 20.304 11.6 19.44C11.1733 18.5653 10.96 17.536 10.96 16.352C10.96 15.168 11.1733 14.144 11.6 13.28C12.0267 12.416 12.64 11.7493 13.44 11.28C14.2507 10.8107 15.2213 10.576 16.352 10.576C17.1627 10.576 17.8827 10.6987 18.512 10.944C19.1413 11.1787 19.6907 11.5253 20.16 11.984L19.616 13.184C19.104 12.736 18.5973 12.416 18.096 12.224C17.6053 12.0213 17.0347 11.92 16.384 11.92C15.136 11.92 14.1813 12.304 13.52 13.072C12.8587 13.84 12.528 14.9333 12.528 16.352C12.528 17.7707 12.8587 18.8693 13.52 19.648C14.1813 20.416 15.136 20.8 16.384 20.8C17.0347 20.8 17.6053 20.704 18.096 20.512C18.5973 20.3093 19.104 19.984 19.616 19.536L20.16 20.72C19.6907 21.1787 19.136 21.5307 18.496 21.776C17.8667 22.0213 17.152 22.144 16.352 22.144ZM22.9371 22V20.736H25.5771V11.984H26.3291L23.1771 13.936V12.48L25.9931 10.72H27.0651V20.736H29.5451V22H22.9371ZM35.3469 22.144C34.0562 22.144 33.0642 21.648 32.3709 20.656C31.6775 19.6533 31.3309 18.2187 31.3309 16.352C31.3309 14.4533 31.6775 13.0187 32.3709 12.048C33.0642 11.0667 34.0562 10.576 35.3469 10.576C36.6482 10.576 37.6402 11.0667 38.3229 12.048C39.0162 13.0187 39.3629 14.448 39.3629 16.336C39.3629 18.2133 39.0162 19.6533 38.3229 20.656C37.6295 21.648 36.6375 22.144 35.3469 22.144ZM35.3469 20.88C36.2002 20.88 36.8349 20.512 37.2509 19.776C37.6775 19.04 37.8909 17.8933 37.8909 16.336C37.8909 14.7787 37.6775 13.6427 37.2509 12.928C36.8349 12.2027 36.2002 11.84 35.3469 11.84C34.5042 11.84 33.8695 12.2027 33.4429 12.928C33.0162 13.6427 32.8029 14.7787 32.8029 16.336C32.8029 17.8933 33.0162 19.04 33.4429 19.776C33.8695 20.512 34.5042 20.88 35.3469 20.88Z" fill="#141C1A"/>
<path d="M43.7566 24.88C43.298 24.0907 42.9193 23.312 42.6206 22.544C42.3326 21.7867 42.1193 21.0187 41.9806 20.24C41.8526 19.4507 41.7886 18.6347 41.7886 17.792C41.7886 16.9387 41.8526 16.1227 41.9806 15.344C42.1193 14.5653 42.3326 13.7973 42.6206 13.04C42.9193 12.2827 43.298 11.5093 43.7566 10.72H44.9406C44.3966 11.9253 43.986 13.1147 43.7086 14.288C43.4313 15.4507 43.2926 16.6187 43.2926 17.792C43.2926 18.9653 43.4313 20.1387 43.7086 21.312C43.986 22.4853 44.3966 23.6747 44.9406 24.88H43.7566ZM47.359 22V20.736H49.999V11.984H50.751L47.599 13.936V12.48L50.415 10.72H51.487V20.736H53.967V22H47.359ZM59.9608 22.144C59.4701 22.144 58.9848 22.0907 58.5048 21.984C58.0354 21.8773 57.5928 21.728 57.1768 21.536C56.7608 21.3333 56.3981 21.088 56.0888 20.8L56.6168 19.648C57.1394 20.064 57.6728 20.3733 58.2168 20.576C58.7608 20.768 59.3314 20.864 59.9288 20.864C60.7181 20.864 61.3368 20.656 61.7848 20.24C62.2328 19.824 62.4568 19.2693 62.4568 18.576C62.4568 17.8613 62.2434 17.2853 61.8168 16.848C61.3901 16.4 60.7981 16.176 60.0408 16.176C59.5181 16.176 59.0434 16.2827 58.6168 16.496C58.2008 16.6987 57.8328 17.024 57.5128 17.472H56.4568V10.72H63.2248V11.984H57.8968V16.256H57.5128C57.8008 15.8293 58.1901 15.4987 58.6808 15.264C59.1821 15.0293 59.7421 14.912 60.3608 14.912C61.0861 14.912 61.7101 15.0613 62.2328 15.36C62.7661 15.6587 63.1768 16.08 63.4648 16.624C63.7634 17.1573 63.9128 17.7813 63.9128 18.496C63.9128 19.2107 63.7528 19.8453 63.4328 20.4C63.1128 20.944 62.6541 21.3707 62.0568 21.68C61.4701 21.9893 60.7714 22.144 59.9608 22.144ZM66.1785 24.88H64.9785C65.5225 23.6747 65.9332 22.4853 66.2105 21.312C66.4985 20.1387 66.6425 18.9653 66.6425 17.792C66.6425 16.6293 66.4985 15.4613 66.2105 14.288C65.9332 13.1147 65.5225 11.9253 64.9785 10.72H66.1785C66.6372 11.5093 67.0105 12.288 67.2985 13.056C67.5972 13.8133 67.8105 14.5813 67.9385 15.36C68.0772 16.1387 68.1465 16.9493 68.1465 17.792C68.1465 18.6453 68.0772 19.4613 67.9385 20.24C67.8105 21.0187 67.5972 21.7867 67.2985 22.544C67.0105 23.312 66.6372 24.0907 66.1785 24.88Z" fill="#8D8D8D"/>
</svg>
