<svg width="85" height="32" viewBox="0 0 85 32" fill="none" xmlns="http://www.w3.org/2000/svg">
<rect width="85" height="32" rx="4" fill="#E4E9E8"/>
<path d="M16.352 22.144C15.2213 22.144 14.2507 21.9093 13.44 21.44C12.64 20.9707 12.0267 20.304 11.6 19.44C11.1733 18.5653 10.96 17.536 10.96 16.352C10.96 15.168 11.1733 14.144 11.6 13.28C12.0267 12.416 12.64 11.7493 13.44 11.28C14.2507 10.8107 15.2213 10.576 16.352 10.576C17.1627 10.576 17.8827 10.6987 18.512 10.944C19.1413 11.1787 19.6907 11.5253 20.16 11.984L19.616 13.184C19.104 12.736 18.5973 12.416 18.096 12.224C17.6053 12.0213 17.0347 11.92 16.384 11.92C15.136 11.92 14.1813 12.304 13.52 13.072C12.8587 13.84 12.528 14.9333 12.528 16.352C12.528 17.7707 12.8587 18.8693 13.52 19.648C14.1813 20.416 15.136 20.8 16.384 20.8C17.0347 20.8 17.6053 20.704 18.096 20.512C18.5973 20.3093 19.104 19.984 19.616 19.536L20.16 20.72C19.6907 21.1787 19.136 21.5307 18.496 21.776C17.8667 22.0213 17.152 22.144 16.352 22.144ZM22.9371 22V20.736H25.5771V11.984H26.3291L23.1771 13.936V12.48L25.9931 10.72H27.0651V20.736H29.5451V22H22.9371ZM35.3469 22.144C34.0455 22.144 33.0375 21.8667 32.3229 21.312C31.6082 20.7573 31.2509 19.984 31.2509 18.992C31.2509 18.2133 31.4909 17.568 31.9709 17.056C32.4615 16.5333 33.0962 16.2187 33.8749 16.112V16.368C33.1602 16.2187 32.5895 15.8933 32.1629 15.392C31.7469 14.8907 31.5389 14.288 31.5389 13.584C31.5389 12.6453 31.8749 11.9093 32.5469 11.376C33.2295 10.8427 34.1629 10.576 35.3469 10.576C36.5415 10.576 37.4749 10.8427 38.1469 11.376C38.8295 11.9093 39.1709 12.6453 39.1709 13.584C39.1709 14.288 38.9682 14.896 38.5629 15.408C38.1682 15.92 37.6189 16.24 36.9149 16.368V16.112C37.6935 16.2187 38.3069 16.5333 38.7549 17.056C39.2135 17.568 39.4429 18.2133 39.4429 18.992C39.4429 19.984 39.0855 20.7573 38.3709 21.312C37.6669 21.8667 36.6589 22.144 35.3469 22.144ZM35.3469 20.944C36.2535 20.944 36.9255 20.7733 37.3629 20.432C37.8109 20.0907 38.0349 19.584 38.0349 18.912C38.0349 18.2293 37.8109 17.7227 37.3629 17.392C36.9255 17.0613 36.2535 16.896 35.3469 16.896C34.4509 16.896 33.7789 17.0613 33.3309 17.392C32.8829 17.7227 32.6589 18.2293 32.6589 18.912C32.6589 19.584 32.8829 20.0907 33.3309 20.432C33.7789 20.7733 34.4509 20.944 35.3469 20.944ZM35.3469 15.68C36.1255 15.68 36.7175 15.5093 37.1229 15.168C37.5389 14.816 37.7469 14.3307 37.7469 13.712C37.7469 13.104 37.5389 12.6293 37.1229 12.288C36.7175 11.9467 36.1255 11.776 35.3469 11.776C34.5789 11.776 33.9869 11.9467 33.5709 12.288C33.1549 12.6293 32.9469 13.104 32.9469 13.712C32.9469 14.3307 33.1549 14.816 33.5709 15.168C33.9869 15.5093 34.5789 15.68 35.3469 15.68Z" fill="#141C1A"/>
<path d="M47.9754 24.88C47.5167 24.0907 47.138 23.312 46.8394 22.544C46.5514 21.7867 46.338 21.0187 46.1994 20.24C46.0714 19.4507 46.0074 18.6347 46.0074 17.792C46.0074 16.9387 46.0714 16.1227 46.1994 15.344C46.338 14.5653 46.5514 13.7973 46.8394 13.04C47.138 12.2827 47.5167 11.5093 47.9754 10.72H49.1594C48.6154 11.9253 48.2047 13.1147 47.9274 14.288C47.65 15.4507 47.5114 16.6187 47.5114 17.792C47.5114 18.9653 47.65 20.1387 47.9274 21.312C48.2047 22.4853 48.6154 23.6747 49.1594 24.88H47.9754ZM51.5778 22V20.736H54.2178V11.984H54.9698L51.8178 13.936V12.48L54.6338 10.72H55.7058V20.736H58.1858V22H51.5778ZM64.1795 22.144C63.6888 22.144 63.2035 22.0907 62.7235 21.984C62.2542 21.8773 61.8115 21.728 61.3955 21.536C60.9795 21.3333 60.6168 21.088 60.3075 20.8L60.8355 19.648C61.3582 20.064 61.8915 20.3733 62.4355 20.576C62.9795 20.768 63.5502 20.864 64.1475 20.864C64.9368 20.864 65.5555 20.656 66.0035 20.24C66.4515 19.824 66.6755 19.2693 66.6755 18.576C66.6755 17.8613 66.4622 17.2853 66.0355 16.848C65.6088 16.4 65.0168 16.176 64.2595 16.176C63.7368 16.176 63.2622 16.2827 62.8355 16.496C62.4195 16.6987 62.0515 17.024 61.7315 17.472H60.6755V10.72H67.4435V11.984H62.1155V16.256H61.7315C62.0195 15.8293 62.4088 15.4987 62.8995 15.264C63.4008 15.0293 63.9608 14.912 64.5795 14.912C65.3048 14.912 65.9288 15.0613 66.4515 15.36C66.9848 15.6587 67.3955 16.08 67.6835 16.624C67.9822 17.1573 68.1315 17.7813 68.1315 18.496C68.1315 19.2107 67.9715 19.8453 67.6515 20.4C67.3315 20.944 66.8728 21.3707 66.2755 21.68C65.6888 21.9893 64.9902 22.144 64.1795 22.144ZM70.3973 24.88H69.1973C69.7413 23.6747 70.1519 22.4853 70.4293 21.312C70.7173 20.1387 70.8613 18.9653 70.8613 17.792C70.8613 16.6293 70.7173 15.4613 70.4293 14.288C70.1519 13.1147 69.7413 11.9253 69.1973 10.72H70.3973C70.8559 11.5093 71.2293 12.288 71.5173 13.056C71.8159 13.8133 72.0293 14.5813 72.1573 15.36C72.2959 16.1387 72.3653 16.9493 72.3653 17.792C72.3653 18.6453 72.2959 19.4613 72.1573 20.24C72.0293 21.0187 71.8159 21.7867 71.5173 22.544C71.2293 23.312 70.8559 24.0907 70.3973 24.88Z" fill="#8D8D8D"/>
</svg>
