<svg width="85" height="32" viewBox="0 0 85 32" fill="none" xmlns="http://www.w3.org/2000/svg">
<rect width="85" height="32" rx="4" fill="#E4E9E8"/>
<path d="M16.352 22.144C15.2213 22.144 14.2507 21.9093 13.44 21.44C12.64 20.9707 12.0267 20.304 11.6 19.44C11.1733 18.5653 10.96 17.536 10.96 16.352C10.96 15.168 11.1733 14.144 11.6 13.28C12.0267 12.416 12.64 11.7493 13.44 11.28C14.2507 10.8107 15.2213 10.576 16.352 10.576C17.1627 10.576 17.8827 10.6987 18.512 10.944C19.1413 11.1787 19.6907 11.5253 20.16 11.984L19.616 13.184C19.104 12.736 18.5973 12.416 18.096 12.224C17.6053 12.0213 17.0347 11.92 16.384 11.92C15.136 11.92 14.1813 12.304 13.52 13.072C12.8587 13.84 12.528 14.9333 12.528 16.352C12.528 17.7707 12.8587 18.8693 13.52 19.648C14.1813 20.416 15.136 20.8 16.384 20.8C17.0347 20.8 17.6053 20.704 18.096 20.512C18.5973 20.3093 19.104 19.984 19.616 19.536L20.16 20.72C19.6907 21.1787 19.136 21.5307 18.496 21.776C17.8667 22.0213 17.152 22.144 16.352 22.144ZM22.3131 22V20.896L26.2491 16.768C26.7611 16.2453 27.1398 15.744 27.3851 15.264C27.6411 14.784 27.7691 14.288 27.7691 13.776C27.7691 13.1467 27.5718 12.672 27.1771 12.352C26.7931 12.0213 26.2278 11.856 25.4811 11.856C24.9051 11.856 24.3611 11.9627 23.8491 12.176C23.3478 12.3787 22.8678 12.6933 22.4091 13.12L21.8811 11.984C22.3185 11.5573 22.8678 11.216 23.5291 10.96C24.2011 10.704 24.9051 10.576 25.6411 10.576C26.7931 10.576 27.6838 10.8427 28.3131 11.376C28.9425 11.8987 29.2571 12.6507 29.2571 13.632C29.2571 14.3467 29.0811 15.0293 28.7291 15.68C28.3878 16.32 27.8811 16.9813 27.2091 17.664L23.7691 21.152V20.736H29.7211V22H22.3131ZM32.5309 22V20.736H35.1709V11.984H35.9229L32.7709 13.936V12.48L35.5869 10.72H36.6589V20.736H39.1389V22H32.5309Z" fill="#141C1A"/>
<path d="M47.9754 24.88C47.5167 24.0907 47.138 23.312 46.8394 22.544C46.5514 21.7867 46.338 21.0187 46.1994 20.24C46.0714 19.4507 46.0074 18.6347 46.0074 17.792C46.0074 16.9387 46.0714 16.1227 46.1994 15.344C46.338 14.5653 46.5514 13.7973 46.8394 13.04C47.138 12.2827 47.5167 11.5093 47.9754 10.72H49.1594C48.6154 11.9253 48.2047 13.1147 47.9274 14.288C47.65 15.4507 47.5114 16.6187 47.5114 17.792C47.5114 18.9653 47.65 20.1387 47.9274 21.312C48.2047 22.4853 48.6154 23.6747 49.1594 24.88H47.9754ZM51.5778 22V20.736H54.2178V11.984H54.9698L51.8178 13.936V12.48L54.6338 10.72H55.7058V20.736H58.1858V22H51.5778ZM64.1795 22.144C63.6888 22.144 63.2035 22.0907 62.7235 21.984C62.2542 21.8773 61.8115 21.728 61.3955 21.536C60.9795 21.3333 60.6168 21.088 60.3075 20.8L60.8355 19.648C61.3582 20.064 61.8915 20.3733 62.4355 20.576C62.9795 20.768 63.5502 20.864 64.1475 20.864C64.9368 20.864 65.5555 20.656 66.0035 20.24C66.4515 19.824 66.6755 19.2693 66.6755 18.576C66.6755 17.8613 66.4622 17.2853 66.0355 16.848C65.6088 16.4 65.0168 16.176 64.2595 16.176C63.7368 16.176 63.2622 16.2827 62.8355 16.496C62.4195 16.6987 62.0515 17.024 61.7315 17.472H60.6755V10.72H67.4435V11.984H62.1155V16.256H61.7315C62.0195 15.8293 62.4088 15.4987 62.8995 15.264C63.4008 15.0293 63.9608 14.912 64.5795 14.912C65.3048 14.912 65.9288 15.0613 66.4515 15.36C66.9848 15.6587 67.3955 16.08 67.6835 16.624C67.9822 17.1573 68.1315 17.7813 68.1315 18.496C68.1315 19.2107 67.9715 19.8453 67.6515 20.4C67.3315 20.944 66.8728 21.3707 66.2755 21.68C65.6888 21.9893 64.9902 22.144 64.1795 22.144ZM70.3973 24.88H69.1973C69.7413 23.6747 70.1519 22.4853 70.4293 21.312C70.7173 20.1387 70.8613 18.9653 70.8613 17.792C70.8613 16.6293 70.7173 15.4613 70.4293 14.288C70.1519 13.1147 69.7413 11.9253 69.1973 10.72H70.3973C70.8559 11.5093 71.2293 12.288 71.5173 13.056C71.8159 13.8133 72.0293 14.5813 72.1573 15.36C72.2959 16.1387 72.3653 16.9493 72.3653 17.792C72.3653 18.6453 72.2959 19.4613 72.1573 20.24C72.0293 21.0187 71.8159 21.7867 71.5173 22.544C71.2293 23.312 70.8559 24.0907 70.3973 24.88Z" fill="#8D8D8D"/>
</svg>
