<svg width="111" height="32" viewBox="0 0 111 32" fill="none" xmlns="http://www.w3.org/2000/svg">
<rect width="111" height="32" rx="4" fill="#E4E9E8"/>
<path d="M16.352 22.144C15.2213 22.144 14.2507 21.9093 13.44 21.44C12.64 20.9707 12.0267 20.304 11.6 19.44C11.1733 18.5653 10.96 17.536 10.96 16.352C10.96 15.168 11.1733 14.144 11.6 13.28C12.0267 12.416 12.64 11.7493 13.44 11.28C14.2507 10.8107 15.2213 10.576 16.352 10.576C17.1627 10.576 17.8827 10.6987 18.512 10.944C19.1413 11.1787 19.6907 11.5253 20.16 11.984L19.616 13.184C19.104 12.736 18.5973 12.416 18.096 12.224C17.6053 12.0213 17.0347 11.92 16.384 11.92C15.136 11.92 14.1813 12.304 13.52 13.072C12.8587 13.84 12.528 14.9333 12.528 16.352C12.528 17.7707 12.8587 18.8693 13.52 19.648C14.1813 20.416 15.136 20.8 16.384 20.8C17.0347 20.8 17.6053 20.704 18.096 20.512C18.5973 20.3093 19.104 19.984 19.616 19.536L20.16 20.72C19.6907 21.1787 19.136 21.5307 18.496 21.776C17.8667 22.0213 17.152 22.144 16.352 22.144ZM22.3291 22V10.72H27.0011C28.2065 10.72 29.1291 11.008 29.7691 11.584C30.4091 12.16 30.7291 12.9547 30.7291 13.968C30.7291 14.9813 30.4091 15.7813 29.7691 16.368C29.1291 16.944 28.2065 17.232 27.0011 17.232H23.8171V22H22.3291ZM23.8171 16.016H26.8571C27.6465 16.016 28.2438 15.84 28.6491 15.488C29.0545 15.1253 29.2571 14.6187 29.2571 13.968C29.2571 13.3173 29.0545 12.816 28.6491 12.464C28.2438 12.112 27.6465 11.936 26.8571 11.936H23.8171V16.016ZM32.1048 18.208V17.024H36.7288V18.208H32.1048ZM39.8434 22V20.736H42.4834V11.984H43.2354L40.0834 13.936V12.48L42.8994 10.72H43.9714V20.736H46.4514V22H39.8434ZM49.4371 22V20.736H52.0771V11.984H52.8291L49.6771 13.936V12.48L52.4931 10.72H53.5651V20.736H56.0451V22H49.4371ZM63.1109 22V19.616H57.8149V18.544L63.3509 10.72H64.5669V18.432H66.2629V19.616H64.5669V22H63.1109ZM63.1109 18.432V12.48H63.4789L59.0149 18.784V18.432H63.1109Z" fill="#141C1A"/>
<path d="M74.4754 24.88C74.0167 24.0907 73.638 23.312 73.3394 22.544C73.0514 21.7867 72.838 21.0187 72.6994 20.24C72.5714 19.4507 72.5074 18.6347 72.5074 17.792C72.5074 16.9387 72.5714 16.1227 72.6994 15.344C72.838 14.5653 73.0514 13.7973 73.3394 13.04C73.638 12.2827 74.0167 11.5093 74.4754 10.72H75.6594C75.1154 11.9253 74.7047 13.1147 74.4274 14.288C74.15 15.4507 74.0114 16.6187 74.0114 17.792C74.0114 18.9653 74.15 20.1387 74.4274 21.312C74.7047 22.4853 75.1154 23.6747 75.6594 24.88H74.4754ZM78.0778 22V20.736H80.7178V11.984H81.4698L78.3178 13.936V12.48L81.1338 10.72H82.2058V20.736H84.6858V22H78.0778ZM90.6795 22.144C90.1888 22.144 89.7035 22.0907 89.2235 21.984C88.7542 21.8773 88.3115 21.728 87.8955 21.536C87.4795 21.3333 87.1168 21.088 86.8075 20.8L87.3355 19.648C87.8582 20.064 88.3915 20.3733 88.9355 20.576C89.4795 20.768 90.0502 20.864 90.6475 20.864C91.4368 20.864 92.0555 20.656 92.5035 20.24C92.9515 19.824 93.1755 19.2693 93.1755 18.576C93.1755 17.8613 92.9622 17.2853 92.5355 16.848C92.1088 16.4 91.5168 16.176 90.7595 16.176C90.2368 16.176 89.7622 16.2827 89.3355 16.496C88.9195 16.6987 88.5515 17.024 88.2315 17.472H87.1755V10.72H93.9435V11.984H88.6155V16.256H88.2315C88.5195 15.8293 88.9088 15.4987 89.3995 15.264C89.9008 15.0293 90.4608 14.912 91.0795 14.912C91.8048 14.912 92.4288 15.0613 92.9515 15.36C93.4848 15.6587 93.8955 16.08 94.1835 16.624C94.4822 17.1573 94.6315 17.7813 94.6315 18.496C94.6315 19.2107 94.4715 19.8453 94.1515 20.4C93.8315 20.944 93.3728 21.3707 92.7755 21.68C92.1888 21.9893 91.4902 22.144 90.6795 22.144ZM96.8973 24.88H95.6973C96.2413 23.6747 96.6519 22.4853 96.9293 21.312C97.2173 20.1387 97.3613 18.9653 97.3613 17.792C97.3613 16.6293 97.2173 15.4613 96.9293 14.288C96.6519 13.1147 96.2413 11.9253 95.6973 10.72H96.8973C97.3559 11.5093 97.7293 12.288 98.0173 13.056C98.3159 13.8133 98.5293 14.5813 98.6573 15.36C98.7959 16.1387 98.8653 16.9493 98.8653 17.792C98.8653 18.6453 98.7959 19.4613 98.6573 20.24C98.5293 21.0187 98.3159 21.7867 98.0173 22.544C97.7293 23.312 97.3559 24.0907 96.8973 24.88Z" fill="#8D8D8D"/>
</svg>
