<svg width="97" height="32" viewBox="0 0 97 32" fill="none" xmlns="http://www.w3.org/2000/svg">
<rect width="97" height="32" rx="4" fill="#E4E9E8"/>
<path d="M16.352 22.144C15.2213 22.144 14.2507 21.9093 13.44 21.44C12.64 20.9707 12.0267 20.304 11.6 19.44C11.1733 18.5653 10.96 17.536 10.96 16.352C10.96 15.168 11.1733 14.144 11.6 13.28C12.0267 12.416 12.64 11.7493 13.44 11.28C14.2507 10.8107 15.2213 10.576 16.352 10.576C17.1627 10.576 17.8827 10.6987 18.512 10.944C19.1413 11.1787 19.6907 11.5253 20.16 11.984L19.616 13.184C19.104 12.736 18.5973 12.416 18.096 12.224C17.6053 12.0213 17.0347 11.92 16.384 11.92C15.136 11.92 14.1813 12.304 13.52 13.072C12.8587 13.84 12.528 14.9333 12.528 16.352C12.528 17.7707 12.8587 18.8693 13.52 19.648C14.1813 20.416 15.136 20.8 16.384 20.8C17.0347 20.8 17.6053 20.704 18.096 20.512C18.5973 20.3093 19.104 19.984 19.616 19.536L20.16 20.72C19.6907 21.1787 19.136 21.5307 18.496 21.776C17.8667 22.0213 17.152 22.144 16.352 22.144ZM22.3291 22V10.72H31.8491V22H30.3771V11.968H23.8011V22H22.3291ZM34.5788 22V20.896L38.5148 16.768C39.0268 16.2453 39.4054 15.744 39.6508 15.264C39.9068 14.784 40.0348 14.288 40.0348 13.776C40.0348 13.1467 39.8374 12.672 39.4428 12.352C39.0588 12.0213 38.4934 11.856 37.7468 11.856C37.1708 11.856 36.6268 11.9627 36.1148 12.176C35.6134 12.3787 35.1334 12.6933 34.6748 13.12L34.1468 11.984C34.5841 11.5573 35.1334 11.216 35.7948 10.96C36.4668 10.704 37.1708 10.576 37.9068 10.576C39.0588 10.576 39.9494 10.8427 40.5788 11.376C41.2081 11.8987 41.5228 12.6507 41.5228 13.632C41.5228 14.3467 41.3468 15.0293 40.9948 15.68C40.6534 16.32 40.1468 16.9813 39.4748 17.664L36.0348 21.152V20.736H41.9868V22H34.5788ZM47.6125 22.144C46.3218 22.144 45.3298 21.648 44.6365 20.656C43.9432 19.6533 43.5965 18.2187 43.5965 16.352C43.5965 14.4533 43.9432 13.0187 44.6365 12.048C45.3298 11.0667 46.3218 10.576 47.6125 10.576C48.9138 10.576 49.9058 11.0667 50.5885 12.048C51.2818 13.0187 51.6285 14.448 51.6285 16.336C51.6285 18.2133 51.2818 19.6533 50.5885 20.656C49.8952 21.648 48.9032 22.144 47.6125 22.144ZM47.6125 20.88C48.4658 20.88 49.1005 20.512 49.5165 19.776C49.9432 19.04 50.1565 17.8933 50.1565 16.336C50.1565 14.7787 49.9432 13.6427 49.5165 12.928C49.1005 12.2027 48.4658 11.84 47.6125 11.84C46.7698 11.84 46.1352 12.2027 45.7085 12.928C45.2818 13.6427 45.0685 14.7787 45.0685 16.336C45.0685 17.8933 45.2818 19.04 45.7085 19.776C46.1352 20.512 46.7698 20.88 47.6125 20.88Z" fill="#141C1A"/>
<path d="M60.241 24.88C59.7823 24.0907 59.4037 23.312 59.105 22.544C58.817 21.7867 58.6037 21.0187 58.465 20.24C58.337 19.4507 58.273 18.6347 58.273 17.792C58.273 16.9387 58.337 16.1227 58.465 15.344C58.6037 14.5653 58.817 13.7973 59.105 13.04C59.4037 12.2827 59.7823 11.5093 60.241 10.72H61.425C60.881 11.9253 60.4703 13.1147 60.193 14.288C59.9157 15.4507 59.777 16.6187 59.777 17.792C59.777 18.9653 59.9157 20.1387 60.193 21.312C60.4703 22.4853 60.881 23.6747 61.425 24.88H60.241ZM63.8434 22V20.736H66.4834V11.984H67.2354L64.0834 13.936V12.48L66.8994 10.72H67.9714V20.736H70.4514V22H63.8434ZM76.4451 22.144C75.9545 22.144 75.4691 22.0907 74.9891 21.984C74.5198 21.8773 74.0771 21.728 73.6611 21.536C73.2451 21.3333 72.8825 21.088 72.5731 20.8L73.1011 19.648C73.6238 20.064 74.1571 20.3733 74.7011 20.576C75.2451 20.768 75.8158 20.864 76.4131 20.864C77.2025 20.864 77.8211 20.656 78.2691 20.24C78.7171 19.824 78.9411 19.2693 78.9411 18.576C78.9411 17.8613 78.7278 17.2853 78.3011 16.848C77.8745 16.4 77.2825 16.176 76.5251 16.176C76.0025 16.176 75.5278 16.2827 75.1011 16.496C74.6851 16.6987 74.3171 17.024 73.9971 17.472H72.9411V10.72H79.7091V11.984H74.3811V16.256H73.9971C74.2851 15.8293 74.6745 15.4987 75.1651 15.264C75.6665 15.0293 76.2265 14.912 76.8451 14.912C77.5705 14.912 78.1945 15.0613 78.7171 15.36C79.2505 15.6587 79.6611 16.08 79.9491 16.624C80.2478 17.1573 80.3971 17.7813 80.3971 18.496C80.3971 19.2107 80.2371 19.8453 79.9171 20.4C79.5971 20.944 79.1385 21.3707 78.5411 21.68C77.9545 21.9893 77.2558 22.144 76.4451 22.144ZM82.6629 24.88H81.4629C82.0069 23.6747 82.4175 22.4853 82.6949 21.312C82.9829 20.1387 83.1269 18.9653 83.1269 17.792C83.1269 16.6293 82.9829 15.4613 82.6949 14.288C82.4175 13.1147 82.0069 11.9253 81.4629 10.72H82.6629C83.1215 11.5093 83.4949 12.288 83.7829 13.056C84.0815 13.8133 84.2949 14.5813 84.4229 15.36C84.5615 16.1387 84.6309 16.9493 84.6309 17.792C84.6309 18.6453 84.5615 19.4613 84.4229 20.24C84.2949 21.0187 84.0815 21.7867 83.7829 22.544C83.4949 23.312 83.1215 24.0907 82.6629 24.88Z" fill="#8D8D8D"/>
</svg>
